<?xml version="1.0" standalone="no"?>
<!DOCTYPE svg PUBLIC "-//W3C//DTD SVG 20010904//EN"
 "http://www.w3.org/TR/2001/REC-SVG-20010904/DTD/svg10.dtd">
<svg version="1.0" xmlns="http://www.w3.org/2000/svg"
 width="500.000000pt" height="500.000000pt" viewBox="0 0 500.000000 500.000000"
 preserveAspectRatio="xMidYMid meet">

<g transform="translate(0.000000,500.000000) scale(0.100000,-0.100000)"
fill="#000000" stroke="none">
<path d="M1946 3509 c-35 -41 -34 -83 3 -120 38 -38 91 -40 126 -4 60 59 20
155 -65 155 -30 0 -43 -6 -64 -31z"/>
<path d="M1660 3505 c0 -20 29 -54 120 -144 l120 -118 0 -346 0 -347 -50 0
-50 0 0 -330 0 -330 225 0 225 0 0 330 0 330 -55 0 -55 0 0 343 0 342 125 125
c129 129 148 161 97 168 -17 3 -46 -18 -118 -85 -52 -48 -107 -96 -122 -105
-32 -21 -152 -24 -194 -5 -15 7 -70 54 -122 105 -69 66 -103 92 -121 92 -20 0
-25 -5 -25 -25z m380 -780 c0 -149 -2 -175 -15 -175 -13 0 -15 26 -15 175 0
149 2 175 15 175 13 0 15 -26 15 -175z"/>
<path d="M2630 2715 l0 -815 820 0 820 0 0 815 0 815 -820 0 -820 0 0 -815z
m1085 600 c82 -21 135 -48 189 -96 41 -37 59 -69 38 -69 -4 0 -16 -13 -25 -29
-28 -47 -50 -48 -125 -2 -119 71 -220 86 -356 51 -216 -55 -346 -256 -346
-536 0 -186 64 -314 193 -382 48 -25 60 -27 167 -26 94 0 125 4 171 22 88 35
87 34 104 161 22 167 30 151 -74 151 -59 0 -92 4 -98 13 -6 6 -7 34 -4 62 l6
50 169 3 c93 1 173 -1 177 -5 5 -5 -5 -109 -22 -233 -33 -251 -30 -244 -125
-289 -120 -57 -161 -65 -324 -66 -149 0 -157 1 -214 28 -133 62 -223 165 -267
307 -31 98 -33 287 -5 395 80 310 318 503 621 504 51 1 117 -6 150 -14z"/>
<path d="M1270 2110 l0 -220 220 0 220 0 0 220 0 220 -220 0 -220 0 0 -220z"/>
<path d="M730 1995 l0 -105 220 0 220 0 0 105 0 105 -220 0 -220 0 0 -105z"/>
<path d="M1510 1673 c-30 -11 -60 -48 -70 -84 -21 -76 14 -129 83 -129 54 0
73 15 81 63 7 36 6 37 -24 37 -16 0 -30 -4 -30 -10 0 -5 7 -10 16 -10 11 0 14
-8 12 -27 -3 -25 -8 -28 -45 -31 -36 -3 -44 1 -59 23 -24 36 -13 103 21 132
28 25 74 30 92 12 6 -6 16 -8 23 -4 31 19 -56 44 -100 28z"/>
<path d="M1760 1574 c-6 -58 -10 -108 -7 -111 13 -13 27 11 27 48 0 57 31 54
60 -6 12 -25 28 -45 36 -45 18 0 18 1 -10 50 l-24 43 29 24 c56 47 25 103 -57
103 l-41 0 -13 -106z m98 74 c27 -27 -2 -78 -45 -78 -20 0 -23 5 -23 38 0 21
3 42 7 45 11 11 48 8 61 -5z"/>
<path d="M2058 1574 c-27 -58 -47 -108 -43 -112 8 -8 35 26 35 45 0 9 16 13
50 13 48 0 51 -1 57 -30 3 -17 12 -30 20 -30 9 0 12 7 9 18 -5 17 -30 124 -41
175 -11 52 -35 31 -87 -79z m78 16 l11 -50 -38 0 -38 0 21 50 c11 28 24 50 27
50 4 0 12 -22 17 -50z"/>
<path d="M2347 1643 c-3 -21 -9 -71 -13 -110 l-7 -73 52 0 c38 0 56 5 71 20
23 23 26 62 6 79 -13 11 -12 15 5 32 42 42 7 89 -67 89 -40 0 -42 -1 -47 -37z
m101 -12 c4 -29 -20 -51 -55 -51 -19 0 -23 5 -23 33 0 42 7 49 45 45 23 -2 31
-8 33 -27z m-10 -83 c29 -29 -2 -68 -55 -68 -32 0 -35 2 -29 23 3 12 6 30 6
40 0 13 8 17 33 17 18 0 38 -5 45 -12z"/>
<path d="M2610 1670 c0 -5 14 -10 31 -10 l31 0 -6 -62 c-4 -35 -9 -80 -12
-102 -5 -30 -3 -37 7 -34 8 3 17 28 21 59 21 153 16 139 54 139 19 0 34 5 34
10 0 6 -33 10 -80 10 -47 0 -80 -4 -80 -10z"/>
<path d="M2892 1583 c-7 -54 -12 -104 -12 -110 0 -9 19 -13 60 -13 33 0 60 4
60 10 0 6 -20 10 -45 10 l-45 0 0 40 0 40 40 0 c22 0 40 5 40 10 0 6 -16 10
-36 10 -35 0 -35 1 -32 38 l3 37 53 3 c74 4 65 22 -11 22 l-63 0 -12 -97z"/>
<path d="M3166 1653 c-12 -65 -18 -193 -8 -193 5 0 13 20 16 45 6 34 12 45 25
45 10 0 25 -17 39 -45 12 -25 28 -45 37 -45 16 0 12 17 -16 64 -17 29 -17 30
7 48 17 14 24 29 24 53 0 41 -20 55 -79 55 -35 0 -40 -3 -45 -27z m92 -5 c19
-19 14 -46 -13 -64 -39 -25 -61 -15 -57 26 2 19 6 38 9 43 7 11 48 8 61 -5z"/>
<path d="M3440 1575 c-12 -97 -10 -128 6 -112 4 4 10 38 13 76 4 39 9 73 13
76 6 7 62 -79 72 -112 7 -22 33 -49 41 -42 10 11 30 219 20 216 -5 -2 -14 -38
-19 -81 -5 -42 -13 -75 -18 -74 -4 2 -27 36 -50 77 -24 41 -48 76 -54 78 -7 2
-16 -35 -24 -102z"/>
</g>
</svg>
