<svg xmlns="http://www.w3.org/2000/svg"  viewBox="0 0 100 100" width="100px" height="100px"><circle cx="13" cy="29" r="2" fill="#ee3e54"/><circle cx="77" cy="13" r="1" fill="#f1bc19"/><circle cx="50" cy="50" r="37" fill="#fce0a2"/><circle cx="83" cy="15" r="4" fill="#f1bc19"/><circle cx="87" cy="24" r="2" fill="#ee3e54"/><circle cx="81" cy="76" r="2" fill="#fbcd59"/><circle cx="15" cy="63" r="4" fill="#fbcd59"/><circle cx="25" cy="87" r="2" fill="#ee3e54"/><circle cx="18.5" cy="53.5" r="2.5" fill="#fff"/><circle cx="21" cy="67" r="1" fill="#f1bc19"/><circle cx="80" cy="34" r="1" fill="#fff"/><g><path fill="#fabf82" d="M69.121,70.526c-0.405-2.146-1.28-3.403-3.342-4.026c-0.09-0.027-0.21-0.071-0.345-0.123 c-0.156-0.068-0.354-0.148-0.586-0.238c-1.249-0.528-8.673-3.267-8.673-3.267c-0.612-0.155-1.01-0.591-1.24-1.082 c-0.38-0.811-0.233-2.914-0.233-2.914s-3.104,1.062-5.041,1.424c-1.9,0.185-5.983-2.272-5.983-2.272s-0.096,3.037-0.225,3.712 c-0.102,0.53-0.672,0.978-1.284,1.133l-7.124,2.583c-0.788,0.206-1.544,0.5-2.209,0.911c-1.793,1.107-2.701,2.769-3.163,4.16 c0,0-0.469,3.316-0.45,3.435c-0.044,0.464-0.09,0.975-0.137,1.512c7.764,5.257,14,6.73,24.699,6.262 c4.861-0.213,12.099-2.613,15.891-4.527C69.475,72.984,69.121,70.526,69.121,70.526z"/><path fill="#88cdd7" d="M65.779,66.541c-0.09-0.027-0.21-0.071-0.345-0.123c-0.156-0.068-0.354-0.148-0.586-0.238 c-0.773-0.327-3.905-1.498-6.184-2.345l-0.107-0.028c-2.516,1.29-6.096,3.226-9.384,3.226c-3.288,0-6.585-1.75-9.384-3.226 l-0.314,0.083l-4.431,1.607c-0.788,0.206-1.544,0.5-2.209,0.911c-1.793,1.107-2.701,2.769-3.163,4.16c0,0-0.469,3.316-0.45,3.435 c-0.044,0.464-0.09,5.444-0.137,5.981c7.764,5.257,14,6.73,24.699,6.262c4.861-0.213,12.099-2.613,15.891-4.527 c-0.201-4.224-0.554-11.151-0.554-11.151C68.716,68.421,67.841,67.164,65.779,66.541z"/><path fill="#be7841" d="M38.536,46.356c-0.158-0.347-3.837-8.559-1.042-14.144c1.158-2.313,3.257-3.827,6.241-4.502 c1.718-1.184,3.779-1.835,5.816-1.835c1.709,0,3.369,0.442,4.934,1.315c0.83,0.463,1.501,0.854,2.064,1.181 c1.782,1.037,2.383,1.386,3.443,1.386c0.117,0,0.24-0.004,0.37-0.012l0.129-0.008c0.151-0.01,0.3-0.019,0.44-0.019 c0.925,0,1.184,0.492,1.239,0.905c0.139,1.044-0.228,1.945-0.551,2.739c-0.292,0.716-0.543,1.333-0.373,1.893 c1.838,6.037-1.011,10.945-1.133,11.151l-0.942,1.586l0.012-1.845c0-0.049,0.016-4.724-1.094-7.714 c-1.42,0.793-3.144,1.209-5.026,1.209c-3.247,0-6.837-1.185-10.403-3.43c-3.17,2.491-3.168,9.86-3.168,9.936l0.013,2.335 L38.536,46.356z"/><path fill="#472b29" d="M49.551,26.375c1.512,0,3.109,0.37,4.69,1.251c3.534,1.971,4.19,2.63,5.75,2.63 c0.127,0,0.259-0.004,0.4-0.013c0.184-0.011,0.369-0.026,0.539-0.026c0.384,0,0.692,0.079,0.744,0.47 c0.245,1.842-1.346,3.266-0.906,4.711c1.795,5.895-1.085,10.75-1.085,10.75s0.035-5.382-1.354-8.449 c-1.433,0.946-3.231,1.44-5.267,1.44c-3.077,0-6.698-1.13-10.42-3.534c-3.694,2.458-3.65,10.543-3.65,10.543 s-6.996-15.36,4.949-17.971C45.458,27.108,47.421,26.375,49.551,26.375 M49.551,25.375 C49.551,25.375,49.551,25.375,49.551,25.375c-2.106,0-4.235,0.663-6.02,1.87c-3.087,0.72-5.268,2.315-6.484,4.744 c-2.901,5.796,0.872,14.219,1.034,14.575l1.93,4.238l-0.02-4.657c-0.009-1.965,0.479-7.202,2.717-9.315 c3.542,2.169,7.109,3.312,10.354,3.312c1.741,0,3.355-0.343,4.74-1c0.896,2.894,0.881,6.956,0.881,7.002l-0.024,3.692 l1.884-3.176c0.127-0.214,3.083-5.306,1.181-11.552c-0.119-0.389,0.102-0.931,0.357-1.558c0.33-0.81,0.74-1.818,0.583-2.994 c-0.042-0.314-0.29-1.339-1.735-1.339c-0.15,0-0.309,0.01-0.471,0.02l-0.127,0.008c-0.12,0.007-0.233,0.011-0.341,0.011 c-0.891,0-1.358-0.252-3.191-1.318c-0.564-0.328-1.239-0.72-2.072-1.185C53.088,25.839,51.347,25.375,49.551,25.375 L49.551,25.375L49.551,25.375z"/><path fill="#00a5a5" d="M35.903,84.213c-0.166,0-0.3-0.134-0.3-0.3v-3.95c0-0.166,0.134-0.3,0.3-0.3s0.3,0.134,0.3,0.3 v3.95C36.203,84.079,36.069,84.213,35.903,84.213z"/><path fill="#00a5a5" d="M62.231,84.908c-0.166,0-0.3-0.134-0.3-0.3v-4.645c0-0.166,0.134-0.3,0.3-0.3s0.3,0.134,0.3,0.3 v4.645C62.531,84.774,62.397,84.908,62.231,84.908z"/><path fill="#fddbbc" d="M61.418,44c-0.117-0.008-0.236-0.009-0.36-0.009c-0.965-0.047-0.883,0.317-0.839-0.28 c0.078-1.06-0.427-5.34-0.427-5.557c0-4.456-4.653-8.091-10.466-8.292v-0.013c-0.039,0.001-0.077,0.006-0.117,0.007 c-0.039-0.001-0.077-0.006-0.117-0.007v0.013c-5.814,0.202-10.466,3.836-10.466,8.292c0,0.217-0.148,4.517-0.07,5.578 c0.044,0.597-0.231,0.212-1.196,0.259c-0.124,0-0.243,0.001-0.36,0.009c-1.058,0.071-1.914,0.744-2.097,1.578 c0.13,0.079,0.611,3.731,1.391,5.17c0.436,0.803,1.116,0.915,1.815,1.434c0.387,0.287,0.462,0.612,0.568,1.041 c0.392,1.59,1.481,2.942,2.674,4.096c0.589,0.57,4.499,4.738,7.858,4.527c3.375-0.127,7.269-3.957,7.858-4.527 c1.193-1.154,2.282-2.506,2.674-4.096c0.106-0.43,0.18-0.754,0.568-1.041c0.699-0.519,1.379-0.63,1.815-1.434 c0.78-1.439,1.262-5.091,1.391-5.17C63.332,44.744,62.476,44.07,61.418,44z"/><path fill="#512c2b" d="M49.269,51.059c0.683,0,1.345-0.298,1.771-0.797c0.043-0.05,0.037-0.126-0.013-0.169l0,0 c-0.05-0.043-0.125-0.038-0.169,0.012c-0.347,0.397-0.927,0.625-1.589,0.625c-0.663,0-1.242-0.228-1.589-0.625 c-0.024-0.027-0.057-0.041-0.091-0.041c-0.028,0-0.056,0.01-0.078,0.029c-0.05,0.043-0.056,0.119-0.013,0.169 C47.924,50.761,48.586,51.059,49.269,51.059z"/><path fill="#512c2b" d="M47.091,41.833l0.433-0.832c-1.832-0.429-3.941-0.361-5.682,0.179l0.546,0.811 C43.819,41.519,45.579,41.459,47.091,41.833z"/><path fill="#512c2b" d="M56.262,41.833l0.433-0.832c-1.832-0.429-3.941-0.361-5.682,0.179l0.546,0.811 C52.991,41.519,54.751,41.459,56.262,41.833z"/><path fill="#512c2b" d="M44.454,43.007c-0.44,0-0.826,0.291-1.049,0.731c0.056-0.017,0.113-0.029,0.174-0.029 c0.361,0,0.653,0.327,0.653,0.729c0,0.403-0.293,0.729-0.653,0.729c-0.118,0-0.227-0.038-0.323-0.099 c0.154,0.661,0.632,1.142,1.199,1.142c0.691,0,1.252-0.717,1.252-1.602C45.706,43.725,45.145,43.007,44.454,43.007z"/><path fill="#512c2b" d="M54.031,43.007c-0.376,0-0.712,0.213-0.941,0.548c0.072-0.03,0.149-0.049,0.23-0.049 c0.361,0,0.653,0.327,0.653,0.729c0,0.403-0.293,0.729-0.653,0.729c-0.224,0-0.421-0.126-0.539-0.318 c0.016,0.867,0.569,1.563,1.25,1.563c0.691,0,1.252-0.717,1.252-1.602C55.282,43.725,54.722,43.007,54.031,43.007z"/><path fill="#512c2b" d="M54.562,52.915c0.051-0.042,0.059-0.117,0.018-0.168l0,0c-0.041-0.051-0.117-0.06-0.169-0.018 c-1.128,0.899-3.002,1.415-5.141,1.415s-4.013-0.516-5.142-1.416c-0.022-0.018-0.048-0.026-0.075-0.026 c-0.035,0-0.07,0.015-0.094,0.045c-0.041,0.051-0.034,0.127,0.017,0.169c1.274,1.041,3.253,1.663,5.293,1.663 C51.309,54.578,53.287,53.957,54.562,52.915z"/><path fill="#512c2b" d="M50.666,58.185c0.062,0,0.114-0.072,0.114-0.157c0-0.085-0.052-0.157-0.114-0.157h-2.571 c-0.062,0-0.114,0.072-0.114,0.157c0,0.085,0.052,0.157,0.114,0.157H50.666z"/><path fill="#472b29" d="M50.321,86.962c-8.906,0-14.653-1.781-21.517-6.428c-0.15-0.102-0.233-0.276-0.218-0.457 c0.009-0.108,0.014-0.475,0.021-1.006c0.033-2.182,0.1-6.721,0.582-8.497c0.654-2.417,1.612-3.362,3.382-4.455 c0.662-0.409,1.451-0.734,2.345-0.969l7.08-2.569c0.503-0.13,0.906-0.457,0.963-0.757c0.029-0.148,0.085-0.61,0.153-2.038 c-1.03-0.729-1.869-1.385-2.112-1.623c-1.561-1.526-2.454-2.918-2.811-4.381c-0.109-0.447-0.156-0.602-0.382-0.771 c-0.207-0.156-0.414-0.271-0.61-0.382c-0.483-0.272-0.982-0.555-1.345-1.232c-0.838-1.564-1.451-4.521-1.451-5.464 c0-0.036,0.004-0.071,0.011-0.106c0.235-1.085,1.285-1.903,2.552-1.988c0.127-0.008,0.259-0.012,0.395-0.01 c0.271-0.013,0.501,0.006,0.683,0.031c-0.036-1.206,0.036-3.759,0.068-4.913c0.008-0.289,0.014-0.479,0.014-0.521 c0-4.739,4.753-8.624,10.84-8.881c0.045-0.013,0.087-0.02,0.139-0.018l0.104,0.5l0.02-0.495c0.041,0.001,0.078,0.002,0.12,0.009 c6.137,0.217,10.943,4.119,10.943,8.885c0.003,0.067,0.036,0.357,0.08,0.764c0.196,1.799,0.401,3.784,0.345,4.558l-0.005,0.063 c0.074,0.004,0.157,0.008,0.239,0.012l0.131,0.006c0.11,0,0.241,0,0.371,0.01c1.266,0.085,2.315,0.903,2.55,1.988 c0.007,0.035,0.011,0.07,0.011,0.105c0,1.089-0.65,3.97-1.45,5.464c-0.363,0.677-0.862,0.959-1.345,1.232 c-0.197,0.111-0.403,0.226-0.611,0.382c-0.226,0.17-0.273,0.326-0.376,0.751c-0.361,1.482-1.254,2.875-2.815,4.401 c-0.253,0.248-1.154,0.982-2.242,1.768c-0.002,0.858,0.075,1.53,0.213,1.825c0.141,0.3,0.413,0.684,0.911,0.811 c0.353,0.127,7.499,2.764,8.745,3.291c0.225,0.087,0.428,0.17,0.589,0.239c0.103,0.039,0.211,0.079,0.292,0.103 c2.124,0.642,3.227,1.961,3.689,4.412c0.004,0.022,0.007,0.045,0.008,0.067c0,0,0.354,6.927,0.554,11.152 c0.009,0.197-0.098,0.381-0.274,0.47c-4.043,2.041-11.346,4.373-16.094,4.58C52.59,86.934,51.431,86.962,50.321,86.962z M29.595,79.86c7.41,4.964,13.547,6.485,24.167,6.021c4.505-0.197,11.397-2.371,15.398-4.33 c-0.194-4.065-0.51-10.274-0.537-10.789c-0.396-2.064-1.236-3.077-2.989-3.607c-0.098-0.029-0.231-0.077-0.381-0.134 c-0.17-0.073-0.362-0.151-0.587-0.239c-1.238-0.523-8.591-3.236-8.665-3.264c-0.635-0.159-1.192-0.64-1.52-1.339 c-0.226-0.482-0.329-1.33-0.305-2.519c0.003-0.158,0.081-0.306,0.21-0.397c1.217-0.867,2.132-1.622,2.33-1.816 c1.421-1.39,2.228-2.63,2.538-3.903c0.114-0.472,0.228-0.94,0.753-1.334c0.245-0.184,0.487-0.322,0.719-0.453 c0.423-0.239,0.729-0.412,0.955-0.833c0.754-1.406,1.309-4.022,1.332-4.936c-0.163-0.618-0.838-1.099-1.63-1.152 c-0.106-0.008-0.212-0.006-0.324-0.008l-0.156-0.007c-0.551-0.026-0.828-0.039-1.042-0.283c-0.196-0.224-0.174-0.484-0.153-0.735 l0.011-0.128c0.054-0.749-0.213-3.199-0.342-4.377c-0.052-0.479-0.086-0.812-0.086-0.873c0-4.226-4.386-7.69-9.984-7.886 c-0.025,0-0.05-0.003-0.075-0.008c-0.021,0-0.038,0.002-0.037,0.001l-0.001-0.004c-0.028,0.006-0.057,0.01-0.086,0.011 c-5.599,0.196-9.984,3.66-9.984,7.886c0,0.043-0.005,0.245-0.014,0.549c-0.032,1.153-0.118,4.215-0.057,5.056 c0.012,0.158,0.036,0.487-0.209,0.712c-0.236,0.216-0.527,0.171-0.762,0.134c-0.177-0.028-0.396-0.063-0.699-0.048 c-0.137,0-0.244,0.001-0.348,0.008c-0.793,0.054-1.469,0.534-1.632,1.152c0.024,0.906,0.617,3.604,1.332,4.936 c0.226,0.422,0.532,0.595,0.955,0.833c0.232,0.131,0.474,0.27,0.719,0.453c0.524,0.393,0.638,0.86,0.748,1.312 c0.315,1.295,1.122,2.536,2.543,3.926c0.197,0.193,1.076,0.883,2.211,1.676c0.141,0.098,0.221,0.261,0.213,0.433 c-0.058,1.301-0.12,2.127-0.182,2.455c-0.154,0.801-0.94,1.343-1.652,1.523l-7.076,2.568c-0.842,0.223-1.54,0.51-2.117,0.866 c-1.605,0.991-2.369,1.747-2.943,3.866c-0.448,1.655-0.517,6.276-0.546,8.25C29.604,79.405,29.6,79.669,29.595,79.86z"/><path fill="#895d3d" d="M61.48,48.881l-0.597-0.067l0.201-1.779l-1.011,0.438l-0.238-0.551l1.486-0.644 c0.098-0.042,0.211-0.029,0.297,0.034c0.086,0.063,0.132,0.168,0.12,0.275L61.48,48.881z"/><path fill="#895d3d" d="M37.262,48.539l-0.258-2.294c-0.012-0.106,0.034-0.211,0.12-0.275 c0.085-0.063,0.2-0.077,0.297-0.034l1.486,0.644l-0.238,0.551l-1.011-0.438l0.201,1.779L37.262,48.539z"/><path fill="#472b29" d="M38.602,52.98c-0.001,0-0.002,0-0.004,0c-0.11-0.002-0.198-0.094-0.196-0.204l0.165-8.647 c0.002-0.109,0.091-0.196,0.2-0.196c0.001,0,0.002,0,0.004,0c0.11,0.002,0.198,0.094,0.196,0.204l-0.165,8.647 C38.799,52.893,38.71,52.98,38.602,52.98z"/><path fill="#472b29" d="M59.981,52.98c-0.109,0-0.198-0.087-0.2-0.196l-0.164-8.647c-0.002-0.11,0.086-0.202,0.196-0.204 c0.001,0,0.003,0,0.004,0c0.109,0,0.198,0.087,0.2,0.196l0.164,8.647c0.002,0.11-0.086,0.202-0.196,0.204 C59.983,52.98,59.982,52.98,59.981,52.98z"/><path fill="#472b29" d="M49.321,62.094c-2.123,0-5.698-2.612-5.855-2.728c-0.111-0.082-0.135-0.238-0.053-0.349 c0.083-0.112,0.24-0.135,0.349-0.053c0.039,0.028,3.888,2.833,5.76,2.619c1.915-0.217,4.982-2.378,5.013-2.4 c0.112-0.079,0.268-0.054,0.349,0.06c0.08,0.113,0.053,0.269-0.06,0.349c-0.13,0.092-3.202,2.256-5.245,2.489 C49.495,62.09,49.409,62.094,49.321,62.094z"/><path fill="#be7841" d="M61.673,30.75c-0.075-0.565-0.683-0.48-1.283-0.444c-1.872,0.111-2.329-0.486-6.15-2.617 c-3.808-2.124-7.704-1.277-10.301,0.551c-11.945,2.611-4.949,17.971-4.949,17.971s-0.044-8.085,3.65-10.543 c6.186,3.996,12.088,4.47,15.687,2.094c1.389,3.067,1.354,8.449,1.354,8.449s2.88-4.855,1.085-10.75 C60.327,34.016,61.918,32.591,61.673,30.75L61.673,30.75z"/><g><path fill="#472b29" d="M60.125,46.169l-0.5-0.003c0-0.052,0.017-5.064-1.241-8.082c-3.925,2.35-9.95,1.536-15.848-2.161 c-3.471,2.459-3.471,10.164-3.47,10.243l-0.5,0.003c-0.002-0.336-0.001-8.25,3.828-10.754c0.082-0.053,0.188-0.054,0.271-0.001 c5.901,3.745,11.916,4.547,15.696,2.095c0.062-0.039,0.137-0.05,0.206-0.03c0.07,0.021,0.127,0.07,0.158,0.136 C60.144,40.697,60.126,45.948,60.125,46.169z"/></g></g></svg>