<?xml version="1.0" encoding="UTF-8"?>
<!DOCTYPE svg PUBLIC "-//W3C//DTD SVG 1.1//EN" "http://www.w3.org/Graphics/SVG/1.1/DTD/svg11.dtd">
<svg xmlns="http://www.w3.org/2000/svg" version="1.1" width="1611px" height="1534px" style="shape-rendering:geometricPrecision; text-rendering:geometricPrecision; image-rendering:optimizeQuality; fill-rule:evenodd; clip-rule:evenodd" xmlns:xlink="http://www.w3.org/1999/xlink">
<g><path style="opacity:1" fill="#d9ceec" d="M 1475.5,249.5 C 1478.1,253.771 1481.43,257.437 1485.5,260.5C 1486.42,263.089 1488.09,265.089 1490.5,266.5C 1494.42,272.754 1499.08,278.421 1504.5,283.5C 1504.74,285.404 1505.74,286.738 1507.5,287.5C 1507.74,289.404 1508.74,290.738 1510.5,291.5C 1510.74,293.404 1511.74,294.738 1513.5,295.5C 1513.74,297.404 1514.74,298.738 1516.5,299.5C 1516.74,301.404 1517.74,302.738 1519.5,303.5C 1520.43,306.37 1522.1,308.704 1524.5,310.5C 1524.43,312.027 1525.09,313.027 1526.5,313.5C 1526.43,315.027 1527.09,316.027 1528.5,316.5C 1528.43,318.027 1529.09,319.027 1530.5,319.5C 1530.43,321.027 1531.09,322.027 1532.5,322.5C 1532.43,324.027 1533.09,325.027 1534.5,325.5C 1535.38,328.704 1537.05,331.371 1539.5,333.5C 1539.75,335.674 1540.75,337.341 1542.5,338.5C 1542.75,340.674 1543.75,342.341 1545.5,343.5C 1546.08,346.331 1547.41,348.664 1549.5,350.5C 1550.08,353.331 1551.41,355.664 1553.5,357.5C 1555.34,359.849 1556.67,362.515 1557.5,365.5C 1557.99,367.819 1558.99,369.819 1560.5,371.5C 1563.01,375.182 1565.01,379.182 1566.5,383.5C 1566.71,386.241 1567.71,388.574 1569.5,390.5C 1570.34,390.842 1570.67,391.508 1570.5,392.5C 1570.4,394.553 1571.07,396.22 1572.5,397.5C 1573.34,397.842 1573.67,398.508 1573.5,399.5C 1573.73,402.542 1574.73,405.208 1576.5,407.5C 1576.75,411.327 1578.08,414.66 1580.5,417.5C 1581.72,424.167 1583.72,430.501 1586.5,436.5C 1587.4,437.209 1587.74,438.209 1587.5,439.5C 1587.41,442.152 1588.08,444.485 1589.5,446.5C 1590.43,447.568 1590.77,448.901 1590.5,450.5C 1590.57,453.428 1591.23,456.095 1592.5,458.5C 1607.69,519.106 1605.19,579.106 1585,638.5C 1578.64,655.561 1570.47,671.561 1560.5,686.5C 1555.77,691.632 1551.77,697.299 1548.5,703.5C 1527.76,729.576 1504.09,752.576 1477.5,772.5C 1474.15,767.328 1469.49,763.828 1463.5,762C 1434.17,761.333 1404.83,761.333 1375.5,762C 1367.64,764.526 1362.47,769.693 1360,777.5C 1359.33,793.5 1359.33,809.5 1360,825.5C 1361.87,831.864 1365.71,836.531 1371.5,839.5C 1362.44,845.205 1353.11,850.539 1343.5,855.5C 1342.7,855.957 1342.37,856.624 1342.5,857.5C 1321.13,838.83 1296.13,828.997 1267.5,828C 1240.55,825.435 1215.55,831.102 1192.5,845C 1171.42,861.641 1159.59,883.474 1157,910.5C 1155.12,934.49 1156.95,958.157 1162.5,981.5C 1146.26,996.061 1132.26,1012.39 1120.5,1030.5C 1119.57,1033.37 1117.9,1035.7 1115.5,1037.5C 1108.32,1046.02 1102.32,1055.36 1097.5,1065.5C 1086.32,1086.86 1076.49,1108.86 1068,1131.5C 1064.8,1137.89 1061.64,1144.22 1058.5,1150.5C 1028.26,1125.22 993.591,1108.72 954.5,1101C 939.38,1097.29 924.047,1095.13 908.5,1094.5C 907.191,1074.84 906.358,1055.18 906,1035.5C 916.027,1021.78 923.693,1006.78 929,990.5C 931,987.167 933,983.833 935,980.5C 942.967,980.352 948.633,976.685 952,969.5C 957.026,958.678 959.026,947.345 958,935.5C 957.362,934.391 956.862,933.225 956.5,932C 968.885,896.626 978.219,860.459 984.5,823.5C 974.969,820.734 966.302,816.401 958.5,810.5C 1060.17,810.5 1161.83,810.5 1263.5,810.5C 1263.5,783.167 1263.5,755.833 1263.5,728.5C 1268.5,728.5 1273.5,728.5 1278.5,728.5C 1283.9,740.294 1289.56,751.96 1295.5,763.5C 1297.46,762.252 1298.96,760.585 1300,758.5C 1305.97,748.368 1312.14,738.368 1318.5,728.5C 1326.81,727.668 1335.15,727.168 1343.5,727C 1351,724.833 1355.83,720 1358,712.5C 1358.67,695.833 1358.67,679.167 1358,662.5C 1355.19,655.339 1350.03,650.839 1342.5,649C 1316.17,648.5 1289.84,648.333 1263.5,648.5C 1263.17,610.33 1263.5,572.33 1264.5,534.5C 1272.56,539.109 1281.06,542.776 1290,545.5C 1292.29,555.093 1294.12,564.76 1295.5,574.5C 1306.17,574.5 1316.83,574.5 1327.5,574.5C 1329.17,564.5 1330.83,554.5 1332.5,544.5C 1341.24,542.464 1349.58,539.298 1357.5,535C 1364.23,530.64 1370.57,525.806 1376.5,520.5C 1385.7,523.399 1394.86,526.399 1404,529.5C 1409.55,520.934 1414.72,512.101 1419.5,503C 1412.36,495.692 1405.02,488.525 1397.5,481.5C 1402.36,465.778 1402.69,449.944 1398.5,434C 1404.83,426.129 1412.16,419.129 1420.5,413C 1415.37,404.582 1410.37,396.082 1405.5,387.5C 1403.93,386.369 1402.26,386.202 1400.5,387C 1392.39,389.538 1384.39,392.371 1376.5,395.5C 1364.6,383.212 1350.27,375.045 1333.5,371C 1331.31,361.232 1329.31,351.398 1327.5,341.5C 1322.17,341.5 1316.83,341.5 1311.5,341.5C 1311.5,342.833 1311.5,344.167 1311.5,345.5C 1315.83,345.5 1320.17,345.5 1324.5,345.5C 1326.3,355.145 1327.96,364.812 1329.5,374.5C 1338.8,375.829 1347.47,378.996 1355.5,384C 1362.63,388.797 1369.46,393.963 1376,399.5C 1384.87,396.599 1393.7,393.599 1402.5,390.5C 1406.71,397.75 1411.04,404.916 1415.5,412C 1408.13,418.674 1400.8,425.341 1393.5,432C 1398.77,448.79 1398.77,465.623 1393.5,482.5C 1393.67,483.167 1393.83,483.833 1394,484.5C 1401.2,490.703 1408.03,497.203 1414.5,504C 1411.12,511.368 1406.95,518.202 1402,524.5C 1393.13,521.599 1384.3,518.599 1375.5,515.5C 1363.19,527.965 1348.52,536.465 1331.5,541C 1330.67,541.833 1329.83,542.667 1329,543.5C 1327.15,552.369 1325.32,561.202 1323.5,570C 1315.17,570.5 1306.84,570.666 1298.5,570.5C 1296.96,560.812 1295.3,551.145 1293.5,541.5C 1283.02,539.425 1273.35,535.425 1264.5,529.5C 1262.84,481.354 1263.17,433.354 1265.5,385.5C 1273.95,379.61 1283.28,375.944 1293.5,374.5C 1294.93,364.196 1296.93,354.029 1299.5,344C 1297.57,343.217 1296.07,343.717 1295,345.5C 1293.33,353.833 1291.67,362.167 1290,370.5C 1280.84,372.662 1272.34,376.329 1264.5,381.5C 1263.5,323.669 1263.17,265.669 1263.5,207.5C 1263.5,177.5 1263.5,147.5 1263.5,117.5C 1085.5,117.5 907.5,117.5 729.5,117.5C 771.028,59.7173 827.361,26.5506 898.5,18C 932.784,13.7051 967.117,13.3718 1001.5,17C 1166.82,34.8392 1311.15,98.8392 1434.5,209C 1448.03,222.702 1461.7,236.202 1475.5,249.5 Z"/></g>
<g><path style="opacity:1" fill="#8965c4" d="M 1475.5,249.5 C 1461.7,236.202 1448.03,222.702 1434.5,209C 1311.15,98.8392 1166.82,34.8392 1001.5,17C 967.117,13.3718 932.784,13.7051 898.5,18C 827.361,26.5506 771.028,59.7173 729.5,117.5C 729.167,117.5 728.833,117.5 728.5,117.5C 772.032,55.9297 831.699,21.7631 907.5,15C 1001.25,9.39294 1092.25,22.7263 1180.5,55C 1294.07,96.0083 1392.24,160.175 1475,247.5C 1475.46,248.094 1475.63,248.761 1475.5,249.5 Z"/></g>
<g><path style="opacity:1" fill="#757575" d="M 197.5,117.5 C 374.5,117.5 551.5,117.5 728.5,117.5C 728.833,117.5 729.167,117.5 729.5,117.5C 907.5,117.5 1085.5,117.5 1263.5,117.5C 1263.5,147.5 1263.5,177.5 1263.5,207.5C 908.167,207.5 552.833,207.5 197.5,207.5C 197.5,177.5 197.5,147.5 197.5,117.5 Z"/></g>
<g><path style="opacity:1" fill="#fdfdfd" d="M 1036.5,131.5 C 1051.84,131.333 1067.17,131.5 1082.5,132C 1084.96,133.458 1087.13,135.291 1089,137.5C 1090.64,153.408 1090.97,169.408 1090,185.5C 1089.12,188.102 1087.62,190.269 1085.5,192C 1068.59,193.638 1051.59,193.971 1034.5,193C 1031.81,191.125 1029.98,188.625 1029,185.5C 1028.33,169.833 1028.33,154.167 1029,138.5C 1031.01,135.588 1033.51,133.255 1036.5,131.5 Z"/></g>
<g><path style="opacity:1" fill="#fbfbfb" d="M 1112.5,131.5 C 1127.17,131.333 1141.84,131.5 1156.5,132C 1159.55,132.606 1162.05,134.106 1164,136.5C 1165.64,153.409 1165.97,170.409 1165,187.5C 1163.83,190 1162,191.833 1159.5,193C 1143.17,193.667 1126.83,193.667 1110.5,193C 1108,191.833 1106.17,190 1105,187.5C 1104.33,171.167 1104.33,154.833 1105,138.5C 1106.74,135.254 1109.24,132.921 1112.5,131.5 Z"/></g>
<g><path style="opacity:1" fill="#fcfcfc" d="M 1187.5,131.5 C 1202.84,131.333 1218.17,131.5 1233.5,132C 1236.74,133.36 1239.24,135.527 1241,138.5C 1241.67,154.5 1241.67,170.5 1241,186.5C 1239.88,188.624 1238.38,190.457 1236.5,192C 1219.93,193.637 1203.26,193.97 1186.5,193C 1183.67,191.5 1181.5,189.333 1180,186.5C 1179.33,170.833 1179.33,155.167 1180,139.5C 1181.69,135.979 1184.19,133.312 1187.5,131.5 Z"/></g>
<g><path style="opacity:1" fill="#344045" d="M 1196.5,147.5 C 1201.42,151.08 1206.09,155.08 1210.5,159.5C 1214.65,155.849 1218.65,152.016 1222.5,148C 1223.45,147.517 1224.45,147.351 1225.5,147.5C 1225.66,148.873 1225.49,150.207 1225,151.5C 1221.17,155.333 1217.33,159.167 1213.5,163C 1217.33,166.833 1221.17,170.667 1225,174.5C 1225.65,178.201 1224.48,179.035 1221.5,177C 1217.98,173.318 1214.32,169.818 1210.5,166.5C 1206.68,169.818 1203.02,173.318 1199.5,177C 1198.21,177.49 1196.87,177.657 1195.5,177.5C 1195.35,176.448 1195.52,175.448 1196,174.5C 1200.02,170.652 1203.85,166.652 1207.5,162.5C 1203.85,158.348 1200.02,154.348 1196,150.5C 1195.53,149.423 1195.7,148.423 1196.5,147.5 Z"/></g>
<g><path style="opacity:1" fill="#2d383e" d="M 1115.5,155.5 C 1128.5,155.5 1141.5,155.5 1154.5,155.5C 1154.82,164.418 1154.48,173.251 1153.5,182C 1140.84,182.5 1128.17,182.667 1115.5,182.5C 1115.5,173.5 1115.5,164.5 1115.5,155.5 Z"/></g>
<g><path style="opacity:1" fill="#fefffe" d="M 1119.5,159.5 C 1129.83,159.5 1140.17,159.5 1150.5,159.5C 1150.5,165.833 1150.5,172.167 1150.5,178.5C 1140.17,178.5 1129.83,178.5 1119.5,178.5C 1119.5,172.167 1119.5,165.833 1119.5,159.5 Z"/></g>
<g><path style="opacity:1" fill="#28343a" d="M 1040.5,178.5 C 1053.17,178.5 1065.83,178.5 1078.5,178.5C 1078.5,179.833 1078.5,181.167 1078.5,182.5C 1065.83,182.667 1053.16,182.5 1040.5,182C 1039.32,180.855 1039.32,179.688 1040.5,178.5 Z"/></g>
<g><path style="opacity:1" fill="#bebebe" d="M 197.5,117.5 C 197.5,147.5 197.5,177.5 197.5,207.5C 552.833,207.5 908.167,207.5 1263.5,207.5C 1263.17,265.669 1263.5,323.669 1264.5,381.5C 1264.23,383.099 1264.57,384.432 1265.5,385.5C 1263.17,433.354 1262.84,481.354 1264.5,529.5C 1264.5,531.167 1264.5,532.833 1264.5,534.5C 1263.5,572.33 1263.17,610.33 1263.5,648.5C 1252.66,647.5 1244.83,651.833 1240,661.5C 1238.38,678.1 1238.04,694.767 1239,711.5C 1241.35,718.519 1245.85,723.686 1252.5,727C 1261.34,727.17 1270.01,727.67 1278.5,728.5C 1273.5,728.5 1268.5,728.5 1263.5,728.5C 1263.5,755.833 1263.5,783.167 1263.5,810.5C 1161.83,810.5 1060.17,810.5 958.5,810.5C 944.445,801.98 929.779,794.48 914.5,788C 866.515,770.533 822.348,777.366 782,808.5C 782.085,793.83 787.919,781.996 799.5,773C 911.167,772.333 1022.83,772.333 1134.5,773C 1139.08,781.352 1144.24,789.185 1150,796.5C 1150.77,796.355 1151.44,796.022 1152,795.5C 1155.37,787.924 1158.87,780.424 1162.5,773C 1177.5,772.667 1192.5,772.333 1207.5,772C 1215.5,769.997 1221,765.164 1224,757.5C 1225.16,674.556 1225.66,591.556 1225.5,508.5C 1225.66,425.444 1225.16,342.444 1224,259.5C 1220.22,253.057 1214.72,248.89 1207.5,247C 888.833,246.333 570.167,246.333 251.5,247C 243.572,249.927 238.406,255.427 236,263.5C 235.333,427.167 235.333,590.833 236,754.5C 238.5,763.667 244.333,769.5 253.5,772C 433.5,772.333 613.5,772.667 793.5,773C 782.542,783.084 777.209,795.584 777.5,810.5C 770.928,808.786 764.262,807.452 757.5,806.5C 751.916,806.949 746.583,808.282 741.5,810.5C 560.167,810.5 378.833,810.5 197.5,810.5C 197.5,718.167 197.5,625.833 197.5,533.5C 197.5,532.833 197.167,532.5 196.5,532.5C 196.167,393.999 196.5,255.666 197.5,117.5 Z"/></g>
<g><path style="opacity:0.999" fill="#263238" d="M 958.5,810.5 C 966.302,816.401 974.969,820.734 984.5,823.5C 978.219,860.459 968.885,896.626 956.5,932C 956.862,933.225 957.362,934.391 958,935.5C 959.026,947.345 957.026,958.678 952,969.5C 948.633,976.685 942.967,980.352 935,980.5C 933,983.833 931,987.167 929,990.5C 923.693,1006.78 916.027,1021.78 906,1035.5C 906.358,1055.18 907.191,1074.84 908.5,1094.5C 924.047,1095.13 939.38,1097.29 954.5,1101C 993.591,1108.72 1028.26,1125.22 1058.5,1150.5C 1080.27,1167.96 1089.44,1190.63 1086,1218.5C 1082.96,1255.81 1077.12,1292.65 1068.5,1329C 1072.48,1329.81 1075.48,1331.98 1077.5,1335.5C 1082.14,1335.54 1085.97,1337.2 1089,1340.5C 1092.59,1351.81 1095.92,1363.15 1099,1374.5C 1103.69,1327 1109.69,1279.66 1117,1232.5C 1120.51,1205.34 1134.01,1184.84 1157.5,1171C 1164.29,1167.27 1171.29,1164.1 1178.5,1161.5C 1174.82,1148.78 1172.66,1135.78 1172,1122.5C 1169.2,1085.89 1167.87,1049.22 1168,1012.5C 1167.26,1002.61 1165.42,992.946 1162.5,983.5C 1162.5,982.833 1162.5,982.167 1162.5,981.5C 1156.95,958.157 1155.12,934.49 1157,910.5C 1159.59,883.474 1171.42,861.641 1192.5,845C 1215.55,831.102 1240.55,825.435 1267.5,828C 1296.13,828.997 1321.13,838.83 1342.5,857.5C 1342.83,857.5 1343.17,857.5 1343.5,857.5C 1365.93,882.013 1380.76,910.68 1388,943.5C 1392.54,964.541 1397.21,985.541 1402,1006.5C 1413.73,1030.29 1425.73,1053.96 1438,1077.5C 1446.51,1095.04 1451.34,1113.54 1452.5,1133C 1452.46,1141.25 1451.13,1149.25 1448.5,1157C 1470.13,1166.77 1483.3,1183.27 1488,1206.5C 1488.8,1219.53 1488.47,1232.53 1487,1245.5C 1474.45,1318.81 1454.79,1390.14 1428,1459.5C 1426.61,1468.86 1425.11,1478.2 1423.5,1487.5C 1469.17,1487.33 1514.83,1487.5 1560.5,1488C 1561.38,1489.36 1561.71,1490.86 1561.5,1492.5C 1060.17,1492.5 558.833,1492.5 57.5,1492.5C 56.7904,1489.14 58.1238,1487.31 61.5,1487C 48.6866,1479.84 40.8533,1469.01 38,1454.5C 37.5,1423.5 37.3334,1392.5 37.5,1361.5C 35.8333,1361.5 34.1667,1361.5 32.5,1361.5C 32.5,1351.5 32.5,1341.5 32.5,1331.5C 48.8333,1331.5 65.1667,1331.5 81.5,1331.5C 97.5,1332.83 113.5,1332.83 129.5,1331.5C 146.167,1331.5 162.833,1331.5 179.5,1331.5C 179.5,1341.5 179.5,1351.5 179.5,1361.5C 177.833,1361.5 176.167,1361.5 174.5,1361.5C 174.667,1391.5 174.5,1421.5 174,1451.5C 171.637,1467.41 163.471,1479.24 149.5,1487C 204.17,1487.83 258.836,1487.67 313.5,1486.5C 312.893,1484.22 312.559,1481.89 312.5,1479.5C 314.779,1453.15 317.112,1426.82 319.5,1400.5C 282.498,1400.67 245.498,1400.5 208.5,1400C 198.022,1396.23 192.522,1388.73 192,1377.5C 185.65,1326.51 179.483,1275.51 173.5,1224.5C 173.802,1221.94 173.468,1219.61 172.5,1217.5C 171.638,1206.96 170.305,1196.63 168.5,1186.5C 165.076,1152.11 161.076,1117.77 156.5,1083.5C 156.777,1075.79 160.444,1070.29 167.5,1067C 313.833,1066.33 460.167,1066.33 606.5,1067C 615.333,1069.17 620.833,1074.67 623,1083.5C 633.502,1170.85 644.169,1258.19 655,1345.5C 655.674,1302.74 658.008,1260.07 662,1217.5C 663.35,1203.66 665.684,1189.99 669,1176.5C 678.26,1150.91 695.426,1132.74 720.5,1122C 750.011,1109.83 780.511,1101.33 812,1096.5C 812.343,1088.49 812.843,1080.49 813.5,1072.5C 813.167,1070.83 812.833,1069.17 812.5,1067.5C 797.495,1061.33 786.995,1050.66 781,1035.5C 773.095,1013.81 767.928,991.477 765.5,968.5C 761.622,968.281 757.956,967.281 754.5,965.5C 752.449,956.559 751.782,947.559 752.5,938.5C 753.646,937.855 754.646,937.022 755.5,936C 744.125,915.542 735.292,894.042 729,871.5C 726.352,858.536 726.019,845.536 728,832.5C 729.739,823.334 734.239,816.001 741.5,810.5C 746.583,808.282 751.916,806.949 757.5,806.5C 764.262,807.452 770.928,808.786 777.5,810.5C 777.209,795.584 782.542,783.084 793.5,773C 613.5,772.667 433.5,772.333 253.5,772C 244.333,769.5 238.5,763.667 236,754.5C 235.333,590.833 235.333,427.167 236,263.5C 238.406,255.427 243.572,249.927 251.5,247C 570.167,246.333 888.833,246.333 1207.5,247C 1214.72,248.89 1220.22,253.057 1224,259.5C 1225.16,342.444 1225.66,425.444 1225.5,508.5C 1225.66,591.556 1225.16,674.556 1224,757.5C 1221,765.164 1215.5,769.997 1207.5,772C 1192.5,772.333 1177.5,772.667 1162.5,773C 1158.87,780.424 1155.37,787.924 1152,795.5C 1151.44,796.022 1150.77,796.355 1150,796.5C 1144.24,789.185 1139.08,781.352 1134.5,773C 1022.83,772.333 911.167,772.333 799.5,773C 787.919,781.996 782.085,793.83 782,808.5C 822.348,777.366 866.515,770.533 914.5,788C 929.779,794.48 944.445,801.98 958.5,810.5 Z M 1162.5,983.5 C 1165.42,992.946 1167.26,1002.61 1168,1012.5C 1167.87,1049.22 1169.2,1085.89 1172,1122.5C 1172.66,1135.78 1174.82,1148.78 1178.5,1161.5C 1171.29,1164.1 1164.29,1167.27 1157.5,1171C 1134.01,1184.84 1120.51,1205.34 1117,1232.5C 1109.69,1279.66 1103.69,1327 1099,1374.5C 1095.92,1363.15 1092.59,1351.81 1089,1340.5C 1085.97,1337.2 1082.14,1335.54 1077.5,1335.5C 1075.48,1331.98 1072.48,1329.81 1068.5,1329C 1077.12,1292.65 1082.96,1255.81 1086,1218.5C 1089.44,1190.63 1080.27,1167.96 1058.5,1150.5C 1061.64,1144.22 1064.8,1137.89 1068,1131.5C 1076.49,1108.86 1086.32,1086.86 1097.5,1065.5C 1103.89,1056.44 1109.89,1047.11 1115.5,1037.5C 1117.9,1035.7 1119.57,1033.37 1120.5,1030.5C 1133.33,1013.89 1147.33,998.225 1162.5,983.5 Z M 1080.5,1342.5 C 1082.15,1341.2 1083.65,1341.53 1085,1343.5C 1088.05,1353.73 1090.71,1364.06 1093,1374.5C 1093.58,1376 1094.42,1377.33 1095.5,1378.5C 1096.43,1379.64 1097.26,1379.64 1098,1378.5C 1098.76,1382.34 1098.26,1386 1096.5,1389.5C 1091.53,1373.59 1086.2,1357.93 1080.5,1342.5 Z M 1063.5,1350.5 C 1064.59,1350.62 1065.25,1351.29 1065.5,1352.5C 1069.14,1364.9 1072.64,1377.24 1076,1389.5C 1068.4,1385.56 1060.9,1385.9 1053.5,1390.5C 1053.17,1390.33 1052.83,1390.17 1052.5,1390C 1057.18,1377.12 1060.84,1363.96 1063.5,1350.5 Z M 459.5,1425.5 C 464.297,1425.12 468.964,1425.62 473.5,1427C 464.222,1433.47 454.222,1438.64 443.5,1442.5C 443.167,1441.67 442.833,1440.83 442.5,1440C 443.093,1436.85 443.593,1433.68 444,1430.5C 449.233,1428.74 454.4,1427.07 459.5,1425.5 Z M 561.5,1443.5 C 565.182,1443.33 568.848,1443.5 572.5,1444C 568.058,1449.05 565.392,1454.88 564.5,1461.5C 530.509,1460.75 496.509,1460.25 462.5,1460C 473.555,1456.09 484.722,1452.59 496,1449.5C 505.016,1450.77 514.016,1450.77 523,1449.5C 524.631,1452.66 526.798,1455.5 529.5,1458C 537.277,1460.8 544.277,1459.47 550.5,1454C 554.668,1451 558.335,1447.5 561.5,1443.5 Z M 652.5,1451.5 C 663.703,1453.86 675.036,1455.2 686.5,1455.5C 685.873,1460.14 685.54,1464.81 685.5,1469.5C 659.79,1468.22 634.123,1466.39 608.5,1464C 612.419,1462.14 616.419,1460.47 620.5,1459C 631.365,1456.78 642.032,1454.28 652.5,1451.5 Z M 1037.5,1460.5 C 1043.87,1461 1050.2,1461.84 1056.5,1463C 1063.89,1468.83 1072.06,1470 1081,1466.5C 1103.25,1471.91 1125.41,1473.25 1147.5,1470.5C 1146.17,1475.83 1144.83,1481.17 1143.5,1486.5C 1106.83,1487.83 1070.17,1487.83 1033.5,1486.5C 1034.93,1477.85 1036.26,1469.19 1037.5,1460.5 Z"/></g>
<g><path style="opacity:0.937" fill="#8863c3" d="M 1475.5,249.5 C 1479.57,252.563 1482.9,256.229 1485.5,260.5C 1481.43,257.437 1478.1,253.771 1475.5,249.5 Z"/></g>
<g><path style="opacity:0.937" fill="#8965c4" d="M 1485.5,260.5 C 1487.91,261.911 1489.58,263.911 1490.5,266.5C 1488.09,265.089 1486.42,263.089 1485.5,260.5 Z"/></g>
<g><path style="opacity:0.941" fill="#8965c4" d="M 1490.5,266.5 C 1495.92,271.579 1500.58,277.246 1504.5,283.5C 1499.08,278.421 1494.42,272.754 1490.5,266.5 Z"/></g>
<g><path style="opacity:1" fill="#8d6ac6" d="M 1504.5,283.5 C 1506.26,284.262 1507.26,285.596 1507.5,287.5C 1505.74,286.738 1504.74,285.404 1504.5,283.5 Z"/></g>
<g><path style="opacity:0.941" fill="#8b68c5" d="M 1507.5,287.5 C 1509.26,288.262 1510.26,289.596 1510.5,291.5C 1508.74,290.738 1507.74,289.404 1507.5,287.5 Z"/></g>
<g><path style="opacity:0.941" fill="#8b68c5" d="M 1510.5,291.5 C 1512.26,292.262 1513.26,293.596 1513.5,295.5C 1511.74,294.738 1510.74,293.404 1510.5,291.5 Z"/></g>
<g><path style="opacity:0.941" fill="#8b68c5" d="M 1513.5,295.5 C 1515.26,296.262 1516.26,297.596 1516.5,299.5C 1514.74,298.738 1513.74,297.404 1513.5,295.5 Z"/></g>
<g><path style="opacity:0.941" fill="#8b68c5" d="M 1516.5,299.5 C 1518.26,300.262 1519.26,301.596 1519.5,303.5C 1517.74,302.738 1516.74,301.404 1516.5,299.5 Z"/></g>
<g><path style="opacity:0.749" fill="#8b67c5" d="M 1519.5,303.5 C 1521.9,305.296 1523.57,307.63 1524.5,310.5C 1522.1,308.704 1520.43,306.37 1519.5,303.5 Z"/></g>
<g><path style="opacity:0.875" fill="#8762c3" d="M 1524.5,310.5 C 1525.91,310.973 1526.57,311.973 1526.5,313.5C 1525.09,313.027 1524.43,312.027 1524.5,310.5 Z"/></g>
<g><path style="opacity:0.875" fill="#8863c3" d="M 1526.5,313.5 C 1527.91,313.973 1528.57,314.973 1528.5,316.5C 1527.09,316.027 1526.43,315.027 1526.5,313.5 Z"/></g>
<g><path style="opacity:0.941" fill="#8e6bc6" d="M 1528.5,316.5 C 1529.91,316.973 1530.57,317.973 1530.5,319.5C 1529.09,319.027 1528.43,318.027 1528.5,316.5 Z"/></g>
<g><path style="opacity:0.875" fill="#8965c4" d="M 1530.5,319.5 C 1531.91,319.973 1532.57,320.973 1532.5,322.5C 1531.09,322.027 1530.43,321.027 1530.5,319.5 Z"/></g>
<g><path style="opacity:0.749" fill="#8863c3" d="M 1532.5,322.5 C 1533.91,322.973 1534.57,323.973 1534.5,325.5C 1533.09,325.027 1532.43,324.027 1532.5,322.5 Z"/></g>
<g><path style="opacity:0.749" fill="#8a67c5" d="M 1534.5,325.5 C 1536.95,327.629 1538.62,330.296 1539.5,333.5C 1537.05,331.371 1535.38,328.704 1534.5,325.5 Z"/></g>
<g><path style="opacity:0.686" fill="#8b68c5" d="M 1539.5,333.5 C 1541.25,334.659 1542.25,336.326 1542.5,338.5C 1540.75,337.341 1539.75,335.674 1539.5,333.5 Z"/></g>
<g><path style="opacity:0.749" fill="#8c69c6" d="M 1542.5,338.5 C 1544.25,339.659 1545.25,341.326 1545.5,343.5C 1543.75,342.341 1542.75,340.674 1542.5,338.5 Z"/></g>
<g><path style="opacity:1" fill="#303a42" d="M 1264.5,534.5 C 1264.5,532.833 1264.5,531.167 1264.5,529.5C 1273.35,535.425 1283.02,539.425 1293.5,541.5C 1295.3,551.145 1296.96,560.812 1298.5,570.5C 1306.84,570.666 1315.17,570.5 1323.5,570C 1325.32,561.202 1327.15,552.369 1329,543.5C 1329.83,542.667 1330.67,541.833 1331.5,541C 1348.52,536.465 1363.19,527.965 1375.5,515.5C 1384.3,518.599 1393.13,521.599 1402,524.5C 1406.95,518.202 1411.12,511.368 1414.5,504C 1408.03,497.203 1401.2,490.703 1394,484.5C 1393.83,483.833 1393.67,483.167 1393.5,482.5C 1398.77,465.623 1398.77,448.79 1393.5,432C 1400.8,425.341 1408.13,418.674 1415.5,412C 1411.04,404.916 1406.71,397.75 1402.5,390.5C 1393.7,393.599 1384.87,396.599 1376,399.5C 1369.46,393.963 1362.63,388.797 1355.5,384C 1347.47,378.996 1338.8,375.829 1329.5,374.5C 1327.96,364.812 1326.3,355.145 1324.5,345.5C 1320.17,345.5 1315.83,345.5 1311.5,345.5C 1311.5,344.167 1311.5,342.833 1311.5,341.5C 1316.83,341.5 1322.17,341.5 1327.5,341.5C 1329.31,351.398 1331.31,361.232 1333.5,371C 1350.27,375.045 1364.6,383.212 1376.5,395.5C 1384.39,392.371 1392.39,389.538 1400.5,387C 1402.26,386.202 1403.93,386.369 1405.5,387.5C 1410.37,396.082 1415.37,404.582 1420.5,413C 1412.16,419.129 1404.83,426.129 1398.5,434C 1402.69,449.944 1402.36,465.778 1397.5,481.5C 1405.02,488.525 1412.36,495.692 1419.5,503C 1414.72,512.101 1409.55,520.934 1404,529.5C 1394.86,526.399 1385.7,523.399 1376.5,520.5C 1370.57,525.806 1364.23,530.64 1357.5,535C 1349.58,539.298 1341.24,542.464 1332.5,544.5C 1330.83,554.5 1329.17,564.5 1327.5,574.5C 1316.83,574.5 1306.17,574.5 1295.5,574.5C 1294.12,564.76 1292.29,555.093 1290,545.5C 1281.06,542.776 1272.56,539.109 1264.5,534.5 Z"/></g>
<g><path style="opacity:1" fill="#2e3940" d="M 1265.5,385.5 C 1264.57,384.432 1264.23,383.099 1264.5,381.5C 1272.34,376.329 1280.84,372.662 1290,370.5C 1291.67,362.167 1293.33,353.833 1295,345.5C 1296.07,343.717 1297.57,343.217 1299.5,344C 1296.93,354.029 1294.93,364.196 1293.5,374.5C 1283.28,375.944 1273.95,379.61 1265.5,385.5 Z"/></g>
<g><path style="opacity:0.125" fill="#8c6bc6" d="M 1545.5,343.5 C 1547.59,345.336 1548.92,347.669 1549.5,350.5C 1547.41,348.664 1546.08,346.331 1545.5,343.5 Z"/></g>
<g><path style="opacity:0.125" fill="#8c6bc5" d="M 1549.5,350.5 C 1551.59,352.336 1552.92,354.669 1553.5,357.5C 1551.41,355.664 1550.08,353.331 1549.5,350.5 Z"/></g>
<g><path style="opacity:1" fill="#bcbcbc" d="M 276.5,365.5 C 506.834,365.333 737.167,365.5 967.5,366C 973.267,368.411 974.933,372.577 972.5,378.5C 971.5,379.333 970.5,380.167 969.5,381C 737.833,381.667 506.167,381.667 274.5,381C 268.623,374.902 269.29,369.735 276.5,365.5 Z"/></g>
<g><path style="opacity:1" fill="#bbbcbc" d="M 994.5,365.5 C 1017.5,365.333 1040.5,365.5 1063.5,366C 1072.04,369.956 1072.71,374.956 1065.5,381C 1040.83,381.667 1016.17,381.667 991.5,381C 985.474,374.307 986.474,369.14 994.5,365.5 Z"/></g>
<g><path style="opacity:1" fill="#bbbbbb" d="M 1089.5,365.5 C 1113.84,365.333 1138.17,365.5 1162.5,366C 1170.58,369.45 1171.58,374.45 1165.5,381C 1139.5,381.667 1113.5,381.667 1087.5,381C 1081.71,374.94 1082.37,369.774 1089.5,365.5 Z"/></g>
<g><path style="opacity:0.063" fill="#8c6bc5" d="M 1557.5,365.5 C 1559.54,366.911 1560.54,368.911 1560.5,371.5C 1558.99,369.819 1557.99,367.819 1557.5,365.5 Z"/></g>
<g><path style="opacity:0.125" fill="#8d6cc6" d="M 1566.5,383.5 C 1568.29,385.426 1569.29,387.759 1569.5,390.5C 1567.71,388.574 1566.71,386.241 1566.5,383.5 Z"/></g>
<g><path style="opacity:0.439" fill="#8e6cc6" d="M 1570.5,392.5 C 1571.93,393.78 1572.6,395.447 1572.5,397.5C 1571.07,396.22 1570.4,394.553 1570.5,392.5 Z"/></g>
<g><path style="opacity:0.655" fill="#9676ca" d="M 1573.5,399.5 C 1575.27,401.792 1576.27,404.458 1576.5,407.5C 1574.73,405.208 1573.73,402.542 1573.5,399.5 Z"/></g>
<g><path style="opacity:1" fill="#a386d1" d="M 1576.5,407.5 C 1578.4,410.53 1579.74,413.863 1580.5,417.5C 1578.08,414.66 1576.75,411.327 1576.5,407.5 Z"/></g>
<g><path style="opacity:1" fill="#2e3940" d="M 1317.5,412.5 C 1322.17,412.751 1326.5,414.084 1330.5,416.5C 1330.08,417.672 1329.41,418.672 1328.5,419.5C 1324.99,417.883 1321.32,416.883 1317.5,416.5C 1317.5,415.167 1317.5,413.833 1317.5,412.5 Z"/></g>
<g><path style="opacity:1" fill="#303a42" d="M 1297.5,413.5 C 1298.5,413.5 1299.5,413.5 1300.5,413.5C 1300.5,414.833 1300.5,416.167 1300.5,417.5C 1277.68,424.838 1267.52,440.504 1270,464.5C 1274.36,487.032 1287.86,499.699 1310.5,502.5C 1310.5,503.833 1310.5,505.167 1310.5,506.5C 1285.18,503.681 1270.35,489.681 1266,464.5C 1263.84,439.465 1274.34,422.465 1297.5,413.5 Z"/></g>
<g><path style="opacity:1" fill="#a082cf" d="M 1580.5,417.5 C 1583.28,423.499 1585.28,429.833 1586.5,436.5C 1583.72,430.501 1581.72,424.167 1580.5,417.5 Z"/></g>
<g><path style="opacity:1" fill="#303b42" d="M 1341.5,424.5 C 1347.87,428.529 1352.37,434.196 1355,441.5C 1362.31,464.432 1356.81,483.599 1338.5,499C 1334.37,501.403 1330.03,503.237 1325.5,504.5C 1325.24,503.022 1325.57,501.689 1326.5,500.5C 1344.65,492.733 1353.98,478.9 1354.5,459C 1354,446.315 1349.33,435.482 1340.5,426.5C 1340.86,425.817 1341.2,425.15 1341.5,424.5 Z"/></g>
<g><path style="opacity:1" fill="#2f3a41" d="M 1529.5,429.5 C 1535.78,432.604 1541.94,435.937 1548,439.5C 1546.91,444.459 1545.58,449.459 1544,454.5C 1543.33,456.5 1543.33,458.5 1544,460.5C 1551.2,467.557 1556.36,475.891 1559.5,485.5C 1566.01,487.479 1572.67,488.812 1579.5,489.5C 1579.5,496.833 1579.5,504.167 1579.5,511.5C 1572.86,512.688 1566.36,514.355 1560,516.5C 1558.57,522.028 1556.57,527.362 1554,532.5C 1551.15,536.677 1548.32,540.844 1545.5,545C 1548.18,551.016 1550.01,557.183 1551,563.5C 1545.67,566.833 1540.33,570.167 1535,573.5C 1533.93,572.809 1532.77,572.309 1531.5,572C 1527.27,567.767 1523.1,563.6 1519,559.5C 1509.07,562.855 1499.07,563.188 1489,560.5C 1486.37,561.963 1484.2,563.963 1482.5,566.5C 1481.35,565.855 1480.35,565.022 1479.5,564C 1481.5,561.667 1483.5,559.333 1485.5,557C 1497.07,559.316 1508.57,558.816 1520,555.5C 1525,559.664 1529.83,563.997 1534.5,568.5C 1537.96,566.937 1541.29,565.104 1544.5,563C 1545.8,562.196 1546.47,561.029 1546.5,559.5C 1544.7,554.095 1542.7,548.761 1540.5,543.5C 1549.02,534.794 1554.69,524.461 1557.5,512.5C 1563.17,511.167 1568.83,509.833 1574.5,508.5C 1575.49,503.208 1575.83,497.875 1575.5,492.5C 1569.15,491.995 1562.81,491.328 1556.5,490.5C 1555.42,484.439 1553.26,478.773 1550,473.5C 1546.53,468.368 1542.7,463.534 1538.5,459C 1540.44,453.191 1541.94,447.358 1543,441.5C 1539.58,439.208 1536.08,437.041 1532.5,435C 1531.36,434.251 1530.36,434.417 1529.5,435.5C 1525.85,440.486 1521.85,445.153 1517.5,449.5C 1512.12,448.028 1506.62,447.361 1501,447.5C 1494.74,447.59 1488.57,448.09 1482.5,449C 1478.27,444.767 1474.1,440.6 1470,436.5C 1465.27,438.782 1460.77,441.449 1456.5,444.5C 1454.51,443.537 1454.18,442.204 1455.5,440.5C 1460.75,437.291 1465.92,433.958 1471,430.5C 1475.35,436.179 1480.35,441.179 1486,445.5C 1487.22,445.138 1488.39,444.638 1489.5,444C 1498.86,443.517 1508.19,443.517 1517.5,444C 1521.71,439.293 1525.71,434.46 1529.5,429.5 Z"/></g>
<g><path style="opacity:1" fill="#a386d0" d="M 1587.5,439.5 C 1588.92,441.515 1589.59,443.848 1589.5,446.5C 1588.08,444.485 1587.41,442.152 1587.5,439.5 Z"/></g>
<g><path style="opacity:1" fill="#a689d2" d="M 1590.5,450.5 C 1592.04,452.838 1592.71,455.505 1592.5,458.5C 1591.23,456.095 1590.57,453.428 1590.5,450.5 Z"/></g>
<g><path style="opacity:1" fill="#303b43" d="M 1457.5,454.5 C 1458.98,454.238 1460.31,454.571 1461.5,455.5C 1462.6,457.642 1463.6,459.808 1464.5,462C 1455.44,470.282 1449.61,480.449 1447,492.5C 1440.97,494.341 1434.8,495.674 1428.5,496.5C 1428.5,501.833 1428.5,507.167 1428.5,512.5C 1435.21,513.284 1441.87,514.284 1448.5,515.5C 1449.44,520.81 1451.27,525.81 1454,530.5C 1458.06,535.719 1461.89,541.052 1465.5,546.5C 1463.52,552.431 1461.85,558.431 1460.5,564.5C 1465.71,566.441 1470.71,568.941 1475.5,572C 1475,573.158 1474.17,573.991 1473,574.5C 1467.72,572.052 1462.55,569.385 1457.5,566.5C 1456.36,564.579 1456.19,562.579 1457,560.5C 1458.5,556 1460,551.5 1461.5,547C 1454.09,539.028 1448.59,529.861 1445,519.5C 1438.24,517.937 1431.41,516.604 1424.5,515.5C 1424.5,508.167 1424.5,500.833 1424.5,493.5C 1431.16,492.168 1437.83,490.834 1444.5,489.5C 1446.59,478.313 1451.59,468.646 1459.5,460.5C 1458.25,458.677 1457.59,456.677 1457.5,454.5 Z"/></g>
<g><path style="opacity:1" fill="#303b42" d="M 1512.5,473.5 C 1518.22,474.737 1522.38,477.737 1525,482.5C 1524.33,483.167 1523.67,483.833 1523,484.5C 1520.07,481.286 1516.57,478.953 1512.5,477.5C 1511.37,476.192 1511.37,474.858 1512.5,473.5 Z"/></g>
<g><path style="opacity:1" fill="#bebebe" d="M 275.5,476.5 C 506.167,476.333 736.834,476.5 967.5,477C 973.158,478.829 974.992,482.663 973,488.5C 971.681,490.487 969.848,491.654 967.5,492C 736.833,492.667 506.167,492.667 275.5,492C 268.875,486.754 268.875,481.587 275.5,476.5 Z"/></g>
<g><path style="opacity:1" fill="#2f3a41" d="M 1485.5,476.5 C 1487.27,477.314 1487.77,478.648 1487,480.5C 1477.45,487.799 1473.78,497.465 1476,509.5C 1484.43,531.136 1498.93,536.636 1519.5,526C 1527.94,517.847 1531.27,508.014 1529.5,496.5C 1530.83,495.167 1532.17,495.167 1533.5,496.5C 1535.54,515.592 1527.54,528.426 1509.5,535C 1490.59,537.087 1478.26,529.087 1472.5,511C 1469.45,496.618 1473.78,485.118 1485.5,476.5 Z"/></g>
<g><path style="opacity:1" fill="#bdbdbd" d="M 276.5,531.5 C 288.505,531.333 300.505,531.5 312.5,532C 320.536,535.584 321.536,540.584 315.5,547C 301.833,547.667 288.167,547.667 274.5,547C 268.706,540.94 269.372,535.774 276.5,531.5 Z"/></g>
<g><path style="opacity:1" fill="#969797" d="M 346.5,531.5 C 585.834,531.333 825.167,531.5 1064.5,532C 1072.1,536.535 1072.43,541.535 1065.5,547C 824.833,547.667 584.167,547.667 343.5,547C 337.474,540.307 338.474,535.14 346.5,531.5 Z"/></g>
<g><path style="opacity:1" fill="#969696" d="M 1089.5,531.5 C 1113.84,531.333 1138.17,531.5 1162.5,532C 1170.58,535.45 1171.58,540.45 1165.5,547C 1139.5,547.667 1113.5,547.667 1087.5,547C 1081.71,540.94 1082.37,535.774 1089.5,531.5 Z"/></g>
<g><path style="opacity:1" fill="#d9ceec" d="M 197.5,533.5 C 197.5,625.833 197.5,718.167 197.5,810.5C 378.833,810.5 560.167,810.5 741.5,810.5C 734.239,816.001 729.739,823.334 728,832.5C 726.019,845.536 726.352,858.536 729,871.5C 735.292,894.042 744.125,915.542 755.5,936C 754.646,937.022 753.646,937.855 752.5,938.5C 751.782,947.559 752.449,956.559 754.5,965.5C 757.956,967.281 761.622,968.281 765.5,968.5C 767.928,991.477 773.095,1013.81 781,1035.5C 786.995,1050.66 797.495,1061.33 812.5,1067.5C 812.833,1069.17 813.167,1070.83 813.5,1072.5C 812.843,1080.49 812.343,1088.49 812,1096.5C 780.511,1101.33 750.011,1109.83 720.5,1122C 695.426,1132.74 678.26,1150.91 669,1176.5C 665.684,1189.99 663.35,1203.66 662,1217.5C 658.008,1260.07 655.674,1302.74 655,1345.5C 644.169,1258.19 633.502,1170.85 623,1083.5C 620.833,1074.67 615.333,1069.17 606.5,1067C 460.167,1066.33 313.833,1066.33 167.5,1067C 160.444,1070.29 156.777,1075.79 156.5,1083.5C 161.076,1117.77 165.076,1152.11 168.5,1186.5C 163.148,1190.86 157.814,1195.19 152.5,1199.5C 152.5,1198.83 152.5,1198.17 152.5,1197.5C 150.938,1193.61 148.605,1190.27 145.5,1187.5C 142.34,1183.85 139.673,1179.85 137.5,1175.5C 135.913,1171.32 133.579,1167.65 130.5,1164.5C 124.167,1156.51 118.833,1147.84 114.5,1138.5C 113,1134.83 111,1131.49 108.5,1128.5C 100.822,1117.15 94.1557,1105.15 88.5,1092.5C 85.2613,1084.35 81.2613,1076.69 76.5,1069.5C 40.2082,1000.79 17.0415,927.786 7,850.5C 3.54713,820.794 3.88046,791.127 8,761.5C 9.56471,749.83 12.0647,738.497 15.5,727.5C 16.9238,725.485 17.5905,723.152 17.5,720.5C 18.9238,718.485 19.5905,716.152 19.5,713.5C 20.1174,713.389 20.6174,713.056 21,712.5C 22.2823,708.16 23.4489,703.827 24.5,699.5C 24.4021,697.447 25.0687,695.78 26.5,694.5C 28.2927,692.574 29.2927,690.241 29.5,687.5C 29.3284,686.508 29.6618,685.842 30.5,685.5C 34.0078,679.818 37.0078,673.818 39.5,667.5C 65.5464,623.953 100.213,588.786 143.5,562C 161.084,551.708 179.084,542.208 197.5,533.5 Z"/></g>
<g><path style="opacity:0.749" fill="#8863c3" d="M 196.5,532.5 C 197.167,532.5 197.5,532.833 197.5,533.5C 179.084,542.208 161.084,551.708 143.5,562C 100.213,588.786 65.5464,623.953 39.5,667.5C 55.6908,637.37 77.0242,611.204 103.5,589C 131.791,565.911 162.791,547.078 196.5,532.5 Z"/></g>
<g><path style="opacity:1" fill="#bdbdbd" d="M 275.5,587.5 C 288.837,587.333 302.171,587.5 315.5,588C 321.577,594.55 320.577,599.55 312.5,603C 300.5,603.667 288.5,603.667 276.5,603C 268.845,598.253 268.512,593.087 275.5,587.5 Z"/></g>
<g><path style="opacity:1" fill="#969697" d="M 343.5,587.5 C 414.501,587.333 485.501,587.5 556.5,588C 562.28,593.876 561.613,598.876 554.5,603C 484.5,603.667 414.5,603.667 344.5,603C 338.265,598.192 337.931,593.026 343.5,587.5 Z"/></g>
<g><path style="opacity:1" fill="#737373" d="M 1088.5,587.5 C 1114.17,587.333 1139.84,587.5 1165.5,588C 1171.29,593.827 1170.62,598.827 1163.5,603C 1138.83,603.667 1114.17,603.667 1089.5,603C 1081.96,598.165 1081.62,592.998 1088.5,587.5 Z"/></g>
<g><path style="opacity:1" fill="#bebebe" d="M 275.5,642.5 C 288.504,642.333 301.504,642.5 314.5,643C 318.861,645.226 320.361,648.726 319,653.5C 318.052,655.57 316.552,657.07 314.5,658C 301.5,658.667 288.5,658.667 275.5,658C 268.876,652.885 268.876,647.718 275.5,642.5 Z"/></g>
<g><path style="opacity:1" fill="#989898" d="M 343.5,642.5 C 414.167,642.333 484.834,642.5 555.5,643C 560.535,646.013 561.702,650.18 559,655.5C 558.097,656.701 556.931,657.535 555.5,658C 485.167,658.667 414.833,658.667 344.5,658C 338.327,653.276 337.994,648.109 343.5,642.5 Z"/></g>
<g><path style="opacity:1" fill="#747474" d="M 964.5,642.5 C 1031.17,642.333 1097.83,642.5 1164.5,643C 1169.54,646.013 1170.7,650.18 1168,655.5C 1167.1,656.701 1165.93,657.535 1164.5,658C 1097.17,658.667 1029.83,658.667 962.5,658C 958.723,655.045 957.557,651.212 959,646.5C 960.5,644.531 962.333,643.198 964.5,642.5 Z"/></g>
<g><path style="opacity:1" fill="#303b41" d="M 1263.5,648.5 C 1289.84,648.333 1316.17,648.5 1342.5,649C 1350.03,650.839 1355.19,655.339 1358,662.5C 1358.67,679.167 1358.67,695.833 1358,712.5C 1355.83,720 1351,724.833 1343.5,727C 1335.15,727.168 1326.81,727.668 1318.5,728.5C 1312.14,738.368 1305.97,748.368 1300,758.5C 1298.96,760.585 1297.46,762.252 1295.5,763.5C 1289.56,751.96 1283.9,740.294 1278.5,728.5C 1270.01,727.67 1261.34,727.17 1252.5,727C 1245.85,723.686 1241.35,718.519 1239,711.5C 1238.04,694.767 1238.38,678.1 1240,661.5C 1244.83,651.833 1252.66,647.5 1263.5,648.5 Z"/></g>
<g><path style="opacity:1" fill="#fcfdfd" d="M 1254.5,652.5 C 1283.84,652.333 1313.17,652.5 1342.5,653C 1347.91,654.743 1351.74,658.243 1354,663.5C 1354.67,679.5 1354.67,695.5 1354,711.5C 1352.5,717.667 1348.67,721.5 1342.5,723C 1333.83,723.333 1325.17,723.667 1316.5,724C 1309.67,734.833 1302.83,745.667 1296,756.5C 1291.07,745.875 1286.24,735.209 1281.5,724.5C 1272.18,723.668 1262.85,723.168 1253.5,723C 1248.24,720.744 1244.74,716.91 1243,711.5C 1242.33,696.167 1242.33,680.833 1243,665.5C 1245.27,659.73 1249.11,655.397 1254.5,652.5 Z"/></g>
<g><path style="opacity:1" fill="#2f3b41" d="M 1275.5,672.5 C 1284.61,670.611 1288.61,674.277 1287.5,683.5C 1285.83,683.5 1284.17,683.5 1282.5,683.5C 1282.66,681.473 1282.5,679.473 1282,677.5C 1280.67,676.167 1279.33,676.167 1278,677.5C 1277.19,685.413 1277.35,693.246 1278.5,701C 1279.78,701.684 1280.95,701.517 1282,700.5C 1282.5,698.19 1282.66,695.857 1282.5,693.5C 1284.17,693.5 1285.83,693.5 1287.5,693.5C 1289.17,703.33 1285.17,707.163 1275.5,705C 1274,704.167 1272.83,703 1272,701.5C 1271.33,693.167 1271.33,684.833 1272,676.5C 1272.69,674.65 1273.86,673.316 1275.5,672.5 Z"/></g>
<g><path style="opacity:0.502" fill="#8a67c4" d="M 39.5,667.5 C 37.0078,673.818 34.0078,679.818 30.5,685.5C 32.4596,678.914 35.4596,672.914 39.5,667.5 Z"/></g>
<g><path style="opacity:1" fill="#2d393e" d="M 1296.5,680.5 C 1297.83,680.5 1299.17,680.5 1300.5,680.5C 1300.5,682.833 1300.5,685.167 1300.5,687.5C 1302.5,687.5 1304.5,687.5 1306.5,687.5C 1306.5,688.5 1306.5,689.5 1306.5,690.5C 1304.5,690.5 1302.5,690.5 1300.5,690.5C 1300.5,692.833 1300.5,695.167 1300.5,697.5C 1299.17,697.5 1297.83,697.5 1296.5,697.5C 1296.5,695.167 1296.5,692.833 1296.5,690.5C 1294.5,690.5 1292.5,690.5 1290.5,690.5C 1290.5,689.5 1290.5,688.5 1290.5,687.5C 1292.5,687.5 1294.5,687.5 1296.5,687.5C 1296.5,685.167 1296.5,682.833 1296.5,680.5 Z"/></g>
<g><path style="opacity:1" fill="#2b373d" d="M 1325.5,690.5 C 1323.17,690.5 1320.83,690.5 1318.5,690.5C 1318.5,692.833 1318.5,695.167 1318.5,697.5C 1317.5,697.5 1316.5,697.5 1315.5,697.5C 1315.5,695.167 1315.5,692.833 1315.5,690.5C 1313.5,690.5 1311.5,690.5 1309.5,690.5C 1309.5,689.5 1309.5,688.5 1309.5,687.5C 1311.5,687.5 1313.5,687.5 1315.5,687.5C 1315.5,685.167 1315.5,682.833 1315.5,680.5C 1316.83,680.5 1318.17,680.5 1319.5,680.5C 1319.5,682.833 1319.5,685.167 1319.5,687.5C 1321.5,687.5 1323.5,687.5 1325.5,687.5C 1325.5,688.5 1325.5,689.5 1325.5,690.5 Z"/></g>
<g><path style="opacity:0.525" fill="#8f6ec7" d="M 29.5,687.5 C 29.2927,690.241 28.2927,692.574 26.5,694.5C 26.7073,691.759 27.7073,689.426 29.5,687.5 Z"/></g>
<g><path style="opacity:1" fill="#93999c" d="M 1325.5,690.5 C 1323.74,691.461 1321.74,691.795 1319.5,691.5C 1319.79,693.735 1319.46,695.735 1318.5,697.5C 1318.5,695.167 1318.5,692.833 1318.5,690.5C 1320.83,690.5 1323.17,690.5 1325.5,690.5 Z"/></g>
<g><path style="opacity:1" fill="#fcfcfc" d="M 1104.5,692.5 C 1133.9,692.024 1163.23,692.524 1192.5,694C 1195.82,696.452 1198.32,699.618 1200,703.5C 1200.67,718.167 1200.67,732.833 1200,747.5C 1198.17,753.333 1194.33,757.167 1188.5,759C 1180.5,759.333 1172.5,759.667 1164.5,760C 1159.1,769.857 1154.27,780.024 1150,790.5C 1143.58,780.667 1137.42,770.667 1131.5,760.5C 1123.19,759.668 1114.85,759.168 1106.5,759C 1101.43,757.594 1097.93,754.428 1096,749.5C 1094.38,734.235 1094.05,718.901 1095,703.5C 1097.31,699.025 1100.48,695.358 1104.5,692.5 Z"/></g>
<g><path style="opacity:0.218" fill="#fbfafc" d="M 1560.5,686.5 C 1557.27,692.727 1553.27,698.393 1548.5,703.5C 1551.77,697.299 1555.77,691.632 1560.5,686.5 Z"/></g>
<g><path style="opacity:1" fill="#5b5f61" d="M 729.5,698.5 C 850.667,697.168 972.001,697.168 1093.5,698.5C 1093.38,699.107 1093.04,699.44 1092.5,699.5C 971.668,698.5 850.668,698.167 729.5,698.5 Z"/></g>
<g><path style="opacity:1" fill="#bdbdbd" d="M 276.5,697.5 C 288.505,697.333 300.505,697.5 312.5,698C 320.536,701.584 321.536,706.584 315.5,713C 301.833,713.667 288.167,713.667 274.5,713C 268.706,706.94 269.372,701.774 276.5,697.5 Z"/></g>
<g><path style="opacity:1" fill="#969797" d="M 346.5,697.5 C 415.501,697.333 484.501,697.5 553.5,698C 560.353,699.915 562.186,704.081 559,710.5C 558.097,711.701 556.931,712.535 555.5,713C 484.833,713.667 414.167,713.667 343.5,713C 337.474,706.307 338.474,701.14 346.5,697.5 Z"/></g>
<g><path style="opacity:1" fill="#747474" d="M 729.5,698.5 C 850.668,698.167 971.668,698.5 1092.5,699.5C 1090.78,703.966 1090.12,708.633 1090.5,713.5C 969.166,713.667 847.833,713.5 726.5,713C 721.257,708.255 721.257,703.588 726.5,699C 727.448,698.517 728.448,698.351 729.5,698.5 Z"/></g>
<g><path style="opacity:0.961" fill="#a285d0" d="M 24.5,699.5 C 23.4489,703.827 22.2823,708.16 21,712.5C 20.6174,713.056 20.1174,713.389 19.5,713.5C 20.3982,708.466 22.0649,703.799 24.5,699.5 Z"/></g>
<g><path style="opacity:1" fill="#666e73" d="M 1132.5,709.5 C 1129.17,709.5 1125.83,709.5 1122.5,709.5C 1122.5,720.5 1122.5,731.5 1122.5,742.5C 1121.51,731.346 1121.17,720.012 1121.5,708.5C 1125.37,708.185 1129.04,708.518 1132.5,709.5 Z"/></g>
<g><path style="opacity:1" fill="#28343a" d="M 1132.5,709.5 C 1134.71,710.023 1136.21,711.356 1137,713.5C 1137.67,717.5 1137.67,721.5 1137,725.5C 1135.28,728.397 1132.78,729.731 1129.5,729.5C 1128.5,729.5 1127.5,729.5 1126.5,729.5C 1126.5,733.833 1126.5,738.167 1126.5,742.5C 1125.17,742.5 1123.83,742.5 1122.5,742.5C 1122.5,731.5 1122.5,720.5 1122.5,709.5C 1125.83,709.5 1129.17,709.5 1132.5,709.5 Z"/></g>
<g><path style="opacity:1" fill="#c1c4c6" d="M 1145.5,709.5 C 1143.83,709.5 1142.17,709.5 1140.5,709.5C 1140.5,720.5 1140.5,731.5 1140.5,742.5C 1139.51,731.346 1139.17,720.012 1139.5,708.5C 1141.74,708.205 1143.74,708.539 1145.5,709.5 Z"/></g>
<g><path style="opacity:1" fill="#28343a" d="M 1140.5,742.5 C 1140.5,731.5 1140.5,720.5 1140.5,709.5C 1142.17,709.5 1143.83,709.5 1145.5,709.5C 1145.5,714.167 1145.5,718.833 1145.5,723.5C 1147.5,723.5 1149.5,723.5 1151.5,723.5C 1151.5,718.5 1151.5,713.5 1151.5,708.5C 1153.17,708.5 1154.83,708.5 1156.5,708.5C 1156.5,719.833 1156.5,731.167 1156.5,742.5C 1154.83,742.5 1153.17,742.5 1151.5,742.5C 1151.5,737.833 1151.5,733.167 1151.5,728.5C 1149.5,728.5 1147.5,728.5 1145.5,728.5C 1145.5,733.167 1145.5,737.833 1145.5,742.5C 1143.83,742.5 1142.17,742.5 1140.5,742.5 Z"/></g>
<g><path style="opacity:1" fill="#2d393f" d="M 1160.5,708.5 C 1174.45,707.279 1179.29,713.279 1175,726.5C 1172.45,729.186 1169.29,730.186 1165.5,729.5C 1165.5,733.833 1165.5,738.167 1165.5,742.5C 1163.83,742.5 1162.17,742.5 1160.5,742.5C 1160.5,731.167 1160.5,719.833 1160.5,708.5 Z"/></g>
<g><path style="opacity:1" fill="#70777b" d="M 1127.5,713.5 C 1127.5,717.167 1127.5,720.833 1127.5,724.5C 1128.5,724.5 1129.5,724.5 1130.5,724.5C 1129.43,725.434 1128.1,725.768 1126.5,725.5C 1126.18,721.298 1126.52,717.298 1127.5,713.5 Z"/></g>
<g><path style="opacity:1" fill="#ebeced" d="M 1127.5,713.5 C 1129.45,713.227 1130.95,713.893 1132,715.5C 1132.67,718.167 1132.67,720.833 1132,723.5C 1131.62,724.056 1131.12,724.389 1130.5,724.5C 1129.5,724.5 1128.5,724.5 1127.5,724.5C 1127.5,720.833 1127.5,717.167 1127.5,713.5 Z"/></g>
<g><path style="opacity:1" fill="#aaaeb1" d="M 1169.5,714.5 C 1168.5,714.5 1167.5,714.5 1166.5,714.5C 1166.5,717.833 1166.5,721.167 1166.5,724.5C 1167.5,724.5 1168.5,724.5 1169.5,724.5C 1168.43,725.434 1167.1,725.768 1165.5,725.5C 1165.5,721.5 1165.5,717.5 1165.5,713.5C 1167.1,713.232 1168.43,713.566 1169.5,714.5 Z"/></g>
<g><path style="opacity:1" fill="#fefefe" d="M 1169.5,714.5 C 1170.83,717.833 1170.83,721.167 1169.5,724.5C 1168.5,724.5 1167.5,724.5 1166.5,724.5C 1166.5,721.167 1166.5,717.833 1166.5,714.5C 1167.5,714.5 1168.5,714.5 1169.5,714.5 Z"/></g>
<g><path style="opacity:1" fill="#a285d0" d="M 19.5,713.5 C 19.5905,716.152 18.9238,718.485 17.5,720.5C 17.4095,717.848 18.0762,715.515 19.5,713.5 Z"/></g>
<g><path style="opacity:1" fill="#a88cd3" d="M 17.5,720.5 C 17.5905,723.152 16.9238,725.485 15.5,727.5C 15.4095,724.848 16.0762,722.515 17.5,720.5 Z"/></g>
<g><path style="opacity:1" fill="#93989b" d="M 1129.5,729.5 C 1127.96,733.717 1126.96,738.05 1126.5,742.5C 1126.5,738.167 1126.5,733.833 1126.5,729.5C 1127.5,729.5 1128.5,729.5 1129.5,729.5 Z"/></g>
<g><path style="opacity:0.966" fill="#2e3940" d="M 1477.5,772.5 C 1477.5,773.167 1477.83,773.5 1478.5,773.5C 1479.06,775.801 1479.56,778.134 1480,780.5C 1480.67,794.5 1480.67,808.5 1480,822.5C 1478.81,832.022 1473.64,838.188 1464.5,841C 1456.17,841.333 1447.83,841.667 1439.5,842C 1429.01,854.159 1418.17,865.992 1407,877.5C 1405.25,876.33 1404.25,874.663 1404,872.5C 1402.33,862.5 1400.67,852.5 1399,842.5C 1390.53,841.79 1382.03,841.124 1373.5,840.5C 1373.16,839.662 1372.49,839.328 1371.5,839.5C 1365.71,836.531 1361.87,831.864 1360,825.5C 1359.33,809.5 1359.33,793.5 1360,777.5C 1362.47,769.693 1367.64,764.526 1375.5,762C 1404.83,761.333 1434.17,761.333 1463.5,762C 1469.49,763.828 1474.15,767.328 1477.5,772.5 Z"/></g>
<g><path style="opacity:0.375" fill="#fbfbfd" d="M 1548.5,703.5 C 1528.85,730.479 1505.52,753.812 1478.5,773.5C 1477.83,773.5 1477.5,773.167 1477.5,772.5C 1504.09,752.576 1527.76,729.576 1548.5,703.5 Z"/></g>
<g><path style="opacity:1" fill="#fbfcfc" d="M 1377.5,765.5 C 1405.84,765.333 1434.17,765.5 1462.5,766C 1468.87,767.436 1473.04,771.269 1475,777.5C 1475.67,793.167 1475.67,808.833 1475,824.5C 1473.6,830.9 1469.77,835.066 1463.5,837C 1454.83,837.333 1446.17,837.667 1437.5,838C 1427.62,848.376 1417.95,858.876 1408.5,869.5C 1406.76,858.909 1404.76,848.409 1402.5,838C 1393.83,837.667 1385.17,837.333 1376.5,837C 1371.47,835.311 1367.64,832.144 1365,827.5C 1363.39,811.22 1363.06,794.887 1364,778.5C 1366.48,771.853 1370.98,767.52 1377.5,765.5 Z"/></g>
<g><path style="opacity:1" fill="#2f3a40" d="M 1425.5,779.5 C 1427.6,779.201 1429.6,779.534 1431.5,780.5C 1425.18,794.968 1419.34,809.635 1414,824.5C 1411.86,825.769 1409.69,825.769 1407.5,824.5C 1413.51,809.471 1419.51,794.471 1425.5,779.5 Z"/></g>
<g><path style="opacity:1" fill="#2d393f" d="M 1434.5,792.5 C 1441.4,795.117 1448.4,797.45 1455.5,799.5C 1455.8,801.604 1455.47,803.604 1454.5,805.5C 1447.95,808.239 1441.28,810.572 1434.5,812.5C 1434.21,810.712 1434.55,809.045 1435.5,807.5C 1439.8,805.901 1444.13,804.401 1448.5,803C 1444.32,801.081 1439.98,799.414 1435.5,798C 1434.59,796.301 1434.26,794.467 1434.5,792.5 Z"/></g>
<g><path style="opacity:1" fill="#333e44" d="M 1401.5,792.5 C 1402.5,792.5 1403.5,792.5 1404.5,792.5C 1404.5,794.167 1404.5,795.833 1404.5,797.5C 1387.23,800.956 1387.23,804.289 1404.5,807.5C 1404.5,809.167 1404.5,810.833 1404.5,812.5C 1397.31,810.771 1390.31,808.438 1383.5,805.5C 1382.53,803.604 1382.2,801.604 1382.5,799.5C 1389.13,797.738 1395.46,795.405 1401.5,792.5 Z"/></g>
<g><path style="opacity:1" fill="#b2b3b4" d="M 857.5,798.5 C 867.038,798.034 876.371,799.201 885.5,802C 898.33,806.943 910.996,812.277 923.5,818C 930.393,820.379 937.393,822.379 944.5,824C 947.064,825.481 947.064,826.981 944.5,828.5C 925.763,823.632 907.763,816.799 890.5,808C 874.723,800.976 858.89,800.809 843,807.5C 841.131,806.631 840.631,805.465 841.5,804C 846.844,801.841 852.177,800.008 857.5,798.5 Z"/></g>
<g><path style="opacity:1" fill="#b0b1b2" d="M 820.5,813.5 C 822.359,813.461 823.692,814.294 824.5,816C 820.2,819.298 816.2,822.965 812.5,827C 810.226,827.463 809.059,826.63 809,824.5C 812.729,820.602 816.562,816.935 820.5,813.5 Z"/></g>
<g><path style="opacity:1" fill="#303b42" d="M 320.5,815.5 C 325.274,819.098 329.94,822.931 334.5,827C 337.597,829.391 339.763,832.224 341,835.5C 331.5,846.333 322,857.167 312.5,868C 307.003,870.245 302.003,873.245 297.5,877C 286.015,889.651 274.015,901.818 261.5,913.5C 267.216,922.574 264.883,926.74 254.5,926C 251.667,928.833 248.833,931.667 246,934.5C 245.846,938.098 244.846,941.431 243,944.5C 219.167,968.333 195.333,992.167 171.5,1016C 167.445,1018.34 163.111,1019.01 158.5,1018C 150.803,1014.8 144.803,1009.64 140.5,1002.5C 141.591,1001.11 142.924,1000.61 144.5,1001C 148.268,1006.77 153.268,1011.1 159.5,1014C 162.594,1014.65 165.594,1014.32 168.5,1013C 191.972,990.528 215.139,967.695 238,944.5C 240.523,940.931 241.856,936.931 242,932.5C 246.333,928.167 250.667,923.833 255,919.5C 256.264,921.607 258.097,922.607 260.5,922.5C 260.657,921.127 260.49,919.793 260,918.5C 252.5,911 245,903.5 237.5,896C 236.207,895.51 234.873,895.343 233.5,895.5C 233.393,897.903 234.393,899.736 236.5,901C 232.167,905.333 227.833,909.667 223.5,914C 218.884,913.729 214.884,915.063 211.5,918C 189.028,941.472 166.195,964.639 143,987.5C 141.798,989.677 141.298,992.011 141.5,994.5C 140.167,994.5 138.833,994.5 137.5,994.5C 137.502,990.489 138.668,986.822 141,983.5C 164.5,960 188,936.5 211.5,913C 214.648,911.395 217.981,910.395 221.5,910C 224.333,907.167 227.167,904.333 230,901.5C 228.662,892.844 232.162,890.011 240.5,893C 246.348,899.015 252.348,904.848 258.5,910.5C 271.986,897.514 285.319,884.347 298.5,871C 302.327,869.254 305.993,867.254 309.5,865C 318.407,855.168 327.074,845.168 335.5,835C 331.364,829.697 326.697,824.863 321.5,820.5C 311.205,828.793 301.205,837.46 291.5,846.5C 288.918,851.333 286.085,856 283,860.5C 272.653,871.014 262.153,881.348 251.5,891.5C 250.585,890.672 249.919,889.672 249.5,888.5C 260.152,877.347 270.986,866.347 282,855.5C 283.667,852.167 285.333,848.833 287,845.5C 298.361,835.634 309.528,825.634 320.5,815.5 Z"/></g>
<g><path style="opacity:1" fill="#323c44" d="M 139.5,848.5 C 139.217,847.711 138.717,847.044 138,846.5C 137.195,849.696 137.362,852.696 138.5,855.5C 141.583,868.417 149.583,876.583 162.5,880C 167.525,880.328 172.525,880.328 177.5,880C 186.333,888.833 195.167,897.667 204,906.5C 204.345,908.201 203.678,909.534 202,910.5C 193.167,901.667 184.333,892.833 175.5,884C 151.131,885.482 137.131,874.148 133.5,850C 133.503,845.99 134.336,842.156 136,838.5C 142.135,845.636 148.635,852.469 155.5,859C 161.371,857.907 167.205,856.407 173,854.5C 174.222,849.065 175.722,843.732 177.5,838.5C 171.015,831.514 164.348,824.681 157.5,818C 172.9,812.936 185.733,816.77 196,829.5C 201.704,837.937 204.038,847.27 203,857.5C 211.681,866.014 220.181,874.681 228.5,883.5C 227.652,885.283 226.319,885.783 224.5,885C 215.667,876.167 206.833,867.333 198,858.5C 201.056,838.433 192.89,825.6 173.5,820C 170.833,819.333 168.167,819.333 165.5,820C 170.667,825.167 175.833,830.333 181,835.5C 179.985,843.232 178.485,850.899 176.5,858.5C 169.528,859.618 162.695,861.285 156,863.5C 150.342,858.676 144.842,853.676 139.5,848.5 Z"/></g>
<g><path style="opacity:1" fill="#b3b4b4" d="M 863.5,831.5 C 871.638,831.076 879.638,831.909 887.5,834C 899.112,839.139 910.446,844.806 921.5,851C 927.356,853.131 933.356,854.631 939.5,855.5C 939.5,856.833 939.5,858.167 939.5,859.5C 932.922,859.084 926.588,857.584 920.5,855C 911.546,850.857 902.88,846.19 894.5,841C 884.943,836.622 874.943,834.955 864.5,836C 859.952,837.134 855.618,838.468 851.5,840C 850.167,839 850.167,838 851.5,837C 855.227,834.299 859.227,832.465 863.5,831.5 Z"/></g>
<g><path style="opacity:1" fill="#b1b2b2" d="M 763.5,833.5 C 770.211,833.287 776.877,833.62 783.5,834.5C 783.915,836.948 782.915,838.281 780.5,838.5C 767.528,834.243 758.362,838.243 753,850.5C 751.812,856.778 751.312,863.112 751.5,869.5C 750.167,869.5 748.833,869.5 747.5,869.5C 745.13,856.783 748.464,845.95 757.5,837C 759.727,836.059 761.727,834.892 763.5,833.5 Z"/></g>
<g><path style="opacity:0.422" fill="#faf9fb" d="M 1371.5,839.5 C 1372.49,839.328 1373.16,839.662 1373.5,840.5C 1363.5,846.167 1353.5,851.833 1343.5,857.5C 1343.17,857.5 1342.83,857.5 1342.5,857.5C 1342.37,856.624 1342.7,855.957 1343.5,855.5C 1353.11,850.539 1362.44,845.205 1371.5,839.5 Z"/></g>
<g><path style="opacity:1" fill="#b4b5b5" d="M 1219.5,841.5 C 1221.17,841.5 1222.83,841.5 1224.5,841.5C 1224.5,842.833 1224.5,844.167 1224.5,845.5C 1211.59,848.708 1200.76,855.375 1192,865.5C 1188.59,869.994 1185.42,874.66 1182.5,879.5C 1181.04,880.471 1179.7,880.138 1178.5,878.5C 1188.1,861.565 1201.76,849.232 1219.5,841.5 Z"/></g>
<g><path style="opacity:1" fill="#828395" d="M 139.5,848.5 C 138.532,850.607 138.198,852.941 138.5,855.5C 137.362,852.696 137.195,849.696 138,846.5C 138.717,847.044 139.217,847.711 139.5,848.5 Z"/></g>
<g><path style="opacity:1" fill="#fcfdfd" d="M 802.5,856.5 C 835.132,870.158 869.132,877.158 904.5,877.5C 907.825,896.146 914.492,913.48 924.5,929.5C 913.968,933.066 903.468,936.733 893,940.5C 876.617,930.799 859.117,928.299 840.5,933C 831.883,938.099 822.55,939.933 812.5,938.5C 812.724,934.821 813.058,931.154 813.5,927.5C 812.178,927.33 811.011,927.663 810,928.5C 809.333,931.167 808.667,933.833 808,936.5C 793.983,930.296 779.483,928.963 764.5,932.5C 762.291,899.585 774.958,874.251 802.5,856.5 Z"/></g>
<g><path style="opacity:1" fill="#afb0b0" d="M 750.5,888.5 C 751.833,888.5 753.167,888.5 754.5,888.5C 754.947,892.787 755.947,896.953 757.5,901C 756.968,903.02 755.635,903.853 753.5,903.5C 751.876,898.626 750.876,893.626 750.5,888.5 Z"/></g>
<g><path style="opacity:1" fill="#abadae" d="M 1282.5,889.5 C 1283.98,889.238 1285.31,889.571 1286.5,890.5C 1287.52,895.251 1288.85,899.918 1290.5,904.5C 1289.37,905.262 1288.21,905.929 1287,906.5C 1284.17,901.188 1282.67,895.521 1282.5,889.5 Z"/></g>
<g><path style="opacity:1" fill="#b2b3b3" d="M 1174.5,891.5 C 1175.83,891.5 1177.17,891.5 1178.5,891.5C 1177.18,899.44 1176.51,907.44 1176.5,915.5C 1175.17,915.5 1173.83,915.5 1172.5,915.5C 1172.32,907.412 1172.98,899.412 1174.5,891.5 Z"/></g>
<g><path style="opacity:1" fill="#b3b4b4" d="M 1303.5,891.5 C 1304.82,891.33 1305.99,891.663 1307,892.5C 1317.28,912.784 1333.11,926.618 1354.5,934C 1357.15,934.497 1359.81,934.664 1362.5,934.5C 1362.5,935.833 1362.5,937.167 1362.5,938.5C 1350.05,938.184 1339.05,934.017 1329.5,926C 1318.85,917.014 1310.01,906.514 1303,894.5C 1302.53,893.423 1302.7,892.423 1303.5,891.5 Z"/></g>
<g><path style="opacity:1" fill="#898f93" d="M 1220.5,908.5 C 1219.83,908.167 1219.17,907.833 1218.5,907.5C 1219.98,903.53 1220.65,903.863 1220.5,908.5 Z"/></g>
<g><path style="opacity:1" fill="#fcfcfc" d="M 1218.5,907.5 C 1219.17,907.833 1219.83,908.167 1220.5,908.5C 1221.42,918.702 1224.42,928.202 1229.5,937C 1239.94,937.852 1250.27,939.352 1260.5,941.5C 1258.9,933.567 1258.4,925.567 1259,917.5C 1269.33,937.18 1279.83,956.514 1290.5,975.5C 1291.31,975.192 1291.97,974.692 1292.5,974C 1291.48,972.951 1291.32,971.784 1292,970.5C 1296.49,974.333 1301.65,976.833 1307.5,978C 1314.18,978.305 1320.85,978.305 1327.5,978C 1336.92,992.053 1334.92,1004.39 1321.5,1015C 1317.37,1018.15 1312.87,1020.65 1308,1022.5C 1304.1,1040.2 1297.1,1056.53 1287,1071.5C 1267.85,1093.2 1245.35,1097.7 1219.5,1085C 1210.71,1078.55 1202.21,1071.71 1194,1064.5C 1184.59,1054.34 1178.92,1042.34 1177,1028.5C 1176.67,1007.5 1176.33,986.5 1176,965.5C 1175.72,961.961 1175.22,958.461 1174.5,955C 1186.04,944.425 1199.7,938.591 1215.5,937.5C 1214.89,927.282 1215.89,917.282 1218.5,907.5 Z"/></g>
<g><path style="opacity:1" fill="#2f3a40" d="M 784.5,911.5 C 793.478,910.453 801.644,912.453 809,917.5C 809.483,918.448 809.649,919.448 809.5,920.5C 805.638,919.572 801.971,918.072 798.5,916C 791.687,915.129 785.021,915.629 778.5,917.5C 778.351,916.448 778.517,915.448 779,914.5C 780.876,913.391 782.709,912.391 784.5,911.5 Z"/></g>
<g><path style="opacity:1" fill="#343f45" d="M 859.5,910.5 C 868.807,909.461 877.473,911.294 885.5,916C 887.037,917.11 887.703,918.61 887.5,920.5C 883.684,919.599 880.017,918.099 876.5,916C 873.236,915.061 869.903,914.561 866.5,914.5C 859.695,915.215 853.028,916.548 846.5,918.5C 846.33,917.178 846.663,916.011 847.5,915C 851.571,913.37 855.571,911.87 859.5,910.5 Z"/></g>
<g><path style="opacity:1" fill="#313b43" d="M 237.5,915.5 C 239.446,916.254 240.279,917.588 240,919.5C 223.625,935.707 207.459,952.041 191.5,968.5C 190.112,967.409 189.612,966.076 190,964.5C 205.673,947.994 221.506,931.661 237.5,915.5 Z"/></g>
<g><path style="opacity:1" fill="#b2b3b4" d="M 1294.5,921.5 C 1296.02,921.511 1297.18,922.177 1298,923.5C 1310.54,948.205 1330.04,964.871 1356.5,973.5C 1357.43,974.689 1357.76,976.022 1357.5,977.5C 1328.72,969.555 1307.55,952.222 1294,925.5C 1293.42,924.072 1293.59,922.738 1294.5,921.5 Z"/></g>
<g><path style="opacity:1" fill="#fcfdfd" d="M 799.5,969.5 C 800.833,969.5 801.5,970.167 801.5,971.5C 800.079,980.454 799.579,989.454 800,998.5C 801.167,1001 803,1002.83 805.5,1004C 816.056,1005.64 825.223,1002.8 833,995.5C 836.733,990.258 836.233,985.592 831.5,981.5C 831.192,984.75 831.025,988.083 831,991.5C 825.654,997.009 819.154,1000.34 811.5,1001.5C 808.37,1001.35 805.87,1000.02 804,997.5C 804.352,978.703 806.852,960.203 811.5,942C 817.5,941.333 823.5,941.333 829.5,942C 832.063,949.024 834.23,956.191 836,963.5C 836.465,964.931 837.299,966.097 838.5,967C 845.702,969.891 853.202,971.058 861,970.5C 870.805,970.894 880.305,969.394 889.5,966C 890,965.5 890.5,965 891,964.5C 891.5,957.842 891.666,951.175 891.5,944.5C 902.944,941.241 914.277,937.574 925.5,933.5C 925.906,934.557 925.906,935.891 925.5,937.5C 926.978,937.762 928.311,937.429 929.5,936.5C 931.941,932.224 935.274,928.724 939.5,926C 945.201,924.435 949.367,926.268 952,931.5C 954.46,937.245 955.127,943.245 954,949.5C 952.528,956.779 950.195,963.779 947,970.5C 940.461,977.527 934.794,976.86 930,968.5C 925.308,998.354 912.142,1024.52 890.5,1047C 864.961,1069.36 836.628,1073.69 805.5,1060C 795.404,1053.22 788.237,1044.06 784,1032.5C 776.302,1012.18 771.469,991.18 769.5,969.5C 779.504,970.802 789.504,970.802 799.5,969.5 Z"/></g>
<g><path style="opacity:1" fill="#323d44" d="M 271.5,927.5 C 280.912,935.408 289.912,943.908 298.5,953C 329.833,953.232 343.333,968.732 339,999.5C 331.978,992.478 324.978,985.478 318,978.5C 311.905,979.597 306.238,981.597 301,984.5C 299.344,989.778 298.344,995.111 298,1000.5C 304,1006.5 310,1012.5 316,1018.5C 316.456,1019.74 315.956,1020.58 314.5,1021C 294.003,1024.18 280.169,1016.01 273,996.5C 272.667,991.167 272.333,985.833 272,980.5C 262.5,971 253,961.5 243.5,952C 244.466,950.322 245.799,949.655 247.5,950C 257,959.5 266.5,969 276,978.5C 273.238,998.689 281.404,1011.86 300.5,1018C 303.5,1018.67 306.5,1018.67 309.5,1018C 303.652,1012.32 297.985,1006.49 292.5,1000.5C 294.625,993.916 296.458,987.249 298,980.5C 305.268,977.515 312.768,975.682 320.5,975C 325.667,980.167 330.833,985.333 336,990.5C 336.184,970.176 326.017,959.176 305.5,957.5C 302.791,957.873 300.124,958.04 297.5,958C 288.667,949.167 279.833,940.333 271,931.5C 270.805,930.181 270.972,928.847 271.5,927.5 Z"/></g>
<g><path style="opacity:1" fill="#fbfbfb" d="M 770.5,934.5 C 777.226,934.205 783.892,934.538 790.5,935.5C 790.528,938.997 790.694,942.664 791,946.5C 792.61,951.316 794.943,951.65 798,947.5C 798.498,944.183 798.665,940.85 798.5,937.5C 801.5,938.167 804.5,938.833 807.5,939.5C 805.686,947.757 804.352,956.09 803.5,964.5C 791.891,966.692 780.225,967.025 768.5,965.5C 767.445,956.509 766.445,947.509 765.5,938.5C 765.608,937.558 765.941,936.725 766.5,936C 768.058,935.79 769.391,935.29 770.5,934.5 Z"/></g>
<g><path style="opacity:1" fill="#fafafb" d="M 848.5,934.5 C 851.518,934.335 854.518,934.502 857.5,935C 854.08,939.789 853.58,944.956 856,950.5C 859.084,951.959 861.084,950.959 862,947.5C 863.193,942.848 862.36,938.681 859.5,935C 869.068,934.323 878.068,936.323 886.5,941C 887.646,948.086 887.812,955.253 887,962.5C 878.859,965.829 870.359,967.162 861.5,966.5C 857.167,966.333 852.833,966.167 848.5,966C 846.048,965.71 843.715,965.044 841.5,964C 838.587,956.792 835.92,949.459 833.5,942C 834.272,940.779 835.272,939.779 836.5,939C 840.571,937.37 844.571,935.87 848.5,934.5 Z"/></g>
<g><path style="opacity:1" fill="#c9c0dc" d="M 755.5,940.5 C 756.675,940.281 757.675,940.614 758.5,941.5C 762.84,948.53 764.84,956.197 764.5,964.5C 762.063,964.244 759.729,963.577 757.5,962.5C 756.455,955.198 755.788,947.865 755.5,940.5 Z"/></g>
<g><path style="opacity:1" fill="#313c42" d="M 1232.5,953.5 C 1246.34,952.298 1259.01,955.465 1270.5,963C 1272.04,964.11 1272.7,965.61 1272.5,967.5C 1271.13,967.657 1269.79,967.49 1268.5,967C 1260.07,959.71 1250.23,956.544 1239,957.5C 1234.82,957.723 1230.65,958.057 1226.5,958.5C 1226.33,957.178 1226.66,956.011 1227.5,955C 1229.38,954.802 1231.05,954.302 1232.5,953.5 Z"/></g>
<g><path style="opacity:1" fill="#313d42" d="M 1195.5,957.5 C 1199.17,957.5 1202.83,957.5 1206.5,957.5C 1206.67,958.822 1206.34,959.989 1205.5,961C 1201.11,961.303 1196.77,961.97 1192.5,963C 1188.06,965.118 1183.89,967.618 1180,970.5C 1178.94,970.37 1178.11,969.87 1177.5,969C 1182.78,963.869 1188.78,960.035 1195.5,957.5 Z"/></g>
<g><path style="opacity:1" fill="#8b9194" d="M 799.5,969.5 C 800.209,968.596 801.209,968.263 802.5,968.5C 802.737,969.791 802.404,970.791 801.5,971.5C 801.5,970.167 800.833,969.5 799.5,969.5 Z"/></g>
<g><path style="opacity:1" fill="#2b373d" d="M 1247.5,968.5 C 1251.82,969.32 1254.32,971.987 1255,976.5C 1255.81,980.664 1255.31,984.664 1253.5,988.5C 1249.44,989.658 1246.94,987.992 1246,983.5C 1245.02,978.28 1245.52,973.28 1247.5,968.5 Z"/></g>
<g><path style="opacity:1" fill="#323d43" d="M 1212.5,975.5 C 1214.12,975.36 1215.29,976.027 1216,977.5C 1216.2,991.77 1210.53,1003.1 1199,1011.5C 1198.13,1015.67 1199.63,1018.84 1203.5,1021C 1206.22,1023.03 1209.22,1024.53 1212.5,1025.5C 1213.39,1026.32 1213.72,1027.32 1213.5,1028.5C 1207.04,1027.85 1201.54,1025.19 1197,1020.5C 1194.25,1016.67 1193.91,1012.67 1196,1008.5C 1207.86,1000.77 1213.36,989.771 1212.5,975.5 Z"/></g>
<g><path style="opacity:1" fill="#2c373d" d="M 1193.5,975.5 C 1197.04,975.872 1199.21,977.872 1200,981.5C 1200.67,985.833 1200.67,990.167 1200,994.5C 1196.19,997.281 1193.53,996.281 1192,991.5C 1191,985.95 1191.5,980.617 1193.5,975.5 Z"/></g>
<g><path style="opacity:1" fill="#353f47" d="M 172.5,981.5 C 174.446,982.254 175.279,983.588 175,985.5C 171.833,988.667 168.667,991.833 165.5,995C 163.799,995.345 162.466,994.678 161.5,993C 165.37,989.298 169.037,985.464 172.5,981.5 Z"/></g>
<g><path style="opacity:1" fill="#b4b5b5" d="M 1374.5,1001.5 C 1396.76,1035.36 1414.26,1071.69 1427,1110.5C 1431.38,1123.48 1433.55,1136.81 1433.5,1150.5C 1432.17,1150.5 1430.83,1150.5 1429.5,1150.5C 1428.66,1130.81 1424.5,1111.81 1417,1093.5C 1404.97,1062.77 1390.3,1033.44 1373,1005.5C 1372.52,1003.81 1373.02,1002.47 1374.5,1001.5 Z"/></g>
<g><path style="opacity:1" fill="#333e44" d="M 867.5,1002.5 C 868.5,1002.5 869.5,1002.5 870.5,1002.5C 870.509,1004.31 870.009,1005.98 869,1007.5C 853.252,1023.88 834.752,1028.38 813.5,1021C 813.645,1020.23 813.978,1019.56 814.5,1019C 830.161,1022.83 844.828,1020.49 858.5,1012C 861.704,1008.96 864.704,1005.8 867.5,1002.5 Z"/></g>
<g><path style="opacity:0.229" fill="#fbfafc" d="M 1162.5,981.5 C 1162.5,982.167 1162.5,982.833 1162.5,983.5C 1147.33,998.225 1133.33,1013.89 1120.5,1030.5C 1132.26,1012.39 1146.26,996.061 1162.5,981.5 Z"/></g>
<g><path style="opacity:1" fill="#b1b2b3" d="M 1358.5,1026.5 C 1359.5,1026.41 1360.33,1026.75 1361,1027.5C 1367.21,1049.58 1375.88,1070.58 1387,1090.5C 1390.26,1095.35 1393.76,1100.01 1397.5,1104.5C 1396.83,1105.83 1395.83,1106.83 1394.5,1107.5C 1385.83,1096.84 1378.66,1085.17 1373,1072.5C 1367,1058 1361.5,1043.33 1356.5,1028.5C 1357.24,1027.82 1357.91,1027.15 1358.5,1026.5 Z"/></g>
<g><path style="opacity:1" fill="#313c42" d="M 1259.5,1034.5 C 1260.83,1034.5 1262.17,1034.5 1263.5,1034.5C 1260.15,1048.69 1251.32,1056.69 1237,1058.5C 1230.31,1057.99 1224.64,1055.32 1220,1050.5C 1219.25,1049.36 1219.42,1048.36 1220.5,1047.5C 1234.31,1045.34 1247.31,1041.01 1259.5,1034.5 Z"/></g>
<g><path style="opacity:1" fill="#eeeff0" d="M 1255.5,1040.5 C 1254.49,1047.05 1250.49,1051.55 1243.5,1054C 1237.24,1055.42 1231.57,1054.26 1226.5,1050.5C 1236.74,1048.53 1246.41,1045.2 1255.5,1040.5 Z"/></g>
<g><path style="opacity:1" fill="#fbfbfb" d="M 816.5,1083.5 C 817.167,1081.83 817.833,1080.17 818.5,1078.5C 820.959,1093.3 829.626,1100.96 844.5,1101.5C 856.074,1101.05 866.407,1097.21 875.5,1090C 887.171,1079.49 896.004,1066.99 902,1052.5C 903.084,1067.34 904.251,1082.17 905.5,1097C 905.167,1098.5 904.833,1100 904.5,1101.5C 883.477,1118.36 862.31,1135.02 841,1151.5C 832.167,1135.83 823.333,1120.17 814.5,1104.5C 815.551,1097.56 816.218,1090.56 816.5,1083.5 Z"/></g>
<g><path style="opacity:0.301" fill="#faf8fc" d="M 1115.5,1037.5 C 1109.89,1047.11 1103.89,1056.44 1097.5,1065.5C 1102.32,1055.36 1108.32,1046.02 1115.5,1037.5 Z"/></g>
<g><path style="opacity:1" fill="#f6f6f7" d="M 1313.5,1055.5 C 1316.31,1069.37 1318.81,1083.37 1321,1097.5C 1306.1,1101.82 1290.93,1104.65 1275.5,1106C 1278.62,1104.94 1281.62,1103.61 1284.5,1102C 1299.1,1089.65 1308.76,1074.15 1313.5,1055.5 Z"/></g>
<g><path style="opacity:1" fill="#3a454b" d="M 168.5,1070.5 C 311.5,1070.33 454.5,1070.5 597.5,1071C 606.305,1074.42 610.805,1080.92 611,1090.5C 622.943,1187.49 634.776,1284.49 646.5,1381.5C 647.293,1389.2 643.959,1394.04 636.5,1396C 573.168,1396.5 509.834,1396.67 446.5,1396.5C 449.833,1356.84 453.166,1317.17 456.5,1277.5C 457.861,1265.69 452.861,1261.19 441.5,1264C 406.833,1264.33 372.167,1264.67 337.5,1265C 335.391,1266.14 333.558,1267.64 332,1269.5C 327.326,1311.74 323.493,1354.07 320.5,1396.5C 284.165,1396.67 247.832,1396.5 211.5,1396C 203.342,1394.51 198.509,1389.68 197,1381.5C 184.956,1281.98 172.79,1182.48 160.5,1083C 160.933,1077.4 163.6,1073.23 168.5,1070.5 Z"/></g>
<g><path style="opacity:1" fill="#7d5ab7" d="M 605.5,1071.5 C 605.56,1070.96 605.893,1070.62 606.5,1070.5C 612.531,1073.03 616.698,1077.36 619,1083.5C 630.405,1177.86 642.072,1272.19 654,1366.5C 654.834,1373.5 655.167,1380.5 655,1387.5C 653.636,1391.87 650.803,1394.37 646.5,1395C 649.117,1391.6 650.451,1387.77 650.5,1383.5C 638.443,1283.49 626.276,1183.49 614,1083.5C 612.853,1078.2 610.02,1074.2 605.5,1071.5 Z"/></g>
<g><path style="opacity:1" fill="#81888b" d="M 818.5,1078.5 C 817.833,1080.17 817.167,1081.83 816.5,1083.5C 816.192,1081.08 816.526,1078.74 817.5,1076.5C 818.298,1076.96 818.631,1077.62 818.5,1078.5 Z"/></g>
<g><path style="opacity:0.241" fill="#f9f7fb" d="M 76.5,1069.5 C 81.2613,1076.69 85.2613,1084.35 88.5,1092.5C 83.7387,1085.31 79.7387,1077.65 76.5,1069.5 Z"/></g>
<g><path style="opacity:1" fill="#b3b4b4" d="M 1188.5,1084.5 C 1189.83,1084.5 1191.17,1084.5 1192.5,1084.5C 1192.65,1101.43 1195.82,1117.76 1202,1133.5C 1204.5,1138.51 1207.5,1143.17 1211,1147.5C 1211.78,1149.32 1211.28,1150.65 1209.5,1151.5C 1206.53,1148.91 1204.03,1145.91 1202,1142.5C 1192.69,1124.32 1188.19,1104.99 1188.5,1084.5 Z"/></g>
<g><path style="opacity:0.99" fill="#7755af" d="M 123.5,1240.5 C 116.116,1257.16 110.616,1274.49 107,1292.5C 105.255,1284.44 103.255,1276.44 101,1268.5C 98.1924,1261.24 95.6924,1253.91 93.5,1246.5C 93.6716,1245.51 93.3382,1244.84 92.5,1244.5C 90.5159,1225.11 88.0159,1205.78 85,1186.5C 79.6469,1154.71 73.9803,1123.04 68,1091.5C 92.3574,1122.22 108.691,1156.89 117,1195.5C 120.241,1210.35 122.408,1225.35 123.5,1240.5 Z"/></g>
<g><path style="opacity:1" fill="#5c4187" d="M 914.5,1098.5 C 920.938,1098.85 927.272,1099.85 933.5,1101.5C 918.667,1127.83 903.833,1154.17 889,1180.5C 887.938,1183.06 886.104,1184.73 883.5,1185.5C 868.439,1176.89 853.605,1167.89 839,1158.5C 828.266,1165.12 817.432,1171.62 806.5,1178C 802.849,1179.12 800.349,1177.96 799,1174.5C 796.609,1151.15 794.109,1127.81 791.5,1104.5C 796.631,1103.36 801.798,1102.36 807,1101.5C 808.261,1101.76 809.261,1102.43 810,1103.5C 819.239,1121.65 829.239,1139.32 840,1156.5C 865.295,1137.7 890.128,1118.37 914.5,1098.5 Z"/></g>
<g><path style="opacity:1" fill="#825dbf" d="M 1332.5,1098.5 C 1335.44,1100.05 1336.44,1102.38 1335.5,1105.5C 1313.5,1115 1290.5,1119.83 1266.5,1120C 1265.66,1121.01 1265.33,1122.18 1265.5,1123.5C 1290.96,1123.96 1315.3,1118.96 1338.5,1108.5C 1343.76,1118.68 1348.76,1129.01 1353.5,1139.5C 1351.85,1141.12 1349.85,1142.29 1347.5,1143C 1320.48,1151.5 1292.82,1155.84 1264.5,1156C 1252.58,1155.95 1241.42,1153.11 1231,1147.5C 1231.44,1138.77 1232.61,1130.1 1234.5,1121.5C 1234.83,1121.17 1235.17,1120.83 1235.5,1120.5C 1240.69,1122.18 1246.02,1122.85 1251.5,1122.5C 1251.67,1121.18 1251.34,1120.01 1250.5,1119C 1245.68,1118.89 1241.02,1118.05 1236.5,1116.5C 1235.12,1113.68 1235.29,1111.02 1237,1108.5C 1239.98,1109.92 1243.15,1110.75 1246.5,1111C 1275.98,1111.57 1304.65,1107.4 1332.5,1098.5 Z"/></g>
<g><path style="opacity:1" fill="#835dc1" d="M 981.5,1233.5 C 978.679,1237.13 976.346,1241.13 974.5,1245.5C 974.208,1236.08 974.875,1226.75 976.5,1217.5C 975.167,1217.5 973.833,1217.5 972.5,1217.5C 970.732,1230.42 970.066,1243.42 970.5,1256.5C 954.99,1288.86 939.99,1321.53 925.5,1354.5C 921.29,1351.15 916.457,1349.49 911,1349.5C 903.561,1349.84 896.228,1350.84 889,1352.5C 887.374,1351.98 885.707,1351.65 884,1351.5C 876.591,1352.73 869.257,1354.06 862,1355.5C 853.361,1353.81 846.694,1356.81 842,1364.5C 839.477,1371.32 840.31,1377.65 844.5,1383.5C 831.103,1386.25 817.77,1389.25 804.5,1392.5C 802.444,1391.95 800.777,1390.79 799.5,1389C 796.759,1388.02 793.925,1387.52 791,1387.5C 784.615,1388.91 778.115,1389.74 771.5,1390C 766.175,1392.16 762.841,1395.99 761.5,1401.5C 739.242,1402.49 716.908,1402.82 694.5,1402.5C 694.5,1400.83 694.5,1399.17 694.5,1397.5C 695.489,1357.67 696.489,1317.83 697.5,1278C 697.499,1272.99 697.166,1268.15 696.5,1263.5C 696.5,1259.17 696.5,1254.83 696.5,1250.5C 697.117,1250.39 697.617,1250.06 698,1249.5C 698.734,1236.16 699.067,1222.83 699,1209.5C 696.851,1208.16 695.684,1208.83 695.5,1211.5C 691.546,1213.62 688.379,1216.62 686,1220.5C 682.748,1226.84 680.415,1233.5 679,1240.5C 675.381,1272.17 671.714,1303.84 668,1335.5C 665.841,1348.96 663.175,1362.29 660,1375.5C 659.5,1363.17 659.333,1350.84 659.5,1338.5C 659.675,1292.33 662.509,1246.33 668,1200.5C 670.507,1169.62 685.007,1146.45 711.5,1131C 735.657,1119 760.99,1110.5 787.5,1105.5C 790.003,1129.87 792.836,1154.2 796,1178.5C 799.308,1182.33 803.474,1183.49 808.5,1182C 818.433,1175.45 828.6,1169.28 839,1163.5C 852.422,1171.25 865.588,1179.42 878.5,1188C 881.03,1189.42 883.697,1189.75 886.5,1189C 889.011,1186.82 891.178,1184.32 893,1181.5C 907.667,1155.5 922.333,1129.5 937,1103.5C 970.634,1107.16 1002.13,1117.66 1031.5,1135C 1038.11,1139.28 1044.45,1143.95 1050.5,1149C 1040.39,1148.26 1031.06,1150.59 1022.5,1156C 1015.2,1161.24 1008.37,1167.07 1002,1173.5C 1000.12,1175.53 998.954,1177.86 998.5,1180.5C 999.552,1180.65 1000.55,1180.48 1001.5,1180C 1010.88,1168.15 1022.55,1159.49 1036.5,1154C 1052.12,1151.73 1063.62,1157.56 1071,1171.5C 1075.16,1178.82 1078.49,1186.48 1081,1194.5C 1081.13,1226.11 1078.13,1257.44 1072,1288.5C 1065.18,1326.79 1056.01,1364.45 1044.5,1401.5C 1025.9,1403.84 1007.23,1405.01 988.5,1405C 981.543,1395.52 972.543,1389.02 961.5,1385.5C 961.33,1386.82 961.663,1387.99 962.5,1389C 970.917,1393.21 978.25,1398.88 984.5,1406C 975.023,1407.58 966.023,1406.25 957.5,1402C 951.559,1392.46 944.226,1384.13 935.5,1377C 941.548,1376.18 947.214,1377.35 952.5,1380.5C 965.236,1326.5 977.236,1272.17 988.5,1217.5C 987.178,1217.33 986.011,1217.66 985,1218.5C 983.67,1223.48 982.504,1228.48 981.5,1233.5 Z"/></g>
<g><path style="opacity:0.312" fill="#faf9fc" d="M 108.5,1128.5 C 111,1131.49 113,1134.83 114.5,1138.5C 111.498,1135.84 109.498,1132.51 108.5,1128.5 Z"/></g>
<g><path style="opacity:1" fill="#835dc1" d="M 1401.5,1224.5 C 1393.94,1229.58 1388.77,1236.58 1386,1245.5C 1381.53,1262.37 1377.53,1279.37 1374,1296.5C 1369.79,1312.76 1361.63,1326.59 1349.5,1338C 1339.33,1345.28 1328,1349.61 1315.5,1351C 1299.05,1352.07 1282.72,1351.24 1266.5,1348.5C 1255.74,1331.06 1249.24,1312.06 1247,1291.5C 1245.99,1290.66 1244.82,1290.33 1243.5,1290.5C 1244.95,1309.96 1250.28,1328.29 1259.5,1345.5C 1258.9,1346.14 1258.07,1346.47 1257,1346.5C 1238.46,1341.26 1219.63,1340.09 1200.5,1343C 1182.11,1345.87 1164.45,1351.04 1147.5,1358.5C 1134.03,1323.44 1133.2,1288.11 1145,1252.5C 1149.01,1239.64 1153.51,1226.98 1158.5,1214.5C 1156.98,1211.94 1155.48,1211.94 1154,1214.5C 1146.11,1234 1139.94,1254 1135.5,1274.5C 1131.78,1283.37 1129.28,1292.7 1128,1302.5C 1125.24,1331.66 1121.41,1360.66 1116.5,1389.5C 1111.83,1389.5 1107.17,1389.5 1102.5,1389.5C 1105.53,1350.72 1109.7,1312.05 1115,1273.5C 1117.51,1255.41 1120.51,1237.41 1124,1219.5C 1128.57,1204.28 1137.07,1191.78 1149.5,1182C 1173.17,1165.77 1199.34,1155.6 1228,1151.5C 1235.87,1154.79 1244.04,1157.29 1252.5,1159C 1272.28,1160.21 1291.95,1159.21 1311.5,1156C 1325.61,1152.81 1339.61,1149.31 1353.5,1145.5C 1374.93,1146.31 1396.26,1148.14 1417.5,1151C 1437.07,1154.87 1454.24,1163.37 1469,1176.5C 1479.6,1188.45 1484.76,1202.45 1484.5,1218.5C 1484.09,1235 1482.26,1251.33 1479,1267.5C 1465.92,1331.22 1447.92,1393.55 1425,1454.5C 1414.39,1462.26 1402.56,1466.42 1389.5,1467C 1393.15,1462.06 1395.65,1456.56 1397,1450.5C 1400.83,1421.16 1389.66,1399.83 1363.5,1386.5C 1375.33,1341.16 1387.17,1295.83 1399,1250.5C 1401.65,1240.25 1403.81,1229.91 1405.5,1219.5C 1402.53,1219.75 1401.2,1221.41 1401.5,1224.5 Z"/></g>
<g><path style="opacity:1" fill="#2b343f" d="M 1365.5,1154.5 C 1366.83,1154.5 1368.17,1154.5 1369.5,1154.5C 1369.67,1155.82 1369.34,1156.99 1368.5,1158C 1360.5,1161.94 1352.17,1164.78 1343.5,1166.5C 1343.33,1165.18 1343.66,1164.01 1344.5,1163C 1351.8,1160.63 1358.8,1157.8 1365.5,1154.5 Z"/></g>
<g><path style="opacity:1" fill="#2b343f" d="M 1220.5,1163.5 C 1233.18,1171.67 1247.18,1176.17 1262.5,1177C 1273.53,1177.67 1284.53,1177.33 1295.5,1176C 1304.07,1173.85 1312.74,1172.35 1321.5,1171.5C 1321.5,1172.5 1321.5,1173.5 1321.5,1174.5C 1301.16,1179.81 1280.5,1181.98 1259.5,1181C 1245.36,1180 1232.53,1175.5 1221,1167.5C 1220.51,1166.21 1220.34,1164.87 1220.5,1163.5 Z"/></g>
<g><path style="opacity:0.312" fill="#fafafc" d="M 130.5,1164.5 C 133.579,1167.65 135.913,1171.32 137.5,1175.5C 134.421,1172.35 132.087,1168.68 130.5,1164.5 Z"/></g>
<g><path style="opacity:1" fill="#835dc1" d="M 92.5,1244.5 C 92.3284,1245.49 92.6618,1246.16 93.5,1246.5C 95.6924,1253.91 98.1924,1261.24 101,1268.5C 103.255,1276.44 105.255,1284.44 107,1292.5C 110.616,1274.49 116.116,1257.16 123.5,1240.5C 131.434,1225.64 141.1,1211.98 152.5,1199.5C 157.814,1195.19 163.148,1190.86 168.5,1186.5C 170.305,1196.63 171.638,1206.96 172.5,1217.5C 171.559,1219.05 170.893,1220.72 170.5,1222.5C 152.696,1257.24 139.029,1293.58 129.5,1331.5C 113.5,1332.83 97.5,1332.83 81.5,1331.5C 80.4623,1324.02 78.7956,1316.68 76.5,1309.5C 72.0611,1286.85 65.0611,1265.19 55.5,1244.5C 45.0964,1214.5 28.763,1188.34 6.5,1166C 23.2894,1170.56 38.2894,1178.56 51.5,1190C 68.8757,1205.52 82.5423,1223.69 92.5,1244.5 Z"/></g>
<g><path style="opacity:0.334" fill="#faf9fc" d="M 145.5,1187.5 C 148.605,1190.27 150.938,1193.61 152.5,1197.5C 149.395,1194.73 147.062,1191.39 145.5,1187.5 Z"/></g>
<g><path style="opacity:1" fill="#29333c" d="M 696.5,1250.5 C 695.883,1250.39 695.383,1250.06 695,1249.5C 694.9,1236.84 695.066,1224.17 695.5,1211.5C 695.684,1208.83 696.851,1208.16 699,1209.5C 699.067,1222.83 698.734,1236.16 698,1249.5C 697.617,1250.06 697.117,1250.39 696.5,1250.5 Z"/></g>
<g><path style="opacity:1" fill="#5d4288" d="M 695.5,1211.5 C 695.066,1224.17 694.9,1236.84 695,1249.5C 695.383,1250.06 695.883,1250.39 696.5,1250.5C 696.5,1254.83 696.5,1259.17 696.5,1263.5C 695.504,1263.41 694.671,1263.75 694,1264.5C 692.62,1308.83 691.453,1353.16 690.5,1397.5C 689.549,1398.92 689.216,1400.59 689.5,1402.5C 684.5,1402.5 679.5,1402.5 674.5,1402.5C 667.374,1400.97 660.374,1398.97 653.5,1396.5C 656.061,1394.39 657.894,1391.73 659,1388.5C 658.368,1371.68 658.534,1355.01 659.5,1338.5C 659.333,1350.84 659.5,1363.17 660,1375.5C 663.175,1362.29 665.841,1348.96 668,1335.5C 671.714,1303.84 675.381,1272.17 679,1240.5C 680.415,1233.5 682.748,1226.84 686,1220.5C 688.379,1216.62 691.546,1213.62 695.5,1211.5 Z"/></g>
<g><path style="opacity:1" fill="#c8c3d6" d="M 172.5,1217.5 C 173.468,1219.61 173.802,1221.94 173.5,1224.5C 172.5,1223.83 171.5,1223.17 170.5,1222.5C 170.893,1220.72 171.559,1219.05 172.5,1217.5 Z"/></g>
<g><path style="opacity:1" fill="#694a9a" d="M 1401.5,1224.5 C 1387.39,1277.29 1374.05,1330.29 1361.5,1383.5C 1354.21,1383.8 1346.88,1383.97 1339.5,1384C 1333.16,1386.17 1327.82,1389.84 1323.5,1395C 1274.58,1402.51 1225.41,1407.68 1176,1410.5C 1169.47,1410.41 1162.97,1410.08 1156.5,1409.5C 1156.67,1404.16 1156.5,1398.82 1156,1393.5C 1153.59,1381.7 1150.76,1370.03 1147.5,1358.5C 1164.45,1351.04 1182.11,1345.87 1200.5,1343C 1219.63,1340.09 1238.46,1341.26 1257,1346.5C 1258.07,1346.47 1258.9,1346.14 1259.5,1345.5C 1267.26,1357.76 1277.26,1367.93 1289.5,1376C 1291.65,1377.41 1293.98,1378.24 1296.5,1378.5C 1296.65,1377.45 1296.48,1376.45 1296,1375.5C 1283.77,1369.1 1273.94,1360.1 1266.5,1348.5C 1282.72,1351.24 1299.05,1352.07 1315.5,1351C 1328,1349.61 1339.33,1345.28 1349.5,1338C 1361.63,1326.59 1369.79,1312.76 1374,1296.5C 1377.53,1279.37 1381.53,1262.37 1386,1245.5C 1388.77,1236.58 1393.94,1229.58 1401.5,1224.5 Z"/></g>
<g><path style="opacity:0.994" fill="#7755af" d="M 55.5,1244.5 C 65.0611,1265.19 72.0611,1286.85 76.5,1309.5C 59.7345,1278.77 34.0679,1259.77 -0.5,1252.5C -0.5,1247.17 -0.5,1241.83 -0.5,1236.5C 19.091,1232.68 37.7576,1235.34 55.5,1244.5 Z"/></g>
<g><path style="opacity:1" fill="#2c363f" d="M 830.5,1237.5 C 841.099,1237.38 844.932,1242.38 842,1252.5C 835.912,1258.11 830.245,1257.78 825,1251.5C 823.025,1245.18 824.858,1240.51 830.5,1237.5 Z"/></g>
<g><path style="opacity:1" fill="#654993" d="M 981.5,1233.5 C 979.442,1242.84 977.275,1252.18 975,1261.5C 974.501,1256.18 974.334,1250.84 974.5,1245.5C 976.346,1241.13 978.679,1237.13 981.5,1233.5 Z"/></g>
<g><path style="opacity:1" fill="#f4f4f5" d="M 830.5,1241.5 C 839.274,1241.41 841.274,1244.91 836.5,1252C 831.608,1253.69 828.608,1252.02 827.5,1247C 828.124,1244.91 829.124,1243.08 830.5,1241.5 Z"/></g>
<g><path style="opacity:1" fill="#694a9a" d="M 970.5,1256.5 C 971.881,1263.45 972.381,1270.45 972,1277.5C 965.314,1309.57 958.314,1341.57 951,1373.5C 950.275,1374.06 949.442,1374.39 948.5,1374.5C 942.917,1373.1 937.25,1372.44 931.5,1372.5C 930.958,1366.02 928.958,1360.02 925.5,1354.5C 939.99,1321.53 954.99,1288.86 970.5,1256.5 Z"/></g>
<g><path style="opacity:1" fill="#805cbd" d="M 444.5,1266.5 C 449.916,1266.08 452.583,1268.58 452.5,1274C 447.273,1332.5 442.106,1391 437,1449.5C 436.333,1456.5 436.333,1463.5 437,1470.5C 438.26,1473.43 440.427,1475.26 443.5,1476C 474.167,1476.33 504.833,1476.67 535.5,1477C 539.867,1481.5 539.201,1485.17 533.5,1488C 497.833,1488.67 462.167,1488.67 426.5,1488C 425.333,1486.83 424.167,1485.67 423,1484.5C 428.702,1413.17 434.702,1341.84 441,1270.5C 442.376,1269.29 443.542,1267.96 444.5,1266.5 Z"/></g>
<g><path style="opacity:1" fill="#694a99" d="M 1135.5,1274.5 C 1132.2,1289.39 1131.7,1304.39 1134,1319.5C 1138.87,1342.67 1144.54,1365.67 1151,1388.5C 1152.42,1394.78 1152.76,1401.11 1152,1407.5C 1143.83,1402 1135.67,1396.5 1127.5,1391C 1123.79,1390.68 1120.12,1390.18 1116.5,1389.5C 1121.41,1360.66 1125.24,1331.66 1128,1302.5C 1129.28,1292.7 1131.78,1283.37 1135.5,1274.5 Z"/></g>
<g><path style="opacity:1" fill="#2a333d" d="M 1266.5,1348.5 C 1273.94,1360.1 1283.77,1369.1 1296,1375.5C 1296.48,1376.45 1296.65,1377.45 1296.5,1378.5C 1293.98,1378.24 1291.65,1377.41 1289.5,1376C 1277.26,1367.93 1267.26,1357.76 1259.5,1345.5C 1250.28,1328.29 1244.95,1309.96 1243.5,1290.5C 1244.82,1290.33 1245.99,1290.66 1247,1291.5C 1249.24,1312.06 1255.74,1331.06 1266.5,1348.5 Z"/></g>
<g><path style="opacity:1" fill="#7c5ab7" d="M 1068.5,1334.5 C 1071.29,1334.45 1073.13,1335.79 1074,1338.5C 1074.17,1341.16 1074.01,1343.82 1073.5,1346.5C 1075.2,1346.03 1076.7,1346.03 1078,1346.5C 1079.17,1350 1080.33,1353.5 1081.5,1357C 1079.02,1359.06 1076.19,1360.56 1073,1361.5C 1069.1,1352.79 1067.6,1343.79 1068.5,1334.5 Z"/></g>
<g><path style="opacity:1" fill="#a1a6a9" d="M 37.5,1336.5 C 37.5,1343.17 37.5,1349.83 37.5,1356.5C 39.099,1356.23 40.4324,1356.57 41.5,1357.5C 39.8333,1357.5 38.1667,1357.5 36.5,1357.5C 36.1755,1350.31 36.5088,1343.31 37.5,1336.5 Z"/></g>
<g><path style="opacity:1" fill="#fefefe" d="M 37.5,1336.5 C 83.1667,1336.5 128.833,1336.5 174.5,1336.5C 174.5,1343.17 174.5,1349.83 174.5,1356.5C 172.833,1356.5 171.167,1356.5 169.5,1356.5C 169.5,1387.17 169.5,1417.83 169.5,1448.5C 167.04,1470.8 154.707,1483.96 132.5,1488C 114.167,1488.67 95.8333,1488.67 77.5,1488C 57.8803,1483.38 46.047,1471.21 42,1451.5C 41.5,1420.17 41.3334,1388.84 41.5,1357.5C 40.4324,1356.57 39.099,1356.23 37.5,1356.5C 37.5,1349.83 37.5,1343.17 37.5,1336.5 Z"/></g>
<g><path style="opacity:1" fill="#eeefef" d="M 908.5,1359.5 C 908.795,1361.74 908.461,1363.74 907.5,1365.5C 906.952,1363.61 905.952,1361.94 904.5,1360.5C 891.01,1354.87 891.343,1353.37 905.5,1356C 906.71,1357.04 907.71,1358.21 908.5,1359.5 Z"/></g>
<g><path style="opacity:1" fill="#646d71" d="M 113.5,1356.5 C 95.5,1356.5 77.5,1356.5 59.5,1356.5C 59.5,1357.5 59.5,1358.5 59.5,1359.5C 58.5655,1358.43 58.2322,1357.1 58.5,1355.5C 77.0076,1355.17 95.3409,1355.5 113.5,1356.5 Z"/></g>
<g><path style="opacity:1" fill="#687175" d="M 151.5,1356.5 C 145.5,1356.5 139.5,1356.5 133.5,1356.5C 133.5,1357.5 133.5,1358.5 133.5,1359.5C 132.566,1358.43 132.232,1357.1 132.5,1355.5C 139.022,1355.18 145.355,1355.51 151.5,1356.5 Z"/></g>
<g><path style="opacity:1" fill="#253237" d="M 113.5,1356.5 C 113.5,1357.5 113.5,1358.5 113.5,1359.5C 95.5,1359.5 77.5,1359.5 59.5,1359.5C 59.5,1358.5 59.5,1357.5 59.5,1356.5C 77.5,1356.5 95.5,1356.5 113.5,1356.5 Z"/></g>
<g><path style="opacity:1" fill="#253237" d="M 151.5,1356.5 C 151.5,1357.5 151.5,1358.5 151.5,1359.5C 145.5,1359.5 139.5,1359.5 133.5,1359.5C 133.5,1358.5 133.5,1357.5 133.5,1356.5C 139.5,1356.5 145.5,1356.5 151.5,1356.5 Z"/></g>
<g><path style="opacity:1" fill="#e9eaeb" d="M 881.5,1356.5 C 891.124,1354.93 896.791,1359.09 898.5,1369C 898.296,1372.28 897.296,1375.28 895.5,1378C 892.169,1377.81 891.669,1376.31 894,1373.5C 895.494,1368.47 894.327,1364.31 890.5,1361C 887.004,1360.34 884.004,1358.84 881.5,1356.5 Z"/></g>
<g><path style="opacity:1" fill="#747c80" d="M 174.5,1356.5 C 173.432,1357.43 172.099,1357.77 170.5,1357.5C 170.831,1388 170.498,1418.34 169.5,1448.5C 169.5,1417.83 169.5,1387.17 169.5,1356.5C 171.167,1356.5 172.833,1356.5 174.5,1356.5 Z"/></g>
<g><path style="opacity:1" fill="#e9ebeb" d="M 868.5,1358.5 C 879.975,1356.68 885.475,1361.68 885,1373.5C 884.722,1377.13 882.888,1379.13 879.5,1379.5C 882.867,1372.87 881.867,1367.03 876.5,1362C 873.435,1361.63 870.768,1360.47 868.5,1358.5 Z"/></g>
<g><path style="opacity:1" fill="#2c363f" d="M 824.5,1358.5 C 835.358,1358.19 839.191,1363.19 836,1373.5C 829.543,1379.29 823.876,1378.62 819,1371.5C 818.333,1368.83 818.333,1366.17 819,1363.5C 820.73,1361.6 822.563,1359.93 824.5,1358.5 Z"/></g>
<g><path style="opacity:1" fill="#e5e6e7" d="M 853.5,1358.5 C 868.083,1358.33 873.583,1365.33 870,1379.5C 868.388,1382.08 866.888,1382.08 865.5,1379.5C 868.957,1373.04 867.957,1367.54 862.5,1363C 853.807,1360.55 849.14,1363.72 848.5,1372.5C 847.178,1372.33 846.011,1372.66 845,1373.5C 843.98,1369.29 844.98,1365.62 848,1362.5C 850.015,1361.3 851.849,1359.97 853.5,1358.5 Z"/></g>
<g><path style="opacity:1" fill="#cfd1d3" d="M 908.5,1352.5 C 918.097,1351.95 923.597,1356.29 925,1365.5C 922.861,1362.06 920.361,1358.89 917.5,1356C 915.167,1355.67 912.833,1355.33 910.5,1355C 909.244,1354.58 908.577,1353.75 908.5,1352.5 Z"/></g>
<g><path style="opacity:1" fill="#fcfcfc" d="M 913.5,1358.5 C 915.017,1358.51 916.184,1359.18 917,1360.5C 922.57,1370.74 930.237,1379.07 940,1385.5C 945.832,1392.51 951.166,1399.84 956,1407.5C 956.873,1407.26 957.707,1406.93 958.5,1406.5C 961.287,1408.23 964.287,1409.39 967.5,1410C 972.5,1410.17 977.5,1410.33 982.5,1410.5C 1006.22,1409.04 1029.88,1407.21 1053.5,1405C 1058.08,1411.05 1060.91,1417.88 1062,1425.5C 1062.67,1432.17 1062.67,1438.83 1062,1445.5C 1059.6,1449.63 1057.76,1453.97 1056.5,1458.5C 1026.84,1454.65 997.168,1450.65 967.5,1446.5C 958.67,1449 949.67,1450.67 940.5,1451.5C 939.752,1445.18 939.086,1438.85 938.5,1432.5C 938.454,1429.33 939.454,1426.66 941.5,1424.5C 936.089,1419.34 931.922,1413.34 929,1406.5C 927.893,1401.52 926.893,1396.52 926,1391.5C 923.385,1387.22 920.385,1383.22 917,1379.5C 913.41,1372.83 912.243,1365.83 913.5,1358.5 Z"/></g>
<g><path style="opacity:1" fill="#f5f6f6" d="M 824.5,1362.5 C 833.865,1361.94 835.865,1365.44 830.5,1373C 822.469,1373.08 820.469,1369.58 824.5,1362.5 Z"/></g>
<g><path style="opacity:1" fill="#6f777b" d="M 908.5,1359.5 C 909.473,1361.95 909.806,1364.61 909.5,1367.5C 909.167,1367.5 908.833,1367.5 908.5,1367.5C 908.167,1366.83 907.833,1366.17 907.5,1365.5C 908.461,1363.74 908.795,1361.74 908.5,1359.5 Z"/></g>
<g><path style="opacity:1" fill="#cdd0d1" d="M 857.5,1366.5 C 858.833,1366.5 860.167,1366.5 861.5,1366.5C 861.5,1368.17 861.5,1369.83 861.5,1371.5C 860.167,1371.5 858.833,1371.5 857.5,1371.5C 857.5,1369.83 857.5,1368.17 857.5,1366.5 Z"/></g>
<g><path style="opacity:1" fill="#dfe1e2" d="M 908.5,1367.5 C 908.833,1367.5 909.167,1367.5 909.5,1367.5C 910.008,1370.18 910.175,1372.84 910,1375.5C 908.989,1376.34 907.822,1376.67 906.5,1376.5C 907.167,1373.5 907.833,1370.5 908.5,1367.5 Z"/></g>
<g><path style="opacity:1" fill="#5d4c88" d="M 852.5,1369.5 C 853.776,1370.39 853.776,1371.39 852.5,1372.5C 851.438,1371.58 851.438,1370.58 852.5,1369.5 Z"/></g>
<g><path style="opacity:1" fill="#7f5cbc" d="M 1083.5,1376.5 C 1085.14,1376.29 1086.64,1376.62 1088,1377.5C 1089.4,1382.53 1090.9,1387.53 1092.5,1392.5C 1090.95,1396.39 1088.61,1399.72 1085.5,1402.5C 1082.75,1394.59 1080.42,1386.59 1078.5,1378.5C 1080.55,1378.6 1082.22,1377.93 1083.5,1376.5 Z"/></g>
<g><path style="opacity:1" fill="#fafafa" d="M 859.5,1375.5 C 860.552,1375.35 861.552,1375.52 862.5,1376C 860.839,1381.04 862.673,1384.2 868,1385.5C 868.833,1385.33 869.667,1385.17 870.5,1385C 871.64,1383.03 872.973,1381.19 874.5,1379.5C 880.236,1386.75 884.736,1386.08 888,1377.5C 889.947,1381.56 893.114,1383.06 897.5,1382C 898.64,1380.03 899.973,1378.19 901.5,1376.5C 903.784,1379.66 906.784,1381.16 910.5,1381C 911,1380.5 911.5,1380 912,1379.5C 914.63,1383.13 917.63,1386.47 921,1389.5C 922.667,1396.17 924.333,1402.83 926,1409.5C 927.815,1413.8 930.148,1417.8 933,1421.5C 935.289,1436.76 936.789,1452.1 937.5,1467.5C 914.858,1470.05 892.192,1472.39 869.5,1474.5C 866.606,1441.45 863.273,1408.45 859.5,1375.5 Z"/></g>
<g><path style="opacity:1" fill="#2c3541" d="M 1373.5,1383.5 C 1387.84,1386.58 1399.01,1394.25 1407,1406.5C 1409.03,1409.56 1410.2,1412.89 1410.5,1416.5C 1409.18,1416.67 1408.01,1416.34 1407,1415.5C 1400.45,1400.62 1389.28,1391.12 1373.5,1387C 1372.32,1385.85 1372.32,1384.69 1373.5,1383.5 Z"/></g>
<g><path style="opacity:1" fill="#684a99" d="M 1339.5,1387.5 C 1365.23,1387.38 1382.73,1399.38 1392,1423.5C 1396.12,1437.06 1394.79,1450.06 1388,1462.5C 1379.58,1471.06 1369.42,1473.89 1357.5,1471C 1356.57,1470.61 1355.91,1469.95 1355.5,1469C 1367.06,1442.99 1362.06,1420.66 1340.5,1402C 1336.47,1399.98 1332.47,1397.98 1328.5,1396C 1331.51,1392.18 1335.18,1389.34 1339.5,1387.5 Z"/></g>
<g><path style="opacity:1" fill="#825dbf" d="M 828.5,1390.5 C 830.924,1390.19 833.257,1390.53 835.5,1391.5C 834.923,1393.11 834.59,1394.77 834.5,1396.5C 836.77,1402.94 837.937,1409.61 838,1416.5C 840.422,1421.94 842.088,1427.6 843,1433.5C 843.972,1435.3 845.139,1436.97 846.5,1438.5C 840.823,1446.18 838.656,1454.85 840,1464.5C 841.726,1465.58 843.559,1465.74 845.5,1465C 848.057,1462.11 850.224,1458.94 852,1455.5C 853.424,1459.3 853.924,1463.3 853.5,1467.5C 839.722,1467.18 826.055,1465.85 812.5,1463.5C 815.948,1451.32 816.448,1438.98 814,1426.5C 811.355,1416.1 808.521,1405.77 805.5,1395.5C 813.452,1394.57 821.119,1392.9 828.5,1390.5 Z"/></g>
<g><path style="opacity:1" fill="#f3f4f4" d="M 841.5,1389.5 C 844.099,1389.55 846.266,1390.55 848,1392.5C 849.199,1395.73 849.699,1399.06 849.5,1402.5C 847.801,1402.34 846.134,1402.51 844.5,1403C 843.978,1403.56 843.645,1404.23 843.5,1405C 846.851,1406.92 849.685,1409.42 852,1412.5C 853.079,1415.06 853.579,1417.73 853.5,1420.5C 851.473,1420.34 849.473,1420.5 847.5,1421C 847.043,1421.41 846.709,1421.91 846.5,1422.5C 849.518,1424.26 852.018,1426.6 854,1429.5C 854.977,1431.74 855.477,1434.07 855.5,1436.5C 852.253,1436.58 849.419,1435.58 847,1433.5C 846.43,1427.45 844.763,1421.78 842,1416.5C 841.667,1412.5 841.333,1408.5 841,1404.5C 837.623,1399.21 837.79,1394.21 841.5,1389.5 Z"/></g>
<g><path style="opacity:1" fill="#343f44" d="M 887.5,1390.5 C 890.833,1390.5 894.167,1390.5 897.5,1390.5C 897.67,1391.82 897.337,1392.99 896.5,1394C 887.215,1395.45 877.882,1396.28 868.5,1396.5C 868.33,1395.18 868.663,1394.01 869.5,1393C 875.721,1392.73 881.721,1391.9 887.5,1390.5 Z"/></g>
<g><path style="opacity:1" fill="#5c4186" d="M 786.5,1391.5 C 789.518,1391.34 792.518,1391.5 795.5,1392C 797.521,1392.51 799.021,1393.68 800,1395.5C 809.247,1414.82 812.914,1435.16 811,1456.5C 807.867,1466.65 801.034,1470.49 790.5,1468C 788.99,1467.15 787.49,1466.32 786,1465.5C 779.183,1468.39 774.849,1466.39 773,1459.5C 774.427,1440.31 771.594,1421.81 764.5,1404C 767.102,1395.06 772.935,1391.56 782,1393.5C 783.876,1393.48 785.376,1392.81 786.5,1391.5 Z"/></g>
<g><path style="opacity:1" fill="#674a98" d="M 1060.5,1391.5 C 1071.52,1389.67 1078.52,1394.17 1081.5,1405C 1079.25,1407.39 1077.09,1409.89 1075,1412.5C 1074.83,1413.83 1074.67,1415.17 1074.5,1416.5C 1075.92,1421.71 1076.76,1427.04 1077,1432.5C 1080.17,1438.34 1082.67,1444.5 1084.5,1451C 1081.16,1464.42 1073.33,1467.92 1061,1461.5C 1060.33,1459.83 1060.33,1458.17 1061,1456.5C 1067.27,1443.67 1068.27,1430.33 1064,1416.5C 1061.98,1410.3 1058.82,1404.8 1054.5,1400C 1053.17,1399.33 1051.83,1398.67 1050.5,1398C 1053.73,1395.56 1057.06,1393.39 1060.5,1391.5 Z"/></g>
<g><path style="opacity:1" fill="#fdfdfd" d="M 1097.5,1393.5 C 1106.88,1393.18 1116.22,1393.68 1125.5,1395C 1134.77,1400.61 1143.77,1406.61 1152.5,1413C 1166.81,1414.41 1181.14,1414.74 1195.5,1414C 1237.12,1410.09 1278.62,1405.26 1320,1399.5C 1333.36,1400.53 1343.36,1406.86 1350,1418.5C 1359.03,1434.4 1359.87,1450.74 1352.5,1467.5C 1335.8,1467.42 1319.13,1466.59 1302.5,1465C 1257.59,1459.66 1212.59,1455.16 1167.5,1451.5C 1152.88,1454.04 1138.22,1456.54 1123.5,1459C 1114.86,1460.25 1106.19,1460.58 1097.5,1460C 1093.71,1457.6 1091.54,1454.1 1091,1449.5C 1086.86,1446.23 1084.53,1441.9 1084,1436.5C 1079.8,1432.81 1078.63,1428.31 1080.5,1423C 1078.75,1420.02 1078.25,1416.85 1079,1413.5C 1086.36,1407.97 1092.53,1401.3 1097.5,1393.5 Z"/></g>
<g><path style="opacity:1" fill="#354046" d="M 913.5,1399.5 C 916.187,1399.34 918.854,1399.5 921.5,1400C 921.957,1400.41 922.291,1400.91 922.5,1401.5C 919.78,1403.11 916.78,1403.94 913.5,1404C 899.094,1405.53 884.928,1407.03 871,1408.5C 870.51,1407.21 870.343,1405.87 870.5,1404.5C 885.005,1403.1 899.339,1401.43 913.5,1399.5 Z"/></g>
<g><path style="opacity:1" fill="#fdfdfd" d="M 445.5,1400.5 C 471.354,1400.94 497.188,1401.94 523,1403.5C 528.427,1403.53 533.761,1402.87 539,1401.5C 539.5,1401.83 540,1402.17 540.5,1402.5C 534.4,1411.78 528.9,1421.45 524,1431.5C 522.025,1435.96 521.192,1440.63 521.5,1445.5C 510.828,1445.33 500.161,1445.5 489.5,1446C 475.239,1450.42 461.239,1455.42 447.5,1461C 445.19,1461.5 442.857,1461.66 440.5,1461.5C 440.802,1456.79 441.468,1452.12 442.5,1447.5C 452.188,1444.16 461.521,1439.99 470.5,1435C 474.056,1432.95 476.723,1430.11 478.5,1426.5C 478.069,1424.23 476.736,1422.73 474.5,1422C 464.55,1420.67 454.55,1420.17 444.5,1420.5C 444.954,1413.84 445.287,1407.17 445.5,1400.5 Z"/></g>
<g><path style="opacity:1" fill="#e2e3e4" d="M 546.5,1400.5 C 547.873,1400.34 549.207,1400.51 550.5,1401C 543.273,1411.23 536.44,1421.73 530,1432.5C 528.268,1436.36 526.934,1440.36 526,1444.5C 525.299,1441.07 525.632,1437.74 527,1434.5C 532.248,1422.32 538.748,1410.99 546.5,1400.5 Z"/></g>
<g><path style="opacity:1" fill="#f5f6f6" d="M 555.5,1400.5 C 559.884,1400.17 564.217,1400.51 568.5,1401.5C 559.523,1412.98 550.356,1424.31 541,1435.5C 536.788,1441.04 533.454,1447.04 531,1453.5C 529.035,1448.14 529.368,1442.81 532,1437.5C 538.873,1424.48 546.706,1412.15 555.5,1400.5 Z"/></g>
<g><path style="opacity:1" fill="#fbfbfb" d="M 573.5,1400.5 C 599.502,1400.33 625.502,1400.5 651.5,1401C 658.335,1402.04 665.001,1403.71 671.5,1406C 701.498,1406.5 731.498,1406.67 761.5,1406.5C 764.108,1414.7 766.275,1423.03 768,1431.5C 768.5,1438.83 768.666,1446.16 768.5,1453.5C 752.72,1451.21 736.887,1449.21 721,1447.5C 691.735,1455.14 663.568,1452.31 636.5,1439C 622.496,1437.97 608.829,1439.63 595.5,1444C 589.792,1449.38 583.792,1454.38 577.5,1459C 574.794,1460.91 571.794,1461.74 568.5,1461.5C 571.236,1452.87 575.902,1445.37 582.5,1439C 592.975,1432.43 603.975,1426.93 615.5,1422.5C 615.5,1421.17 615.5,1419.83 615.5,1418.5C 603.482,1418.17 591.482,1418.5 579.5,1419.5C 569.651,1430.18 559.318,1440.35 548.5,1450C 544.61,1452.95 540.277,1454.78 535.5,1455.5C 536.64,1449.55 539.14,1444.22 543,1439.5C 553.381,1426.62 563.548,1413.62 573.5,1400.5 Z"/></g>
<g><path style="opacity:1" fill="#403a5e" d="M 690.5,1397.5 C 690.5,1399.5 690.5,1401.5 690.5,1403.5C 684.974,1403.82 679.64,1403.49 674.5,1402.5C 679.5,1402.5 684.5,1402.5 689.5,1402.5C 689.216,1400.59 689.549,1398.92 690.5,1397.5 Z"/></g>
<g><path style="opacity:1" fill="#514677" d="M 694.5,1397.5 C 694.5,1399.17 694.5,1400.83 694.5,1402.5C 716.908,1402.82 739.242,1402.49 761.5,1401.5C 739.191,1403.49 716.525,1404.16 693.5,1403.5C 693.205,1401.26 693.539,1399.26 694.5,1397.5 Z"/></g>
<g><path style="opacity:1" fill="#343f45" d="M 887.5,1413.5 C 891.182,1413.33 894.848,1413.5 898.5,1414C 899.833,1415 899.833,1416 898.5,1417C 889.531,1418.23 880.531,1419.06 871.5,1419.5C 871.33,1418.18 871.663,1417.01 872.5,1416C 877.706,1415.56 882.706,1414.73 887.5,1413.5 Z"/></g>
<g><path style="opacity:1" fill="#f8f8f8" d="M 577.5,1438.5 C 573.958,1438.81 570.625,1438.48 567.5,1437.5C 572.663,1433.17 577.33,1428.34 581.5,1423C 585.486,1422.5 589.486,1422.33 593.5,1422.5C 593.799,1424.6 593.466,1426.6 592.5,1428.5C 586.955,1431.1 581.955,1434.43 577.5,1438.5 Z"/></g>
<g><path style="opacity:1" fill="#594082" d="M 597.5,1422.5 C 604.861,1422.08 605.194,1423.08 598.5,1425.5C 597.614,1424.68 597.281,1423.68 597.5,1422.5 Z"/></g>
<g><path style="opacity:1" fill="#343f45" d="M 904.5,1423.5 C 908.5,1423.5 912.5,1423.5 916.5,1423.5C 916.64,1425.12 915.973,1426.29 914.5,1427C 900.543,1428.76 886.543,1429.93 872.5,1430.5C 872.33,1429.18 872.663,1428.01 873.5,1427C 884.016,1426.14 894.35,1424.97 904.5,1423.5 Z"/></g>
<g><path style="opacity:1" fill="#28323b" d="M 789.5,1425.5 C 790.822,1425.33 791.989,1425.66 793,1426.5C 794.793,1436.48 794.96,1446.48 793.5,1456.5C 792.167,1456.5 790.833,1456.5 789.5,1456.5C 790.771,1446.16 790.771,1435.83 789.5,1425.5 Z"/></g>
<g><path style="opacity:1" fill="#7e5bba" d="M 851.5,1375.5 C 852.833,1375.5 854.167,1375.5 855.5,1375.5C 859.05,1408.8 862.383,1442.14 865.5,1475.5C 863.167,1475.5 860.833,1475.5 858.5,1475.5C 857.302,1463.85 856.302,1452.19 855.5,1440.5C 858.734,1440.76 860.068,1439.26 859.5,1436C 859.065,1431.86 857.731,1428.03 855.5,1424.5C 857.466,1421.45 857.966,1418.12 857,1414.5C 855.38,1411.42 853.88,1408.26 852.5,1405C 854.163,1399.14 853.33,1393.64 850,1388.5C 849.762,1384.78 849.262,1381.11 848.5,1377.5C 849.602,1376.82 850.602,1376.16 851.5,1375.5 Z"/></g>
<g><path style="opacity:1" fill="#344045" d="M 890.5,1436.5 C 894.167,1436.5 897.833,1436.5 901.5,1436.5C 901.64,1438.12 900.973,1439.29 899.5,1440C 891.178,1441.18 882.845,1441.85 874.5,1442C 873.167,1441 873.167,1440 874.5,1439C 879.956,1438.06 885.289,1437.22 890.5,1436.5 Z"/></g>
<g><path style="opacity:1" fill="#888f92" d="M 567.5,1437.5 C 570.625,1438.48 573.958,1438.81 577.5,1438.5C 573.981,1439.81 570.315,1439.81 566.5,1438.5C 566.624,1437.89 566.957,1437.56 567.5,1437.5 Z"/></g>
<g><path style="opacity:1" fill="#e8eaea" d="M 849.5,1440.5 C 850.748,1441.33 851.415,1442.67 851.5,1444.5C 850.204,1450.76 847.537,1456.43 843.5,1461.5C 842.848,1453.78 844.848,1446.78 849.5,1440.5 Z"/></g>
<g><path style="opacity:1" fill="#b9baba" d="M 616.5,1442.5 C 627.495,1441.06 637.828,1442.89 647.5,1448C 637.598,1450.71 627.598,1453.05 617.5,1455C 610.5,1458 603.5,1461 596.5,1464C 590.471,1464.46 584.471,1464.13 578.5,1463C 584.458,1458.71 590.124,1454.04 595.5,1449C 602.283,1445.75 609.283,1443.59 616.5,1442.5 Z"/></g>
<g><path style="opacity:1" fill="#343f44" d="M 921.5,1444.5 C 924.833,1444.5 928.167,1444.5 931.5,1444.5C 931.67,1445.82 931.337,1446.99 930.5,1448C 911.888,1450.46 893.221,1452.29 874.5,1453.5C 874.33,1452.18 874.663,1451.01 875.5,1450C 891.02,1448.49 906.353,1446.66 921.5,1444.5 Z"/></g>
<g><path style="opacity:1" fill="#694a99" d="M 1029.5,1485.5 C 980.044,1486.83 930.377,1487.5 880.5,1487.5C 830.999,1487.5 781.666,1487.17 732.5,1486.5C 732.665,1483.48 732.498,1480.48 732,1477.5C 730.891,1475.19 729.057,1473.69 726.5,1473C 714.48,1472.32 702.48,1471.49 690.5,1470.5C 690.916,1465.51 691.249,1460.51 691.5,1455.5C 699.268,1454.98 706.934,1453.82 714.5,1452C 731.898,1452.67 749.231,1454.34 766.5,1457C 768.456,1461.36 771.122,1465.36 774.5,1469C 778.094,1470.74 781.761,1470.91 785.5,1469.5C 790.075,1472.39 795.075,1473.22 800.5,1472C 804.407,1470.98 808.074,1469.48 811.5,1467.5C 825.736,1469.85 840.07,1471.18 854.5,1471.5C 852.74,1478.24 855.24,1480.91 862,1479.5C 875.6,1477.51 889.267,1476.18 903,1475.5C 928.843,1476.89 954.676,1476.72 980.5,1475C 996.784,1475.95 1010.12,1470.28 1020.5,1458C 1024.48,1458.02 1028.48,1458.18 1032.5,1458.5C 1032.16,1467.58 1031.16,1476.58 1029.5,1485.5 Z"/></g>
<g><path style="opacity:1" fill="#815cbe" d="M 964.5,1450.5 C 981.605,1452.19 998.605,1454.52 1015.5,1457.5C 1011.55,1462.48 1006.55,1465.98 1000.5,1468C 992.572,1469.77 984.572,1471.1 976.5,1472C 961.167,1472.67 945.833,1472.67 930.5,1472C 934.421,1471.8 938.255,1471.3 942,1470.5C 942.087,1465.51 941.92,1460.51 941.5,1455.5C 949.496,1454.78 957.163,1453.12 964.5,1450.5 Z"/></g>
<g><path style="opacity:1" fill="#684a98" d="M 1160.5,1455.5 C 1174.52,1456 1188.52,1456.83 1202.5,1458C 1257.14,1464.35 1311.64,1469.85 1366,1474.5C 1377.43,1472.81 1388.93,1471.31 1400.5,1470C 1407.89,1468.04 1414.89,1465.2 1421.5,1461.5C 1421.83,1462.67 1422.17,1463.83 1422.5,1465C 1421.28,1472.49 1420.11,1479.99 1419,1487.5C 1328.9,1488.5 1238.74,1488.83 1148.5,1488.5C 1150.8,1478.27 1152.47,1467.94 1153.5,1457.5C 1156.07,1457.28 1158.4,1456.61 1160.5,1455.5 Z"/></g>
<g><path style="opacity:1" fill="#374248" d="M 896.5,1458.5 C 899.167,1458.5 901.833,1458.5 904.5,1458.5C 904.5,1459.83 904.5,1461.17 904.5,1462.5C 895.169,1463.5 885.836,1464.5 876.5,1465.5C 876.5,1464.17 876.5,1462.83 876.5,1461.5C 883.386,1461.07 890.053,1460.07 896.5,1458.5 Z"/></g>
<g><path style="opacity:1" fill="#644992" d="M 1087.5,1454.5 C 1089.59,1458.43 1092.59,1461.59 1096.5,1464C 1102.17,1464.67 1107.83,1464.67 1113.5,1464C 1125.49,1462.3 1137.49,1460.8 1149.5,1459.5C 1150.55,1463.83 1148.88,1466 1144.5,1466C 1124.64,1468.62 1104.97,1467.62 1085.5,1463C 1085.04,1462.59 1084.71,1462.09 1084.5,1461.5C 1085.79,1459.26 1086.79,1456.93 1087.5,1454.5 Z"/></g>
<g><path style="opacity:1" fill="#835dc0" d="M 554.5,1465.5 C 611.808,1469.53 669.141,1473.36 726.5,1477C 728.504,1479.84 729.004,1483.01 728,1486.5C 727.617,1487.06 727.117,1487.39 726.5,1487.5C 669.167,1487.5 611.833,1487.5 554.5,1487.5C 554.5,1480.17 554.5,1472.83 554.5,1465.5 Z"/></g>
<g><path style="opacity:1" fill="#56487e" d="M 554.5,1465.5 C 554.5,1472.83 554.5,1480.17 554.5,1487.5C 611.833,1487.5 669.167,1487.5 726.5,1487.5C 669.002,1488.5 611.336,1488.83 553.5,1488.5C 553.175,1480.65 553.508,1472.98 554.5,1465.5 Z"/></g>
<g><path style="opacity:1" fill="#483e6a" d="M 1029.5,1485.5 C 1029.5,1486.5 1029.5,1487.5 1029.5,1488.5C 930.164,1488.83 830.831,1488.5 731.5,1487.5C 731.624,1486.89 731.957,1486.56 732.5,1486.5C 781.666,1487.17 830.999,1487.5 880.5,1487.5C 930.377,1487.5 980.044,1486.83 1029.5,1485.5 Z"/></g>
</svg>
