<svg id="Layer_1" data-name="Layer 1" xmlns="http://www.w3.org/2000/svg" viewBox="0 0 3006.5 2000">
  <defs>
    <style>
      .cls-1 {
        fill: #e2b897;
      }

      .cls-2 {
        fill: #f8bd8c;
      }

      .cls-3 {
        fill: #31185e;
      }

      .cls-4 {
        fill: #2a1656;
      }

      .cls-5 {
        fill: #1d1647;
      }

      .cls-6 {
        fill: #eab186;
      }

      .cls-7 {
        fill: #1a1a1a;
      }

      .cls-8 {
        fill: #fcfcfc;
      }

      .cls-9 {
        fill: #666b6d;
      }

      .cls-10 {
        fill: #c5a2fd;
      }

      .cls-11 {
        fill: #f2b588;
      }

      .cls-12 {
        fill: #1b191b;
      }

      .cls-13 {
        fill: #9e4aff;
      }

      .cls-14 {
        fill: #2c2a30;
      }

      .cls-15 {
        fill: #755faa;
      }

      .cls-16 {
        fill: #ff7c90;
      }

      .cls-17 {
        fill: #b08174;
      }

      .cls-18 {
        fill: #fff;
      }

      .cls-19 {
        fill: #0b0635;
      }

      .cls-20 {
        fill: #ccdde7;
      }

      .cls-21 {
        fill: #dc4070;
      }

      .cls-22 {
        fill: #080305;
      }

      .cls-23 {
        fill: #231347;
      }

      .cls-24 {
        fill: #ababab;
      }

      .cls-25 {
        fill: #190444;
      }

      .cls-26 {
        fill: #8e8d8e;
      }

      .cls-27 {
        fill: #d1d1d3;
      }

      .cls-28 {
        fill: #999;
      }

      .cls-29 {
        fill: #333;
      }
    </style>
  </defs>
  <g>
    <path class="cls-1" d="M543.64,1836.22h-394l7-193.34.21-5.85,0-1.21,324-14.81,46.53-2.12,1.35,18,5.94,79.36v.11l2.15,28.83h0l.95,12.55Z"/>
    <path class="cls-1" d="M355.85,1836.22H149.46l3.7-196.49.08-3.91,3.54,1.21,37.76,13,93.82,32.22.15,0,62.14,21.35Z"/>
    <polygon class="cls-2" points="396.3 1126.19 283.05 1139.46 280.27 1063.21 280.08 1057.96 279.71 1047.93 372.37 1037.07 378.4 1036.37 383.46 1061.79 396.3 1126.19"/>
    <path class="cls-3" d="M265.61,1114.47s-132,55-135.62,66-18.33,42.15-18.33,42.15,64.15,155.79,47.65,208.94-5.49,141.12-5.49,168.61-11,38.49,9.16,45.82,86.14,3.66,122.79,0,111.8,1.13,128.3,4.23,115.46-13.4,115.46-13.4,12.83-69.64,9.16-104.46,1.32-117.3.66-130.13,6.28-18.33.06-49.48,24.94-201.61,24.94-201.61l-152.12-55.44Z"/>
    <g>
      <polygon class="cls-4" points="334.53 1108.04 315.5 1171.68 231.76 1129.43 252.06 1108.04 334.53 1108.04"/>
      <path class="cls-5" d="M316.42,1173.83l-87.14-44,22.13-23.32h85.13ZM234.23,1129l80.34,40.54,17.94-60H252.7Z"/>
    </g>
    <g>
      <polygon class="cls-4" points="318.2 1108.04 343.87 1171.68 439.39 1104.42 416.57 1079.83 318.2 1108.04"/>
      <path class="cls-5" d="M343.18,1174l-27-66.94,100.86-28.92,24.6,26.52Zm-23-65,24.33,60.35,92.57-65.19-21-22.65Z"/>
    </g>
    <path class="cls-3" d="M177,1153.38s56.38,21.83,51.22,242.94l205.38-47.15,25.18,104.06s-225.4,97.54-283.9,95.92-96.36-268.26-84.31-297.53,15.36-70.94,84.18-97Z"/>
    <polygon class="cls-2" points="444.44 1354.45 497.36 1334.65 484.23 1414.55 442.87 1416.62 433.81 1360.03 444.44 1354.45 444.44 1354.45"/>
    <polygon class="cls-2" points="279.45 1387.59 236.21 1397.56 234.48 1387.08 231.63 1369.7 234.59 1370.81 279.45 1387.59 279.45 1387.59"/>
    <path class="cls-3" d="M516.36,1164.87l-33.88,241.18-215.2-28.94-25.42,106.11s291.45,70.75,349,51.45,30.5-284.58,15.26-318.35-25.56-60.17-45.88-66.6-43.93,15.15-43.93,15.15Z"/>
    <path class="cls-6" d="M383.46,1061.79c-4.53,10.39-12.42,20-24.63,24.42-26.92,9.68-60.6-10.53-78.56-23l-.19-5.25c1.55.24,3.31.46,5.29.62,11.86,1,29.56.67,51.82-4.9,15.93-4,27.31-10.42,35.18-16.61l6-.7Z"/>
    <path class="cls-2" d="M396.58,937.93c4.94,62.47-24.58,115.89-70.45,119.52s-87.06-44.07-92-106.54,28.24-116.06,74.11-119.69S391.64,875.46,396.58,937.93Z"/>
    <path class="cls-7" d="M333.87,1075c-43.92,6.52-87-38.86-96.19-101.24-.88-6-1.39-12-1.68-17.82,10.26,60.63,52.63,104.25,95.74,97.87,39.59-5.86,66.27-51.9,64.36-106.67.23,1,.37,2.06.52,3.08C405.85,1012.57,377.78,1068.43,333.87,1075Z"/>
    <path class="cls-7" d="M268.67,799.85s-.52,46.43,11,53.15,24.78-5.5,35.28-7.33S346.73,842,361.61,855s27.66,50.79,27.66,50.79l3.26,12.68s8.71,2.19,9.62-9.72-1.52-61.86,0-66.75.92-9.77-4.58-15.27S385.05,812.68,387.19,809s11.3-13.13,2.44-21.38-51.62-13.44-59.57-6.11S292.49,760.75,268.67,799.85Z"/>
    <path class="cls-7" d="M260.57,803.36S218.88,807.94,218,844.6c0,0-5,8.25-15.12,21.53s1.83,35.74,4.58,49,8.4,24.28,8.1,28.25,7.32,11.61,14.2,8.56,8.4-11.21,8.4-11.21.61-51.72,8.25-60.88,20.62-18.17,28.1-22,9.17-11,9.17-11.92-9.47-51-9.47-51Z"/>
    <path class="cls-2" d="M251.4,960.4c5.74,11.81,3.63,24.67-4.71,28.73s-19.77-2.23-25.51-14-3.63-24.67,4.71-28.73S245.65,948.59,251.4,960.4Z"/>
    <path class="cls-2" d="M413.27,944.25c-1.5,13-10.19,22.76-19.41,21.7s-15.47-12.5-14-25.54,10.19-22.77,19.41-21.71S414.77,931.2,413.27,944.25Z"/>
    <path class="cls-7" d="M287.49,920.62a125.46,125.46,0,0,0-17.4,2.3c-5.65,1.19-11.32,2.88-15.55,5.51l-.21.13a4.76,4.76,0,0,1-5.13-8c6.13-4,12.42-5.88,18.66-7.44A133.44,133.44,0,0,1,286.81,910a5.32,5.32,0,0,1,1,10.6h-.31Z"/>
    <path class="cls-7" d="M282.64,943.31c.67,4.55-1.89,8.7-5.73,9.27s-7.5-2.66-8.17-7.21,1.89-8.71,5.73-9.28S282,938.76,282.64,943.31Z"/>
    <path class="cls-7" d="M335.92,914.83a125.43,125.43,0,0,1,17.47-1.7c5.77-.13,11.68.24,16.39,1.83l.24.08a4.76,4.76,0,0,0,3.17-9c-6.88-2.53-13.43-2.91-19.86-3a135.67,135.67,0,0,0-19.16,1.3,5.32,5.32,0,0,0,1.44,10.54l.14,0Z"/>
    <path class="cls-7" d="M345.79,935.83c.38,4.59,3.82,8,7.68,7.73s6.7-4.29,6.32-8.88-3.81-8-7.68-7.73S345.41,931.25,345.79,935.83Z"/>
    <path class="cls-7" d="M293.1,1046.43c2.41,1.64,10.8-.38,13.51-1,4.62-1,9.91-2.74,12.8-6.73,3.32-4.58,1.78-11.48,1.37-16.7-.12-1.49.13-5.61-1.1-6.84l12.22-1.84c-1.09.17,2.16,17.23,2.67,18.62,1.37,3.72,5.11,5.82,8.79,6.75a38,38,0,0,0,11.95.79c1-.07,10.43-.88,10.51-1.87a3.71,3.71,0,0,1-1.27,2.12,241.39,241.39,0,0,1-19.82,17.58s-32.38,2.75-33.3,1.83S293.14,1046.46,293.1,1046.43Z"/>
    <path class="cls-8" d="M353.4,1001.45c-4.25,7.55-13.27,13.85-24.63,16-15.1,2.93-29.18-2.2-34.6-11.73,0-.14.14-.29.29-.44a37.86,37.86,0,0,1,6-4.18l44.35-5.27C348.27,996.61,351.35,997.93,353.4,1001.45Z"/>
    <path class="cls-7" d="M290.23,1052.48c-1-9.24-3.59-38.8.27-47.6v-.6l1.32-1.49a40.85,40.85,0,0,1,6.88-4.85,55,55,0,0,1,25.83-7,96.94,96.94,0,0,1,15.6.53l1.24.15c1.43.17,2.84.34,4.24.65,3.55.75,8,2.27,11,7.3,3,5.2,4.35,10.82,5.61,16.26.33,1.4.65,2.8,1,4.18,2.11,8.46,2.77,15.62,2.06,22.54l-7.28-.75a57.55,57.55,0,0,0-1.89-20c-.36-1.42-.7-2.87-1-4.32-1.19-5.13-2.31-10-4.81-14.22-1.2-2.08-2.93-3.15-6.17-3.84a35.57,35.57,0,0,0-3.54-.53l-1.28-.15a90,90,0,0,0-14.41-.49,47.87,47.87,0,0,0-22.5,6,32,32,0,0,0-5.12,3.49l0,.08c-2.14,3.26-1.54,25.31.36,43.84Z"/>
    <path class="cls-7" d="M311.18,975.31a1,1,0,0,1-.47-1.88l7.88-4.19a6.16,6.16,0,0,0,3.55-6.16l-4-27.76a1,1,0,0,1,.85-1.13,1,1,0,0,1,1.13.84l4,27.77a8.1,8.1,0,0,1-4.59,8.2l-7.88,4.2A1,1,0,0,1,311.18,975.31Z"/>
    <path class="cls-9" d="M356.19,1799.7a2,2,0,0,1-2-2c-.78-33.11-2.81-86.9-5-92.65-7.27-4.34-43.16-15.54-61.42-20.95a2,2,0,1,1,1.13-3.83c2.22.65,54.34,16.12,62.82,21.64,1.32.86,3,1.93,4.94,49.45,1,23,1.51,46,1.51,46.24a2,2,0,0,1-1.95,2Zm-7.08-94.84Z"/>
    <path class="cls-5" d="M233.63,1399.56a1.94,1.94,0,0,1-1.17-.39,2,2,0,0,1-.82-1.52c-.29-6-8.3-100.94-8.39-101.9a2,2,0,1,1,4-.33c.31,3.64,7,83.57,8.23,99.58,11.2-3,59.35-15.82,78.61-19.63a2,2,0,1,1,.78,3.92c-21.63,4.28-80.12,20-80.7,20.2A1.93,1.93,0,0,1,233.63,1399.56Z"/>
    <path class="cls-5" d="M181.24,1547.11a55.37,55.37,0,0,1-16.9-2.21c-28.69-9.4-48.32-86.51-49.15-89.79a2,2,0,0,1,3.88-1c.2.78,19.91,78.24,46.51,87,27,8.85,92.1-14.22,92.75-14.45a2,2,0,1,1,1.35,3.76C257.42,1531.22,212.56,1547.11,181.24,1547.11Z"/>
    <path class="cls-5" d="M338,1501.87a2,2,0,0,1-.9-3.79l60.87-30.5a2,2,0,0,1,1.79,3.58l-60.87,30.5A2,2,0,0,1,338,1501.87Z"/>
    <path class="cls-5" d="M480.54,1407.06a1.62,1.62,0,0,1-.31,0,2,2,0,0,1-1.66-2.29l16.82-105a2,2,0,0,1,3.95.63l-16.82,105A2,2,0,0,1,480.54,1407.06Z"/>
    <path class="cls-5" d="M510.1,1536.55l-.31,0L409,1520.88a2,2,0,1,1,.61-4l100.82,15.64a2,2,0,0,1-.3,4Z"/>
  </g>
  <g>
    <polygon class="cls-2" points="1014.71 921.21 996.54 987.59 1035.73 1033.47 1091.72 1005.4 1089.37 935.48 1014.71 921.21"/>
    <polygon class="cls-3" points="1214.77 1507.03 1214.77 1836.22 1047.81 1836.22 1047.81 1515.37 1203.82 1507.58 1214.77 1507.03"/>
    <path class="cls-3" d="M1102.07,1522.33l-5.71,15.79-5.62,15.6-18.92,52.37-24,66.49-38.56,163.64h-151l.12.7-20.74.5.15-1.2,8.32-67,1.22-9.83,3.26-26.29,3.06-24.61,2.3-18.6,10.81-87,2.94-23.69,7.05-56.8Z"/>
    <path class="cls-10" d="M1000.82,975.39s-82.09,50.11-118.26,67.72-59.82,43.34-68.17,58.23-27.83,28.45-26.44,37.92-32,50.12-39,84-19.48,146.27-19.48,150.33,22.26,97.52,22.26,97.52,65.39,65,79.3,79.9,55.65,39.28,61.22,39.28,40.35-23,39-46-11.13-89.39-20.86-100.22c-7.62-8.47-16.94-16.12-24-27.47a66.2,66.2,0,0,1-5.25-10.45c-7-17.61,12.52-59.59,12.52-59.59s62.61-149,59.82-169.29,18.09-92.1,12.53-111.06S1000.82,975.39,1000.82,975.39Z"/>
    <path class="cls-10" d="M1222,1158.15s13.91,191,12.52,223.54-8.15,51.46.1,88,4.27,47.4,0,61-57.14,12.18-57.14,12.18l-247.74-14.42-93.12-134.55,121-376.5,43.13-42s49.39,42,90.43,16.93c0,0,114.08,64.33,130.08,76.52S1222,1158.15,1222,1158.15Z"/>
    <path class="cls-10" d="M1223,1073.81s39.88,39.72,39,65.91,10.2,123.69,8.35,151.68,2.78,28.89,6.49,49.66,19,62.3,20.41,108.35,21.56,79.22,7.65,102.25-24.35,29.79-24.35,29.79-3.48-35.13-9.74-38.56-36.07-12.22-36.07-12.22l-33-364.77Z"/>
    <path class="cls-6" d="M1005.74,930.44c-4-9.33,26.68,51.65,58,48.23,26.87-2.93,28-52.58,28-52.58s-9.54,15.68-37.89,15.71c-31.62.05-48.09-11.36-48.09-11.36Z"/>
    <path class="cls-11" d="M1147.31,851.47c-.73,13.4-9.61,23.82-19.85,23.26s-17.94-11.86-17.22-25.26,9.61-23.81,19.84-23.26S1148,838.07,1147.31,851.47Z"/>
    <path class="cls-11" d="M999,843.28c-.73,13.4-9.61,23.81-19.85,23.26S961.25,854.67,962,841.28s9.61-23.82,19.84-23.26S999.76,829.88,999,843.28Z"/>
    <path class="cls-2" d="M1139,850.83c-9.71,57-42.79,106.06-88.38,103.6S981,909.51,973.85,841.92c-6.31-59.3,42.79-106.07,88.38-103.61S1149,792,1139,850.83Z"/>
    <path class="cls-3" d="M1034.31,760.74c.14,3.78-.45,9.85-.08,11.68,1,5,3.66,10,8,12.28,3,1.6,6.38,1.85,9.71,1.94,12.11.32,24.76-4.9,36.38-4.36,5.35.25,9.41,4.12,14,7.15,8.39,5.61,23.85,4.29,23.86,4.3,7.92,11.07,8.68,27.57,16.75,37.8a48.43,48.43,0,0,0,5.52-4.34c10.86-9.14,11.5-10.8,8-25.14-2.81-11.48,4.9-16.38,8.81-25.58,5.37-12.61,14.69-24.3,5.19-34.13-12.35-12.78-21.33-23.05-29.2-39.77-4.39-9.33-10.28-19.52-19.91-21.32-15.53-2.89-27.35,14.17-43,3.76-5.69-3.8-11.16-8.68-17.83-9.53-6.92-.89-13.68,2.8-19.31,7.24-7,5.55-13.41,12.06-21.61,15.63-13.53,5.87-29.08,8.23-40.19,19.21-7.42,7.34-11.52,17.29-15.26,27.12-3.18,8.32-8.8,17.89-9.63,26.83-.92,10.08,4.94,31.65,12.91,38C971.17,812.61,974,820,974,820s12.25-22.55,14.32-27.7,12.14-18.46,19.1-23.34,9.27-6.67,14.76-9.24C1025.81,758,1034.08,754,1034.31,760.74Z"/>
    <path class="cls-12" d="M1019.17,839.49a7.19,7.19,0,1,1-6.79-7.57A7.17,7.17,0,0,1,1019.17,839.49Z"/>
    <path class="cls-12" d="M1104.87,844.11a7.19,7.19,0,1,1-6.79-7.56A7.18,7.18,0,0,1,1104.87,844.11Z"/>
    <path class="cls-3" d="M994.74,818.81a4.81,4.81,0,0,1-1.82-9.25c23.18-9.66,40.69-.41,41.42,0a4.81,4.81,0,0,1-4.56,8.48c-.67-.36-14.45-7.37-33.16.43A4.76,4.76,0,0,1,994.74,818.81Z"/>
    <path class="cls-3" d="M1081.93,821.87a4.81,4.81,0,0,1-1.24-9.35c23.75-8.17,40.64,2.15,41.35,2.59a4.82,4.82,0,0,1-5.09,8.18c-.65-.4-14-8.27-33.12-1.67A5,5,0,0,1,1081.93,821.87Z"/>
    <path class="cls-12" d="M1141.69,830h0a5.09,5.09,0,0,0-1.38-2.74,4.29,4.29,0,0,0-.56-.48h0a4.7,4.7,0,0,0-1.24-.69,52.73,52.73,0,0,0-7.13-2.07c-1.82-.4-4.73-1-8.34-1.53-3.45-.56-7.54-1.14-11.91-1.62h0a176.91,176.91,0,0,0-19.45-1.19h0a87.49,87.49,0,0,0-9.88.54c-1,.13-1.94.25-2.81.39-11.49,1.76-12,4.59-11.92,6.16a.29.29,0,0,1-.45.27,19,19,0,0,0-16.26-.88.29.29,0,0,1-.42-.31c.29-1.66,0-4.86-14-8.11l-.83-.18a95.09,95.09,0,0,0-11.7-1.68h0c-4.87-.43-9.95-.62-14.78-.65h0c-7.15,0-13.74.24-18.32.56-1.77.13-3.22.25-4.3.38a59.51,59.51,0,0,0-7.73,1.36,4.53,4.53,0,0,0-2.38,1.48h0a4.78,4.78,0,0,0-1.23,3c0,.08,0,.18,0,.27a4.76,4.76,0,0,0,2.84,4.45,5.18,5.18,0,0,1,2.17,1.73c1.76,2.36,2.22,4.37,4.34,5.36a.27.27,0,0,1,.17.27c-.32,4.67-.28,12.63,1.56,18.65a21,21,0,0,0,5.33,9.21,22.69,22.69,0,0,0,9.08,5.24,47.78,47.78,0,0,0,12.13,2.16,44.43,44.43,0,0,0,12.59-1c8.11-1.95,14.28-7.72,17.34-16.23,2.79-7.74,3.92-15.35,3.73-19.8a1.77,1.77,0,0,0,1.8-.42h.08a2.83,2.83,0,0,0,.37-.33c1-.9,4.07-3.17,10.18-2.84s8.94,2.91,9.81,3.91c.1.14,0,.26.09.37h-.2a2.3,2.3,0,0,0,1.65.66.3.3,0,0,1,.33.33c-.59,4.45-.09,12,1.8,19.73,2.13,8.79,7.68,15.19,15.54,18a45.23,45.23,0,0,0,12.44,2.33,48,48,0,0,0,12.29-.84,26.81,26.81,0,0,0,6.32-2.15c4.35-2.19,7.4-5.64,9.55-10.67,2.47-5.79,3.35-13.69,3.53-18.37a.28.28,0,0,1,.2-.26c2.2-.75,2.67-2.71,4.68-4.87a5.32,5.32,0,0,1,2.09-1.43,4.9,4.9,0,0,0,2-1.35,5.08,5.08,0,0,0,1-1.77,5.15,5.15,0,0,0,.25-1.31c0-.08,0-.17,0-.27A4.56,4.56,0,0,0,1141.69,830Zm-101.16,21.55c-2.86,8-8.59,13.36-16.13,15.17a47.19,47.19,0,0,1-23.71-1.14,21,21,0,0,1-8.48-4.88,19.56,19.56,0,0,1-4.82-8.46c-2-6.54-1.74-15.51-1.31-19.62v0c.63-2.61,2.2-7.54,5.59-10.09a8.47,8.47,0,0,1,1.59-1c6.07-2.71,18.87-4,31.43-1.2s17.31,6.05,19.13,9.75c.06.13.14.26.21.38C1044.8,833.84,1043.72,842.68,1040.53,851.51Zm89.25-11.17c0,4.12-.74,13.07-3.43,19.36-2.09,4.89-5,8.1-9.26,10.09a25.16,25.16,0,0,1-5.38,1.75,47.23,47.23,0,0,1-23.7-1.42c-7.29-2.62-12.41-8.6-14.41-16.82-2.21-9.13-2.33-18-1.2-21.34a2.25,2.25,0,0,0,.24-.36c2.21-3.47,7.29-6.25,20.08-7.63,11.89-1.29,23.6.88,29.8,3.89.48.22.91.46,1.32.69,4.26,2.49,5.55,8.7,5.94,11.74Z"/>
    <path d="M1051.2,914.72a29.29,29.29,0,0,1-15.17-4.18.76.76,0,0,1-.19-1,.75.75,0,0,1,1-.19c.61.42,15.08,10.07,32.15-2.2a.75.75,0,0,1,.87,1.22A31.57,31.57,0,0,1,1051.2,914.72Z"/>
    <path d="M1053,887.09a.71.71,0,0,1-.4-.11c-.15-.1-3.63-2.35-3.91-5.11-.25-2.47.78-15.06.83-15.59a.74.74,0,0,1,.81-.68.73.73,0,0,1,.68.8c-.37,4.48-1,13.45-.83,15.32.18,1.7,2.39,3.46,3.22,4a.75.75,0,0,1-.4,1.38Z"/>
    <path class="cls-13" d="M873.35,1260.46a2,2,0,0,1-.85-.2,2,2,0,0,1-1-2.66c2.17-4.6,20.39-59.16,20.7-63.36a2,2,0,0,1,4,.3c-.37,5-19.14,60.66-21.08,64.77A2,2,0,0,1,873.35,1260.46Z"/>
    <path class="cls-13" d="M1064,1002.84c-7.76,0-17.16-1.44-28.24-5.48-1.46-.53-21.81-10.9-25.87-13a2,2,0,1,1,1.82-3.56c9.2,4.69,24.23,12.31,25.43,12.78,35.58,13,52.61-2.57,52.78-2.73a2,2,0,0,1,2.83.08,2,2,0,0,1-.07,2.81C1092.1,994.27,1082.86,1002.84,1064,1002.84Z"/>
    <path class="cls-13" d="M1047.81,1674.58a2.08,2.08,0,0,1-.68-.12,2,2,0,0,1-1.2-2.56l24-66.49a2,2,0,0,1,3.76,1.36l-24,66.49A2,2,0,0,1,1047.81,1674.58Z"/>
  </g>
  <g>
    <g>
      <g>
        <polygon class="cls-2" points="1747.17 1049.27 1627.49 1051.39 1635.95 953.57 1736.6 953.57 1747.17 1049.27"/>
        <path class="cls-7" d="M1771.45,880.76c0,63.91-38.47,115.72-85.94,115.72s-85.93-51.81-85.93-115.72c0-26.53-6.38-67.19,4.77-86.7,15.71-27.51,53.4-29,81.16-29s60.3-6.43,76,20.82C1772.83,805.45,1771.45,854,1771.45,880.76Z"/>
        <path class="cls-7" d="M1784.54,832.1s9.17-89.7-4.94-104.53-6.24-19.07-21.45-23.3-15.43-12-40.5-12c-4.32,0-6.43-2.82-30.41-2.82-7.75,0-20.45-6.36-38.43,3.53s-29.43-3.89-42.39,12.8-17.89,7.68-29.17,33.81,3.53,38.84,6.35,67.09,17.64,50.85,17.64,50.85l179.28-5.75Z"/>
        <path class="cls-2" d="M1771.45,862c0,63.92-38.47,115.72-85.94,115.72s-85.93-51.8-85.93-115.72c0-26.53-6.38-67.18,4.77-86.7,15.71-27.5,53.4-29,81.16-29s60.3-6.44,76,20.82C1772.83,786.68,1771.45,835.26,1771.45,862Z"/>
        <path class="cls-2" d="M1617.05,868.48c1.12,13.58-5.06,25.17-13.79,25.89s-16.71-9.71-17.83-23.28,5.06-25.17,13.8-25.89S1615.94,854.9,1617.05,868.48Z"/>
        <path class="cls-2" d="M1752.47,867.48c-2,13.48,3.47,25.44,12.13,26.71s17.3-8.62,19.27-22.1-3.46-25.44-12.13-26.71S1754.44,854,1752.47,867.48Z"/>
        <path class="cls-7" d="M1660,804c-2.08-.06-3.89,0-5.82.07s-3.79.22-5.68.39c-3.78.37-7.55.89-11.3,1.63a84.45,84.45,0,0,0-11.2,3,51.68,51.68,0,0,0-10.72,5.14,4.46,4.46,0,0,0,3.63,8l.23-.07c3.19-.9,6.45-1.62,9.77-2.23s6.74-1,10.16-1.41,6.9-.57,10.38-.73c1.73-.09,3.47-.14,5.2-.19s3.53-.07,5.08-.1h.19A6.75,6.75,0,0,0,1660,804Z"/>
        <path class="cls-7" d="M1749.74,814.23a51.52,51.52,0,0,0-10.73-5.14,83.91,83.91,0,0,0-11.19-3c-3.76-.74-7.53-1.26-11.3-1.63-1.89-.17-3.78-.32-5.68-.39s-3.74-.13-5.83-.07a6.75,6.75,0,0,0,.1,13.5h.17c1.55,0,3.38,0,5.08.1s3.47.1,5.21.19c3.47.16,6.94.4,10.37.73s6.82.84,10.17,1.41,6.58,1.33,9.76,2.23l.24.07a4.46,4.46,0,0,0,3.63-8Z"/>
        <path class="cls-7" d="M1648.46,849.75c0,4.29-2.8,7.77-6.25,7.77S1636,854,1636,849.75s2.8-7.77,6.26-7.77S1648.46,845.46,1648.46,849.75Z"/>
        <path class="cls-7" d="M1730.16,849.75c0,4.29-2.8,7.77-6.26,7.77s-6.25-3.48-6.25-7.77,2.8-7.77,6.25-7.77S1730.16,845.46,1730.16,849.75Z"/>
        <path class="cls-14" d="M1685.65,897h0c-.92,0-9-.47-10.85-3.06a2,2,0,0,1-.29-1.82c1.1-3.63,5.24-27.69,5.29-27.93a.49.49,0,0,1,.57-.41.5.5,0,0,1,.41.58c-.17,1-4.19,24.36-5.32,28.05a1,1,0,0,0,.16.95c1.31,1.86,7.71,2.54,10.07,2.64a.51.51,0,0,1,.48.53A.5.5,0,0,1,1685.65,897Z"/>
        <path class="cls-7" d="M1589,756.15s19.24,27.68,37.17,22.82,28.12-25.39,36.62-16.1,23.23,7.79,34.73.54,7.74,2.07,22.84,4.44,22.44-2.32,33.5,11.69,22.38,7.32,18.6-11.69-29.44-59.85-52.1-48.19S1589,756.15,1589,756.15Z"/>
        <path class="cls-7" d="M1771.21,822.24c-.37-.11-.74-.2-1.12-.28a114,114,0,0,0-18.54-2.56,170.35,170.35,0,0,0-19.56-.08h0c-12.42.64-23.63,2.47-30.25,4.65-5.37,1.78-11.7,4.29-17.09,4.29s-11.71-2.51-17.08-4.29c-7.2-2.37-19.82-4.33-33.53-4.79h0a163.9,163.9,0,0,0-20.42.54,104.36,104.36,0,0,0-15.6,2.53h0c-1.52.38-3,.8-4.42,1.25l.7,12.8a5,5,0,0,1,3.62.75,4.43,4.43,0,0,1,.82.76,5.87,5.87,0,0,1,1.13,2.18c.32,1.07.75,2.92,1.27,5.21.79,3.43,1.81,7.85,3.12,12.21,1.59,5.35,3.61,10.58,6.1,13.74a19.66,19.66,0,0,0,6.61,5.27c8,4.11,19,4.22,27.07,3.87,14.33-.61,23.71-7,27.71-17.78.95-2.56,1.8-5,2.57-7.34,2.52-7.48,4.3-13.4,6.25-15.63a5.94,5.94,0,0,1,8.32,0c1.9,2.16,3.63,7.8,6,15,.84,2.51,1.77,5.2,2.8,8,4,10.79,13.39,17.17,27.71,17.78,8,.34,18.93.24,26.94-3.81a19.6,19.6,0,0,0,6.74-5.33c3.31-4.19,5.77-12,7.54-18.94.63-2.44,1.17-4.75,1.63-6.75.55-2.41,1-4.36,1.32-5.47a5.51,5.51,0,0,1,1.59-2.64,2.06,2.06,0,0,1,.41-.32,4.93,4.93,0,0,1,3.58-.73l.69-12.8C1774.3,823,1772.78,822.61,1771.21,822.24Zm-106,40.28c-3.85,7.25-10.32,10.94-20,12.18s-21.29-.67-27.14-4.16a7.49,7.49,0,0,1-.94-.65c-3.23-2.6-5.3-7.87-6.65-12.67-.53-1.93-1-3.77-1.28-5.34-.19-.87-.39-1.88-.58-3h0c-1.12-6.42-1.92-16.11,3.19-19.65,6-4.17,21.1-4.48,31.1-3.86,7.54.46,23.85,2.47,26.93,8.33,2.22,4.21.48,14.21-1.83,21.69A44.68,44.68,0,0,1,1665.24,862.52Zm94.82-10.64-.12.55c-1.17,5.49-3.42,13.83-7.72,17.38a7.75,7.75,0,0,1-1,.73c-5.86,3.49-17.45,5.39-27.15,4.16s-16.16-4.93-20-12.18a46.81,46.81,0,0,1-3.11-8.19c-2.13-7.34-3.62-16.63-1.51-20.64,3.08-5.86,19.39-7.87,26.94-8.33,10-.62,25.1-.31,31.1,3.86,5.41,3.75,4.18,14.42,3,20.77C1760.31,850.67,1760.17,851.31,1760.06,851.88Z"/>
        <g>
          <path class="cls-1" d="M1870.56,1051.35s70.88,29.35,85.35,46.47,63.66,163.24,63.66,239.92,11.57,194.41,0,216.57-63.66,132-98.38,157.4-49,23.46-49,23.46l-8.5-114.14,37.19-180.56-18.87-272.08Z"/>
          <path class="cls-15" d="M1683.08,1673.68c-3.55,16.62-8.08,81.81-12.21,153.49-.16,3-.33,6-.51,9H1490.67c-2-109.07,1.7-213.84,1.7-213.84l4.74.27c1.56.11,3.48.22,5.72.38l.66,0h.11c16.32,1.12,48.17,3.7,80.59,8.49,16.93,2.51,34,5.63,49.15,9.46,21.21,5.36,38.53,12.13,46,20.61a20.48,20.48,0,0,1,1.42,1.78h0c.28.41.54.81.78,1.22A12.28,12.28,0,0,1,1683.08,1673.68Z"/>
          <polygon class="cls-15" points="1872.24 1641.04 1872.24 1836.22 1673.33 1836.22 1671.61 1828.52 1670.87 1827.17 1631.77 1755.34 1586.91 1674.04 1579.52 1660.62 1578.68 1659.09 1568.71 1641.04 1872.24 1641.04"/>
          <path class="cls-16" d="M1627.49,1001.6h119.68l15.51,28L1870.56,1051s71.92,34.51,74,40.1,27.5,294.74,16.92,365.62-4.23,149.23-14.8,184.67-437.85,14.93-437.85,14.93-86.72-526-59.23-550.29,165.69-61.87,170.28-70S1627.49,1001.6,1627.49,1001.6Z"/>
          <path class="cls-1" d="M1961.51,1459.72c-10.57,71.35-4.23,150.2-14.81,185.87-3.81,12.85-59.7,30.26-132.16,32.1-54.87,1.39-119.08-14.77-173.62-16.08l-12.23-.27c-67.62-1.4-119.83-.72-119.83-.72s-86.72-529.47-59.23-553.88c24.12-21.41,133.4-53.17,163-66.14L1698.39,1192l74.91-160.13,97.26,19.47s71.92,34.73,74,40.37S1972.09,1388.37,1961.51,1459.72Z"/>
          <path class="cls-17" d="M1870.14,1371a2,2,0,0,1-2-2l-1.27-90.66c-.16-11.31-5.06-45.67-5.11-46a2,2,0,0,1,4-.57c.21,1.42,5,35,5.15,46.52l1.27,90.67a2,2,0,0,1-2,2Z"/>
        </g>
        <path class="cls-18" d="M1656,926.21c1.89,9.79,15.27,16.7,30.69,15.6,13.4-1,24-7.68,26.52-15.92Z"/>
      </g>
      <path class="cls-17" d="M1699.6,1194.15a2,2,0,0,1-1.74-1l-40.8-72a2,2,0,1,1,3.48-2l38.89,68.64,48.28-103.21a2,2,0,0,1,3.62,1.7L1701.41,1193a2,2,0,0,1-1.73,1.15Z"/>
      <path class="cls-5" d="M1803.52,1679.75a428.27,428.27,0,0,1-81.81-7.7c-74.64-14.65-125.35-10.07-125.85-10a2,2,0,0,1-.38-4c.51,0,51.8-4.68,127,10.08,76.48,15,142.75,3.15,143.35,3a2,2,0,0,1,.9,3.9C1866.37,1675.11,1841.06,1679.75,1803.52,1679.75Z"/>
    </g>
    <path class="cls-5" d="M1698.78,1792.78a2,2,0,0,1-2-2v-54a2,2,0,0,1,0-.42l6.35-29.9a2,2,0,1,1,3.91.83l-6.3,29.7v53.81A2,2,0,0,1,1698.78,1792.78Z"/>
  </g>
  <g>
    <g>
      <path class="cls-19" d="M713.2,957.26s24.77-9.16,47.16,2.28c23.85,12.19,36,24.38,41.44,126.75s4.88,153.55,5.48,161.48-195,5.48-195,5.48V998.54Z"/>
      <path class="cls-8" d="M614.44,1248.75s-99.58,10.85-97.72,182.45-34.7,159.63-4.79,281.85c0,0,67.67,13.69,106.44-14l-3.93-337.52V1248.75Z"/>
      <path class="cls-16" d="M857.17,1837.42l.14-1.2H537.91c3.19-19.09,10.48-47.32,19.45-78.43.83-2.88,1.68-5.81,2.54-8.74l.05-.17c3.16-10.8,6.5-21.85,9.9-32.92l.17-.54c15.5-50.39,32.44-101,41.71-128.3a.08.08,0,0,0,0,0c2.18-6.43,3.94-11.55,5.15-15.07v0l1.89-5.44H826.62c.6,1.73,1.66,6.2,3.07,12.82h0q.54,2.47,1.13,5.34c4.11,19.78,10.44,52.84,17.12,88.63,0,0,0,0,0,0,.52,2.78,1,5.55,1.58,8.35,3,16,6,32.47,8.94,48.34.34,1.86.67,3.7,1,5.55q1.1,6,2.17,11.79c.06.34.13.68.18,1,.67,3.64,1.34,7.24,2,10.77s1.24,6.74,1.84,10c6.45,35.36,11.32,62.43,12.15,67,.09.46.12.7.12.7Z"/>
      <path class="cls-8" d="M619,1252.74s-45.16,13.13-39.07,108-45.13,212.64,28.63,226.33l203.22-2.53a35,35,0,0,0,34.58-35v-299l-42.6-7.39L619,1252.74Z"/>
      <polygon class="cls-2" points="743.3 1218.52 669.77 1220.73 672.3 1157.58 739.65 1157.58 743.3 1218.52"/>
      <path class="cls-8" d="M663.41,1209.19h93.86A13,13,0,0,1,769.79,1220l5.33,27.14-129.14,5,4.8-31.54A13,13,0,0,1,663.41,1209.19Z"/>
      <path class="cls-6" d="M741,1180.43c-4.18,8.86-11.83,17.66-22.74,18.88-18.72,2.1-37-18.68-46-30.18-1.8-2.3-2.68-4.22-3.67-5.52a43.06,43.06,0,0,0,8.28,4.12c7.22,2.71,18.28,5.52,33,5.5a54.4,54.4,0,0,0,24.66-5.5l5.69-.09Z"/>
      <path class="cls-2" d="M772.6,1083.41c1.59,50.77-28.66,92.91-67.56,94.13s-71.74-38.94-73.33-89.7,28.65-92.91,67.56-94.13S771,1032.65,772.6,1083.41Z"/>
      <path class="cls-2" d="M788.65,1089c0,10.5-9.12,20.65-16.64,20.65s-13.61-8.51-13.61-19,10-19,17.51-19S788.65,1078.46,788.65,1089Z"/>
      <path d="M746.66,1056.12a5.31,5.31,0,0,1-1.71-.27c-15.12-5-25.07-.45-25.49-.26a5.48,5.48,0,0,1-4.76-9.88c.57-.28,14.11-6.68,33.66-.28a5.48,5.48,0,0,1-1.7,10.69Z"/>
      <path d="M641.57,1064.81a5.48,5.48,0,0,1-3.15-10c.52-.36,12.93-8.76,33.23-5.39a5.48,5.48,0,1,1-1.79,10.81c-15.68-2.58-24.85,3.37-25.23,3.62A5.47,5.47,0,0,1,641.57,1064.81Z"/>
      <path d="M701.87,1108.07h-5.49a.91.91,0,0,1-.91-.91v-20.57a.92.92,0,0,1,1.83,0v19.65h4.57a.92.92,0,0,1,0,1.83Z"/>
      <path d="M667.13,1082.14c0,4.22-2.72,7.65-6.09,7.65s-6.09-3.43-6.09-7.65,2.72-7.66,6.09-7.66S667.13,1077.91,667.13,1082.14Z"/>
      <path d="M738,1074.48c0,4.23-2.73,7.66-6.09,7.66s-6.1-3.43-6.1-7.66,2.73-7.65,6.1-7.65S738,1070.25,738,1074.48Z"/>
      <path class="cls-8" d="M680,1133.51c2.06,9.4,13.12,15.51,25.37,13.76,10.64-1.52,18.76-8.5,20.27-16.6Z"/>
      <path class="cls-19" d="M711.32,955.26c19.13,38.35-27,52.13-44.52,72.88-19.1,22.69-32.3,67.48-31.27,97.3,2.8,81.37,30.32,146.6-23.34,221.07,11.12-45.23-5.79-79.79-19.89-120.83-15.51-45.15-15.25-91.42-9.89-138.31,4-35.33,5.34-92.49,31.92-119.17C629.58,952.88,699.14,930.82,711.32,955.26Z"/>
      <path class="cls-19" d="M706.9,994s8.56,15,27.71,24.28c27.13,13.1,32.94,56.19,32.94,56.19l11-6-21.31-80.19Z"/>
      <path class="cls-2" d="M863.94,1748.16l-13.51-4.43a5,5,0,0,1,.18-5.44c1.86-3.07,6.29-3,8.44-2.75a40.18,40.18,0,0,1,6.63,1.9s5.29-6,10.71-8.79c0,0-1.41-7.43,1.1-12.27a19.53,19.53,0,0,1-5-14s-.57-1-1.41-2.56c-.71.32-2.08,1-3,1.45-1.24.71-1.34,4.73-.85,7.15a54.37,54.37,0,0,1,.26,14.46c-.77,4.38-4.12,7.35-9.11,7.19s-5.15-5.06-6.12-9.4-.55-8.41-.21-16.23-1.68-11.72-3.17-19.1a51.08,51.08,0,0,1-1-13.3,82.75,82.75,0,0,1,3.76-15.52c-.72-4.45-.66-8.63.76-11.75,2.54-5.59-5.71-46.4-5.71-46.4l41.71,4.72-3.88,46.16s13.05,27.34,17.37,39.62,7.47,18.76,6.87,24.87c0,0-6.34,24.56-12.85,30-6.67,5.56-21.51,15.32-25.85,15.65-4.67.36-17.08-1.3-17.08-1.3a12.92,12.92,0,0,1-4.83-1.26s-2,0-.46-4.14S853.65,1749.53,863.94,1748.16Z"/>
      <path class="cls-8" d="M823.35,1246.33s58.37-4.18,78.93,77.68,18.4,112.56,17.31,164.7,59.73,155.09,4.54,221.44c0,0-46.74-23.26-90-32.11,0,0-7.57-8.25-3.24-94.3s-7.52-337.41-7.52-337.41Z"/>
      <path class="cls-6" d="M570,1715.42s-17.34,1.07-20.71,1c0,0,.25,24.18,10.35,32.41l.24.2Z"/>
    </g>
    <path class="cls-20" d="M598.45,1542.17a2,2,0,0,1-2-1.79,141.69,141.69,0,0,1,2.35-40.12c2.24-10.29.71-16.22-1.61-25.21a164.77,164.77,0,0,1-5.66-34.73c-2.26-36.2,11.19-56.62,11.77-57.47a2,2,0,1,1,3.31,2.23c-.2.31-13.25,20.34-11.09,55a161.14,161.14,0,0,0,5.55,34c2.37,9.2,4.08,15.85,1.64,27.06-4.23,19.46-2.31,38.66-2.29,38.85a2,2,0,0,1-1.78,2.2Z"/>
    <path class="cls-20" d="M825,1573h-.2a2,2,0,0,1-1.79-2.19c1.64-15.79,2.87-30,1.42-44-.76-7.36-1.67-14.74-2.55-21.88-2-15.86-4-32.27-4.41-48.92a2,2,0,0,1,1.95-2,2,2,0,0,1,2.05,1.95c.43,16.46,2.35,32,4.38,48.53.88,7.16,1.79,14.56,2.56,22,1.49,14.41.24,28.84-1.42,44.85A2,2,0,0,1,825,1573Z"/>
    <path class="cls-21" d="M729.17,1589.12H608.53a2,2,0,1,1,0-4H729.17a2,2,0,1,1,0,4Z"/>
  </g>
  <g>
    <rect class="cls-2" x="2277.94" y="946.23" width="99.23" height="89.48"/>
    <path class="cls-6" d="M2377.16,953.52v27.82a47.4,47.4,0,0,1-29.69,14.31c-26.82,2.4-53-17.52-69.53-32.94v-9.23l.23.07c12.1,3.6,30.59,7.36,55.23,7.33,17.81,0,31.45-3.39,41.29-7.33Z"/>
    <path class="cls-11" d="M2259.83,869.88c1.24,15-4.61,27.63-13,28.33s-16.28-10.86-17.52-25.81,4.61-27.64,13.06-28.33S2258.6,854.92,2259.83,869.88Z"/>
    <path class="cls-11" d="M2423,873c-1.77,14.9-10,26.16-18.44,25.16s-13.79-13.89-12-28.79,10-26.16,18.44-25.16S2424.79,858.05,2423,873Z"/>
    <ellipse class="cls-2" cx="2326.99" cy="870.03" rx="80.53" ry="107.37"/>
    <path class="cls-1" d="M2307.18,712.33c-2.4,0-24-15.81-51.77,10.55s-21.41,21.25-29.08,28.28-5.75,14.45-16,21-12.14,9.71-7.67,17.38,7.6,15.34-2.27,20.45-13.7,6.4-8.59,10.87.8,10.38,12.3,12.3,17.74,3.15,19.65,8,6.24,4.9,12,6.82,6.71,2.88,8.63,5.75,4,1.92,4,1.92,11.62-28.36,12.21-40.54,4.42.28,13.52-12.19,11-11.41,18.7-21.2,3.16-3.66,9.49-10.64S2307.18,712.33,2307.18,712.33Z"/>
    <path class="cls-22" d="M2327.63,902.15c-.93,0-1.6,0-1.84,0a1,1,0,0,1-.91-1,.93.93,0,0,1,1-.91c3.8.17,10.4-.23,11.92-2.06s.76-11.83-.21-18.42a1,1,0,0,1,1.9-.28c.41,2.8,2.33,16.88-.22,19.93C2337.23,901.82,2330.87,902.15,2327.63,902.15Z"/>
    <path class="cls-18" d="M2301,923.7h53.2s-16.93,27.88-43.07,9.83C2310.18,932.91,2301,923.7,2301,923.7Z"/>
    <path class="cls-22" d="M2308,834.85c-3.13.33-6.4.58-9.57.84s-6.36.52-9.5.86-6.23.73-9.3,1.17-6,1.06-9,1.67l-.19,0a3.89,3.89,0,0,1-2.63-7.23,42.79,42.79,0,0,1,10-3.72A69.84,69.84,0,0,1,2288,826.9a83.72,83.72,0,0,1,10.26-.11,61.8,61.8,0,0,1,10.21,1.32,3.42,3.42,0,0,1-.38,6.73Z"/>
    <path class="cls-22" d="M2346.05,828.11a62.07,62.07,0,0,1,10.21-1.32,83.68,83.68,0,0,1,10.26.11,69.84,69.84,0,0,1,10.28,1.58,42.63,42.63,0,0,1,10,3.72,3.89,3.89,0,0,1-2.62,7.23l-.19,0c-3-.61-6-1.18-9-1.67s-6.17-.84-9.31-1.17-6.31-.59-9.5-.86-6.44-.51-9.56-.84h-.15a3.42,3.42,0,0,1-.39-6.73Z"/>
    <path class="cls-22" d="M2293.12,861.32c0,4.81-3,8.71-6.63,8.71s-6.63-3.9-6.63-8.71,3-8.71,6.63-8.71S2293.12,856.51,2293.12,861.32Z"/>
    <path class="cls-22" d="M2372.48,861.32c0,4.81-3,8.71-6.63,8.71s-6.63-3.9-6.63-8.71,3-8.71,6.63-8.71S2372.48,856.51,2372.48,861.32Z"/>
    <path class="cls-1" d="M2293.54,749.26s1.92,37.64,37.39,46.93c0,0,10.06-1,17.73,13.4s-.48,12.9,8.63,17.54,8.15-.52,22.53,5.67,9.59,10.44,20.13,16.57,31.16,1.48,34-3.68,7.67-6.7,9.11-11.86,0-27.85,0-27.85-17.26-12.37-23-26.81,1.92-20.63-10.54-29.91-31.64-17.54-35.47-21.66-8.63-24.75-24.93-23.72-36.43-.59-43.61,0-11,6.74-12,13.44S2293.54,749.26,2293.54,749.26Z"/>
    <path class="cls-16" d="M2535.68,1836.22H2351.83c-3.72-48.1-7-97.31-7.45-126.62-.1-5.9,0-14.83,0-14.83l-8.69,141.45H2126.83c.16-39.75,2.27-88.22,8-145.64.21-2,.4-3.94.61-5.91q2.91-28.61,7.09-60.14,1.48-11.27,3.16-22.93,1.79-12.37,3.79-25.19,1.46-9.47,3.05-19.17c.5-3,1-6.1,1.53-9.18h0c.9-5.39,1.83-10.82,2.8-16.33q2.8-16,5.93-32.6h340.12s1.46,5.88,3.77,16.48c.81,3.65,1.7,7.85,2.67,12.57a.24.24,0,0,1,0,.08c.18.83.35,1.68.52,2.53,2.07,10.06,4.43,22.22,6.89,36.09,1.92,10.78,3.89,22.59,5.82,35.23,3.18,20.85,6.26,44,8.77,68.52q.61,6,1.19,12.16C2537,1731.25,2539.15,1784.49,2535.68,1836.22Z"/>
    <path class="cls-15" d="M2468.64,1039.64s74.44,23.31,89.63,36.91,66.85,129.66,66.85,190.56,12.15,154.41,0,172-66.85,104.88-103.31,125-51.41,18.64-51.41,18.64l-8.92-90.66,39.06-143.41-19.82-216.1Z"/>
    <path class="cls-15" d="M2236,1021.91c8.17-3,30-9.26,45.36-3.56s52.16,11.4,69.73,3.56,40.25-8.88,56.13-5.51,60.66,12.64,86.74,34,41.94,424.79,17.85,459c-8.41,11.95-50.34,52.67-116.72,40.46-53-9.76-113.18,32.91-169.77,3.86-44.2-22.7-79.46-22.94-79.46-22.94s-53.29-356.36-23.81-437.61C2122.06,1093.19,2125.46,1063.25,2236,1021.91Z"/>
    <path class="cls-5" d="M2344.38,1696.77h-.07a2,2,0,0,1-1.93-2.06c.34-10.31,5.93-17.66,14.38-28.78a273.41,273.41,0,0,0,22.45-33.44,2,2,0,1,1,3.49,2,276.63,276.63,0,0,1-22.76,33.89c-8.27,10.89-13.26,17.46-13.56,26.49A2,2,0,0,1,2344.38,1696.77Z"/>
    <path class="cls-15" d="M2237.42,1027.4s-60.75,37.2-87,52.62-43.34,38-49.39,51-20.15,24.93-19.15,33.23-23.18,43.91-28.22,73.58-14.11,128.17-14.11,131.73,16.13,85.45,16.13,85.45,47.37,57,57.45,70,40.31,34.42,44.35,34.42,29.22-20.18,28.22-40.35-8.07-78.33-15.12-87.82c-5.52-7.42-12.27-14.12-17.36-24.07a62.42,62.42,0,0,1-3.81-9.16c-5-15.43,9.07-52.21,9.07-52.21s45.36-130.55,43.34-148.35,13.11-80.7,9.07-97.31S2237.42,1027.4,2237.42,1027.4Z"/>
    <path class="cls-5" d="M2259.23,1565.13c-35.44,0-51.48-19.26-52.17-20.1a2,2,0,1,1,3.11-2.52c.24.29,16.69,19.8,52.39,18.56,30.91-1.07,46.5-4.82,59-7.82,2.59-.63,5-1.21,7.5-1.75,22.59-5,53.91-10.85,65.06-4.66a2,2,0,1,1-1.94,3.5c-11.12-6.17-49.61,2.28-62.26,5.06-2.44.54-4.86,1.12-7.42,1.73-12.7,3-28.5,6.85-59.82,7.94C2261.52,1565.11,2260.36,1565.13,2259.23,1565.13Z"/>
    <path class="cls-5" d="M2158.52,1388.22a2,2,0,0,1-1.95-1.59c-4.56-21.55-2.24-40.92,6.9-57.58,8.41-15.32,13.83-30.84,19.57-47.26,3.37-9.63,6.85-19.58,11-29.4a2,2,0,0,1,3.69,1.54c-4.07,9.71-7.53,19.61-10.87,29.18-5.54,15.86-11.28,32.25-19.84,47.87-8.67,15.79-10.85,34.24-6.5,54.82a2,2,0,0,1-2,2.42Z"/>
    <path class="cls-5" d="M2319.57,1028.08c-15.21,0-41.09-8.49-42.26-8.88a2,2,0,0,1,1.25-3.8c.3.1,30.26,9.93,43.83,8.55a106.93,106.93,0,0,1,16.21-.46c2.19.08,4.09.15,4.62-.19a2,2,0,0,1,2.16,3.36c-1.58,1-3.6.95-6.93.82a104.58,104.58,0,0,0-15.65.45A30.06,30.06,0,0,1,2319.57,1028.08Z"/>
  </g>
  <g>
    <path class="cls-23" d="M2835.8,1203.84c-17.1,22-44,39.9-72.49,40.71-2.71.07-7.35.39-13.54.88-45.35,3.59-173.55,17-230.19,23.06-16.91,1.79-27.44,2.94-27.49,2.94-6.79.73-11.92-24-12.17-27.64-.85-12.61,3.64-24.85,9.75-35.67,6.21-11,19.79-23.83,14.78-37.68-4.42-12.29-21.4-14.86-28.78-25.63-5.3-7.77-4.45-18.47-.27-26.88,6.16-12.44,17.67-22.87,30.13-28.61,10.73-4.94,20-10.7,24.78-20.7a34.17,34.17,0,0,0,2.54-7.33c3.34-15,.29-34,10.55-47.23,8.55-11,29.32-22.6,48.87-44.59q4.62-5.21,9.43-9.77c.71-.69,1.44-1.37,2.18-2,16.49-15.13,34.08-24.49,48.87-25.46,18.32-1.22,48.86,3,55.58,20.77s15.27,15.27,26.27,22,36,12.21,41.73,50.5c3.23,21.58,0,31.77-.12,39-.05,4.18.93,7.38,4.79,11.24a42.5,42.5,0,0,0,5.11,4.3c18.74,13.86,38.28,25.24,49.69,43.18S2852.91,1181.85,2835.8,1203.84Z"/>
    <path class="cls-3" d="M2835.8,1203.84c-17.1,22-44,39.9-72.5,40.7-2.71.08-7.35.4-13.53.88,1.59-9,2.95-19.74,2.17-26.92-1.56-14.66-2.49-8.16-5.74-17.94s6.52-25.24,5.69-36.65-13.83-18.71-19.54-39.09,6.7-33.13,6.7-33.13l37.16-27.2c-.05,4.18.92,7.38,4.78,11.24a44.29,44.29,0,0,0,5.11,4.3c18.74,13.85,38.29,25.24,49.7,43.18S2852.9,1181.85,2835.8,1203.84Z"/>
    <path class="cls-2" d="M2697.83,1233.44a118.81,118.81,0,0,1-24.25,7.72h-42.94a107.94,107.94,0,0,1-19.46-6l.51-23.19,3.49-54.91.28-4.35.63-9.92,71.77,1.93,1.19,9.36,2.32,18.32,5.08,40Z"/>
    <path class="cls-2" d="M2740.42,1088c-2.43,9.27-10.85,15.09-18.79,13s-12.41-11.29-10-20.56,10.84-15.09,18.79-13S2742.86,1078.74,2740.42,1088Z"/>
    <path class="cls-18" d="M2830,1255.79l-14.42,337.08-106.43,3.35-204.49,6.45-16.29-352.4L2611.69,1212s29.37,22,84.76.4c1.33-.53,7.17.58,15.75,2.71,13.34,3.3,33.28,9.07,53,15,9,6.53,18,13,35.85,14.88C2809.79,1245.94,2820.07,1250,2830,1255.79Z"/>
    <path class="cls-3" d="M2588.19,1110.89s6.52,33.14-5.3,54.32-16.69,22.41-11.8,41.73,5.93,15,4.88,26.25c-.53,6.06-29.27,22.45-56.39,35.3-16.91,1.79-27.44,2.94-27.49,2.94-6.79.73-11.92-24-12.17-27.64-.85-12.61,3.64-24.85,9.75-35.67,6.21-11,19.79-23.83,14.78-37.68-4.42-12.29-21.4-14.86-28.78-25.63-5.3-7.77-4.45-18.47-.27-26.88,6.16-12.44,17.67-22.87,30.13-28.61,10.73-4.94,20-10.7,24.78-20.7a34.17,34.17,0,0,0,2.54-7.33c3.34-15,.29-34,10.55-47.23,8.55-11,29.32-22.6,48.87-44.59q4.62-5.21,9.43-9.77c.71-.69,1.44-1.37,2.18-2l7,77.72Z"/>
    <path class="cls-2" d="M2721,1073.51c0,52.63-30.08,95.3-67.19,95.3s-70.86-40.22-70.86-92.85,33.75-97.74,70.86-97.74S2721,1020.88,2721,1073.51Z"/>
    <path d="M2626.39,1048.08a51.32,51.32,0,0,0-6.29-1.45c-2.2-.37-4.44-.65-6.69-.8a67.92,67.92,0,0,0-13.45.4h-.07a4.64,4.64,0,0,1-1.36-9.18,77.67,77.67,0,0,1,23.08-.38,58.61,58.61,0,0,1,7.85,1.54,5.17,5.17,0,1,1-2.71,10l-.17,0Z"/>
    <path d="M2668.4,1038.73a59.2,59.2,0,0,1,7.89-1.34,77.27,77.27,0,0,1,23.06,1,4.64,4.64,0,0,1-1.58,9.14l-.08,0a67.83,67.83,0,0,0-13.44-.73,64.92,64.92,0,0,0-6.7.64,49.26,49.26,0,0,0-6.32,1.28l-.18,0a5.16,5.16,0,0,1-2.84-9.93Z"/>
    <path d="M2622.4,1063.26c0,4-2.83,7.2-6.32,7.2s-6.31-3.23-6.31-7.2,2.83-7.21,6.31-7.21S2622.4,1059.28,2622.4,1063.26Z"/>
    <path d="M2687.86,1064.48c0,4-2.82,7.2-6.31,7.2s-6.32-3.22-6.32-7.2,2.83-7.2,6.32-7.2S2687.86,1060.5,2687.86,1064.48Z"/>
    <path class="cls-2" d="M2599.24,1076c5.12,8.1,3.32,18.43-4,23.09s-17.46,1.85-22.59-6.24-3.31-18.44,4-23.09S2594.12,1067.85,2599.24,1076Z"/>
    <path class="cls-3" d="M2781,1075.73c-10.72,9.38-23.6,20.5-25,22.63-2.44,3.66-24.11,4.11-20.55-1.54,1.18-1.86,5.89-29.62-10.6-27.17s-17.72-7.33-22-14.05-.63-24.44,0-30.77-8.55-15.66-20.16-11.38-35.43,14.66-42.15,10.38-1.22-17.71-20.77-14.66-20.16-22.6-20.16-22.6l2.11-26.88c17.12-16.32,35.6-26.46,51-27.49,18.32-1.22,48.87,3.06,55.59,20.77s15.27,15.27,26.26,22,36,12.22,41.74,50.51C2781.41,1059.43,2770.41,1065.17,2781,1075.73Z"/>
    <path class="cls-1" d="M2829.29,1836.22H2508.1c1.34-49.34,12.78-106.77,24.41-153.44,1.16-4.67,2.33-9.24,3.48-13.66,8.1-31,15.8-55.88,19.72-68.07,1.7-5.27,2.68-8.17,2.68-8.17l43.34-2.33,12.35-.67,96.75-5.18,61.36-3.29s.25,4.75,1.15,12.79c1.86,16.76,6.52,47.81,17.57,79.72a249.39,249.39,0,0,0,14.27,33.64C2821.1,1738.26,2827.12,1792.79,2829.29,1836.22Z"/>
    <path class="cls-10" d="M2598.43,1211.41a1.61,1.61,0,0,1,1.9,1.75c-1.54,16-11.33,115.91-13.58,120.41-2.44,4.89-4.89,25.25-5.7,41.54s-.82,22,0,44.79a574.4,574.4,0,0,0,5.7,62.72c2.44,15.47,12.62,70.25,13.23,85.52s1.23,22.08,4.28,35.48,7.94,26.21,6.72,35.38-127.67,46.42-127.67,46.42-12.83-8.55-14.66-22-10.38-20.16-12.22-34.21-6.51-96.49,3.26-136.21-26.88-69-25.25-75.55,1.22-121.15,12.83-132.15,40.76-37.87,63.53-40.31,31.15-12.22,43.37-20.16C2564.55,1218.09,2590.79,1212.83,2598.43,1211.41Z"/>
    <path class="cls-13" d="M2564,1422.14a2,2,0,0,1-1.64-.86c-3.49-5-2.09-9-.61-13.19,1.66-4.67,3.53-10,.35-19.5-2.85-8.57-7.31-15.32-11.62-21.84-5-7.53-9.67-14.64-10.85-23.3-1-7.52,1.82-18,4.56-28.2,3-10.89,6-22.16,3.36-27.1s-8.82-9.84-14.75-14.51-11.51-9.06-13.51-13.6c-1.26-2.83-1.06-8.22,15-22.2,8.38-7.3,17.32-13.65,17.41-13.71a2,2,0,1,1,2.31,3.26c-16.46,11.66-32.87,26.9-31.05,31,1.61,3.63,6.82,7.73,12.33,12.08,6.26,4.92,12.73,10,15.8,15.77,3.38,6.34.27,17.84-3,30-2.64,9.79-5.37,19.9-4.46,26.62,1.06,7.76,5.31,14.19,10.23,21.63,4.24,6.43,9.06,13.72,12.08,22.79,3.61,10.82,1.31,17.34-.38,22.09-1.37,3.88-2.2,6.23.13,9.58a2,2,0,0,1-1.65,3.14Z"/>
    <path class="cls-10" d="M2447.27,1286.55c-3.26,6.9-44.21,48.93-48.4,79.54s-18.85,42.09-17.62,80.35-3.67,51,13.44,70.15,17.1,35.71,29.32,60-1.12,35.71,23.26,51,34.16-66.33,52.48-81.63,7.33-13.1,0-38.44-37.87-49.57-39.09-58.5,7.73-20.3,9.77-27.34c1.64-5.68,17.11-138.39,19.55-155.05s-12.89-6.11-12.89-6.11Z"/>
    <path class="cls-13" d="M2480.54,1587.25a1.87,1.87,0,0,1-.76-.15,2,2,0,0,1-1.09-2.6c9-22.11,11-24.59,14.3-28.71a68.29,68.29,0,0,0,4.77-6.62,62.11,62.11,0,0,1,7-9.22c1.82-2,2.3-2.54,3-6.51,1-5.86-4.05-10.65-5.3-11.72-1.14-.47-1.54-2.27-4.42-17.73-2.35-12.61-12.41-34.45-24.48-41-5.89-3.17-12.67-7.77-12.76-15.2-.05-4,1.39-7.7,2.77-11.26l.35-.9c7-18.25,10.12-38,12.2-54.81.87-7,1.07-14.13,1.27-21s.39-13.94,1.24-21a2,2,0,1,1,4,.48c-.83,6.85-1,13.84-1.22,20.61-.19,7-.4,14.22-1.29,21.4-2.11,17.1-5.24,37.1-12.44,55.76l-.35.91c-1.3,3.35-2.54,6.51-2.5,9.76.07,5.31,5.42,8.91,10.65,11.73,13.33,7.18,24,30,26.52,43.75,2.08,11.14,2.87,14.48,3.14,15.45,1.8,1.56,8,7.56,6.58,15.44-.88,4.9-1.8,6.08-4,8.48a57.83,57.83,0,0,0-6.58,8.7,70.8,70.8,0,0,1-5,7c-3.07,3.84-4.92,6.15-13.72,27.72A2,2,0,0,1,2480.54,1587.25Zm24.67-68.18h0Z"/>
    <path class="cls-17" d="M2614.08,1591.89a2,2,0,0,1-.11-4l115.08-6.24a2,2,0,1,1,.22,4l-115.08,6.24Z"/>
    <path class="cls-10" d="M2852.14,1493c9.77,39.72,5.09,122.16,3.26,136.21s-10.39,20.77-12.22,34.21c-1.49,10.92-10.23,18.61-13.46,21.11a2.84,2.84,0,0,1-2.56.48c-13.67-4.06-125.16-37.42-126.31-46-1.22-9.17,3.67-22,6.72-35.39.6-2.69,1.13-5.11,1.56-7.39,1.74-9.07,2.23-15.88,2.72-28.08.61-15.27,10.78-70,13.23-85.52a579.2,579.2,0,0,0,5.71-62.71c.81-22.81.81-28.52,0-44.8s-3.27-36.65-5.71-41.54c-2.19-4.36-11-98-12.89-117.88a2.18,2.18,0,0,1,0-.57,2.85,2.85,0,0,1,3.33-2.52c9,1.51,32.39,5.9,42.13,12.24,2.62,1.71,5.07,3.5,7.53,5.28,9,6.53,18,13,35.85,14.88,8.75.94,19,5,28.94,10.79,14.89,8.65,29,21.06,36,32.23,13.13,20.88,8.14,50.9,9.18,74.27.76,17.32-2,38.27,2.24,55.17C2879,1424,2842.37,1453.29,2852.14,1493Z"/>
    <path class="cls-13" d="M2741.2,1423.65a2,2,0,0,1-1.65-3.14c2.33-3.35,1.5-5.69.12-9.57-1.68-4.76-4-11.27-.37-22.1,3-9.07,7.84-16.36,12.08-22.79,4.92-7.44,9.17-13.87,10.22-21.63.92-6.72-1.81-16.83-4.46-26.61-3.29-12.18-6.39-23.69-3-30,3.07-5.76,9.55-10.86,15.8-15.78,5.52-4.34,10.73-8.45,12.33-12.08,1.92-4.33-12.86-20.31-27.64-32.63a2,2,0,1,1,2.56-3.08c7.75,6.47,32.75,28.26,28.74,37.33-2,4.54-7.59,8.94-13.51,13.6s-12.07,9.5-14.75,14.52.41,16.2,3.36,27.09c2.74,10.17,5.58,20.68,4.56,28.21-1.18,8.65-5.88,15.76-10.85,23.29-4.31,6.53-8.77,13.28-11.63,21.84-3.17,9.53-1.3,14.83.36,19.5,1.48,4.2,2.88,8.16-.61,13.19A2,2,0,0,1,2741.2,1423.65Z"/>
    <path class="cls-10" d="M2864.08,1286.55c3.26,6.9,44.21,48.93,48.4,79.54s18.84,42.09,17.62,80.35,3.67,51-13.44,70.15-17.1,35.71-29.32,60,1.12,35.71-23.26,51-34.16-66.33-52.48-81.63-7.33-13.1,0-38.44,37.87-49.57,39.09-58.5-7.74-20.3-9.77-27.34c-1.65-5.68-17.11-138.39-19.55-155.05s12.89-6.11,12.89-6.11Z"/>
    <path class="cls-13" d="M2801.57,1610.28a2,2,0,0,1-1.79-1.09,59.59,59.59,0,0,0-12.08-14.84c-1.38-1.27-2.74-2.42-4.07-3.54-7.08-6-13.19-11.14-11-25.59,1.26-8.2,3.81-11.87,6.51-15.76s5.64-8.12,7.93-18.17c4.62-20.26,34.49-98.76,35.76-102.09a2,2,0,1,1,3.73,1.42c-.3.82-31,81.57-35.59,101.55-2.46,10.81-5.69,15.46-8.54,19.57-2.54,3.65-4.73,6.8-5.85,14.09-1.88,12.23,2.69,16.09,9.6,21.93,1.36,1.14,2.75,2.32,4.19,3.64,9,8.23,12.79,15.66,12.95,16a2,2,0,0,1-.88,2.69A2.08,2.08,0,0,1,2801.57,1610.28Z"/>
    <path class="cls-17" d="M2659.62,1829.16a2,2,0,0,1-2-2V1708.58L2631.74,1687a2,2,0,1,1,2.57-3.07l26.59,22.23a2,2,0,0,1,.72,1.53v119.51A2,2,0,0,1,2659.62,1829.16Z"/>
    <path class="cls-6" d="M2691.37,1172.44c-5.23,7.12-13.09,13.22-23.44,14.24-21.12,2.08-41.74-17.52-52.75-29.58l.28-4.35c1.1.46,2.34.93,3.78,1.39,8.5,2.79,21.49,5.69,38.8,5.68,12.52,0,22.09-2.63,29-5.68l2,0Z"/>
    <path d="M2651,1093.18h-5.48a.92.92,0,0,1-.92-.92V1071.7a.92.92,0,1,1,1.83,0v19.65H2651a.92.92,0,0,1,0,1.83Z"/>
    <path class="cls-7" d="M2647.46,1127.71a37,37,0,0,1-12.75-2.31,1,1,0,0,1-.6-1.28,1,1,0,0,1,1.28-.59c12.58,4.61,26,1.76,32.61-6.94a1,1,0,1,1,1.6,1.22C2664.71,1124.22,2656.47,1127.71,2647.46,1127.71Z"/>
    <path d="M2582.9,1096.3a1.47,1.47,0,1,1-1.47-1.46A1.47,1.47,0,0,1,2582.9,1096.3Z"/>
    <path d="M2724.47,1096.8a1.47,1.47,0,1,1-1.46-1.46A1.46,1.46,0,0,1,2724.47,1096.8Z"/>
    <circle cx="2576" cy="1092.08" r="1.1"/>
  </g>
  <g>
    <g>
      <g>
        <path class="cls-2" d="M2138,1188.91,2103.45,1230l-11,13.07-97.58,116.15,5.74-161.94a25.25,25.25,0,0,0,23.71-25.21v-54.4l69.3,2.53c.93,6.23,1.88,12.48,2.81,18.72l.48,3.18c0,.15,0,.3.07.46.54,3.58.86,7.81,1.27,12.24.07.91.15,1.82.25,2.74,1.6,16,5,33.46,23.94,32.28Z"/>
        <path class="cls-6" d="M2098.26,1154.84c-4.66,8.14-12.28,15.58-22.69,16.72-19.89,2.17-39.28-19.25-48.85-31.1a33.81,33.81,0,0,1-2.39-3.42v-1.38a44.3,44.3,0,0,0,7.29,3.36c7.67,2.8,19.4,5.69,35,5.67a59.11,59.11,0,0,0,26.19-5.67l3.62-.06.48,3.18c0,.15,0,.3.07.46C2097.53,1146.18,2097.85,1150.41,2098.26,1154.84Z"/>
        <path d="M2129.3,1104s82.72-9,49-112.49-137.18-79.11-137.18-79.11-76.59,31.21-85.85,96.82,46.27,83.62,46.27,83.62Z"/>
        <path d="M2093.22,917.66s23.74-39.89,14.6-49.9-20.66-21.63-43.79-17.47-28,27.07-25.82,34.73a164.14,164.14,0,0,0,15.45,35.27C2061.19,932.66,2093.22,917.66,2093.22,917.66Z"/>
        <path class="cls-2" d="M1999.61,1057.72c-4.74,49.67,22.29,92.88,60.36,96.5s72.77-33.69,77.5-83.36-22.29-92.88-60.36-96.51S2004.34,1008.05,1999.61,1057.72Z"/>
        <path d="M2057.16,962s28.61,57.65,84.16,88.79,5.47-79.11,5.47-79.11Z"/>
        <path class="cls-2" d="M1978.55,1052.2c0,11.34,9.84,22.29,18,22.29s14.7-9.19,14.7-20.53-10.78-20.53-18.9-20.53S1978.55,1040.86,1978.55,1052.2Z"/>
        <path class="cls-2" d="M2151.44,1058c0,11.34-9.83,22.29-18,22.29s-14.69-9.2-14.69-20.54,10.78-20.53,18.89-20.53S2151.44,1046.62,2151.44,1058Z"/>
        <path d="M2033.79,1050.05c0,4.39,2.72,7.94,6.07,7.94s6.07-3.55,6.07-7.94-2.72-7.94-6.07-7.94S2033.79,1045.66,2033.79,1050.05Z"/>
        <ellipse cx="2101.37" cy="1053.96" rx="6.07" ry="7.94"/>
        <path d="M2050,1031.67a5.87,5.87,0,0,1-1.51,0c-13.58-2-21.9,2.15-22.25,2.33-2.27,1.17-5.22.67-6.56-1.12s-.63-4.18,1.62-5.38c.48-.25,11.77-6.1,29.33-3.52,2.58.38,4.2,2.42,3.61,4.54A4.86,4.86,0,0,1,2050,1031.67Z"/>
        <path d="M2119.16,1035.88a5.91,5.91,0,0,1-1.43-.49c-12.32-6.05-21.51-4.63-21.89-4.56-2.52.42-5.18-.95-5.91-3.07s.68-4.18,3.19-4.63c.53-.09,13.07-2.22,29,5.59,2.34,1.16,3.26,3.58,2.05,5.42A4.85,4.85,0,0,1,2119.16,1035.88Z"/>
        <path class="cls-22" d="M2070.57,1081.77a4.83,4.83,0,0,1-2.9-.94c-2.57-1.88-2.7-3.2-2.4-6.24l1.24-12.77a.88.88,0,0,1,.95-.78.87.87,0,0,1,.78,1l-1.25,12.77c-.26,2.72-.16,3.31,1.7,4.68a3.24,3.24,0,0,0,2.56.53l3.24-.68a.87.87,0,1,1,.36,1.7l-3.25.68A5.14,5.14,0,0,1,2070.57,1081.77Z"/>
        <path class="cls-18" d="M2043.37,1104c1.52,9.8,12.51,16.78,25.22,15.76,11-.89,19.83-7.55,21.91-15.79Z"/>
        <path class="cls-22" d="M1995.61,1067.42a2.11,2.11,0,1,1-2.89.77A2.12,2.12,0,0,1,1995.61,1067.42Z"/>
        <path class="cls-22" d="M2138.65,1071.53a2.12,2.12,0,1,1-2.89.78A2.13,2.13,0,0,1,2138.65,1071.53Z"/>
        <polygon class="cls-2" points="2188.05 1667.55 2130.21 1692.56 2096.85 1657.46 2169.56 1604.98 2200.52 1662.65 2188.05 1667.55"/>
        <path class="cls-2" d="M1860.46,1806.58l13-4.28a4.87,4.87,0,0,0-.17-5.26c-1.8-3-6.08-2.87-8.16-2.65a37.76,37.76,0,0,0-6.41,1.83s-5.12-5.85-10.35-8.5c0,0,1.37-7.18-1.06-11.86a18.88,18.88,0,0,0,4.78-13.54s.55-1,1.36-2.47c.69.3,2,.91,2.87,1.4,1.19.68,1.29,4.57.82,6.9a52.11,52.11,0,0,0-.25,14c.74,4.24,4,7.11,8.8,6.95s5-4.89,5.92-9.08.53-8.13.19-15.69,1.63-11.33,3.07-18.46a49,49,0,0,0,.92-12.86,79,79,0,0,0-3.64-15c.7-4.3.64-8.35-.73-11.36-2.45-5.4,5.52-44.85,5.52-44.85l-40.32,4.56,3.76,44.62s-12.62,26.43-16.8,38.3-7.22,18.14-6.64,24c0,0,6.13,23.74,12.42,29,6.46,5.37,20.8,14.8,25,15.12,4.52.35,16.52-1.26,16.52-1.26a12.42,12.42,0,0,0,4.66-1.21s1.94,0,.44-4S1870.39,1807.9,1860.46,1806.58Z"/>
        <path class="cls-24" d="M1930.44,1226.32s-34.88,19.06-39.93,46-21.88,64.89-31.14,80.72-21,48.28-22.72,59.36-25.25,170.15-18.52,208.14,1.51,67.53,14.5,72.81,54.51,0,54.51,0l60.6-369.33Z"/>
        <path class="cls-25" d="M2183,1836.22H1848.33c.76-6.46,1.59-13.14,2.49-20,1-7.9,2.18-16.06,3.43-24.43.73-4.92,1.51-9.9,2.32-15h0c3.62-22.63,8-46.64,13.44-71.54h0c.35-1.61.71-3.22,1.06-4.84a0,0,0,0,1,0,0c.38-1.74.77-3.46,1.16-5.21l.09-.41c1.71-7.58,3.52-15.25,5.42-23q1.66-6.83,3.45-13.7c4.81-18.61,10.17-37.48,16.17-56.47h0q1.59-5,3.24-10.09a18.84,18.84,0,0,1,3.63-2.4c5.87-3.22,19.9-8.85,49.35-11.7h.14a460.82,460.82,0,0,1,55-1.56c25,.6,55.5,2.75,92.7,7.27,0,0,2,7.13,5.56,18.51,3.19,10.33,7.58,24.18,12.71,39.36,4.73,14,10.09,29.09,15.74,43.66.63,1.62,1.25,3.23,1.89,4.83,7.36,18.61,15.14,36,22.55,48.51C2170.68,1756.3,2178.25,1795.58,2183,1836.22Z"/>
        <path class="cls-24" d="M1900.61,1484.67c.84-8.42,5.45-64.81,5.45-64.81s3-79.95.17-107.73c-1.78-17.44,10.41-51.81,19.7-75,1.61-4,3.13-7.64,4.51-10.84l18.11-7.48,62-25.65s-12.36,93.12-5.63,143.62c0,0,98.75-103.22,119-150.35,0,0,67.33,12.32,84.16,10.1s55,7.84,70.7,125.67,66.22,179.54,68.47,200.89,13.47,44.87-13.46,71.8-71.84,68.45-77.43,76.33-60.6,21.31-60.6,21.31l-57.14-103.7a6.51,6.51,0,0,1,3.12-9.12c9.59-4.14,26.79-11.62,31.56-14,6.74-3.37,49.93-25.79,49.93-25.79s-33.94-46-38.14-94.84c-1.89-21.81-2.76-39-3.13-51.51-.51,41.85-5.86,129.31-40.07,174.39l-18,33.67H1897.37a46.15,46.15,0,0,1,0-13.32C1899.39,1577.08,1899.77,1493.08,1900.61,1484.67Z"/>
      </g>
      <path class="cls-26" d="M1841,1696a1.88,1.88,0,0,1-.53-.07l-12.18-3.34c-2.86-.78-6.35-4.15-8-23.47-.83-9.65-.8-19.18-.8-20.23l-4.6-54.56a1.41,1.41,0,0,1,0-.29l2.92-46.94c.11-1,10.34-92.34,13.59-112.64,3.39-21.25,8.55-46.47,21-72.41,12.36-25.75,33.15-77.72,33.36-78.25a2,2,0,1,1,3.71,1.49c-.2.52-21,52.62-33.46,78.49-12.22,25.48-17.3,50.34-20.65,71.31-3.24,20.21-13.45,111.43-13.56,112.35l-2.9,46.7,4.6,54.5v.19c-.18,20.71,2.5,39,5.85,39.91l12.17,3.33a2,2,0,0,1-.52,3.93Z"/>
      <path class="cls-26" d="M1894,1564.18a2,2,0,0,1-1.47-.65c-.65-.7-6.33-8.18-7.15-54s8.44-80,10.92-83.47a2,2,0,0,1,3.27,2.3c-1.69,2.72-11,35.48-10.19,81.09.78,43.3,5.83,51,6.15,51.4a2,2,0,0,1-.18,2.75A2,2,0,0,1,1894,1564.18Z"/>
      <path class="cls-26" d="M2005,1338.81a2.17,2.17,0,0,1-.66-.11A2,2,0,0,1,2003,1337c-.07-.62-6.89-63.47,5.22-143.19a2,2,0,1,1,4,.6c-10.25,67.43-6.87,122.62-5.6,137.92,16.58-16.81,96.67-99.49,115.49-146.65a2,2,0,1,1,3.71,1.49c-21.22,53.18-115.39,147.06-119.39,151A2,2,0,0,1,2005,1338.81Z"/>
      <path class="cls-26" d="M2256.36,1673.25a2,2,0,0,1-1.29-.47,2,2,0,0,1-.24-2.82c.19-.23,19.94-23.6,57.18-56.5l1.3-1.15c12.88-11.36,28.9-25.49,33.9-42.23,6.22-20.81,1.75-45.42-13.28-73.17-12.45-23-22.18-47.75-31.58-71.71l-3-7.72A2,2,0,1,1,2303,1416l3,7.72c9.36,23.84,19,48.51,31.38,71.27,15.55,28.71,20.13,54.35,13.59,76.22-5.33,17.83-21.83,32.38-35.08,44.08l-1.3,1.14c-37,32.69-56.58,55.85-56.77,56.08A2,2,0,0,1,2256.36,1673.25Z"/>
      <path class="cls-26" d="M2172.9,1490.54a2.33,2.33,0,0,1-.37,0,2,2,0,0,1-1.6-2.34c0-.06,1.18-6.23,3.65-21.55s5.35-72.53,5.38-73.11a2,2,0,0,1,2.1-1.89,2,2,0,0,1,1.89,2.09c-.11,2.37-2.92,58.08-5.42,73.55s-3.66,21.6-3.67,21.66A2,2,0,0,1,2172.9,1490.54Z"/>
    </g>
    <path class="cls-22" d="M2052,1215.71a31.89,31.89,0,0,1-8.51-1.12c-18.67-5.13-24.9-26.61-25-26.83l1-.26c.06.21,6.13,21.16,24.26,26.13,16.65,4.56,37.89-5.32,63.13-29.38l.69.73C2086.1,1205.41,2067.45,1215.71,2052,1215.71Z"/>
  </g>
  <g>
    <g>
      <path class="cls-6" d="M1508.22,1686.76s21,6.24,25.12,7.14c0,0-7.18,29.6-21.92,36.83l-.35.17Z"/>
      <g>
        <g>
          <path class="cls-7" d="M1490.11,1213.62s5.46-4.19,12.48,2c37.36,32.86,33.76,90,33.25,104.69s12.9,68.18,20,88.26,15.61,32,20.83,66.91,0,104,.58,112.56,7.44,49.87,11,61.21c2.67,8.48-.42,34.23-9.73,38.37s-15.35,9.53-49.61,5.29-25.48-15.6-26-31.42-5.53-29.93-5.68-37-1.52-20.34-1.45-38,1.29-10.81-2.18-27.93-28.29-103.71-19.29-125-24.71-92.79-24.16-98.18S1442,1281,1442,1281s7.39-23,19.14-39.51,27.31-25.57,29-27.83Z"/>
          <path class="cls-24" d="M1361.77,1513.64v65.16l-1.4,65.83-.22,10.07s0,0,0,0l-3.87,181.5H1199.47l15.3-184.64,1.69-20.48.47-5.62.84-10h0l3.26-39.36,3.13-37.86,2-24.56Z"/>
          <path class="cls-24" d="M1521.27,1836.22H1364.45l-3.94-184.78s0,0,0,0l-.14-6.78L1359,1578.8v-65.16h135.58l8,96h0l1.11,13.46.13,1.48v0l.72,8.67h0l4.45,53.66.06.67,3.52,42.54Z"/>
          <path class="cls-27" d="M1207.07,1140.72s-8.86-55.53,12.81-84,14.77-53,14.77-66.22,3.94-55,22.65-70.3,26.59-48.9,87.65-36.67c0,0,15.75-9.17,56.13-4.08s57.12,58.07,59.09,69.28,5.91,34.64,15.76,45.84,19.69,36.68,12.8,62.15-7.21,30.56,2.3,54,4.59,30.06,4.59,30.06S1380.4,1188.09,1207.07,1140.72Z"/>
          <polygon class="cls-2" points="1405.5 1183.5 1309.37 1183.5 1319.16 1116.42 1319.82 1111.93 1321.19 1102.51 1393.68 1102.51 1395.23 1113.09 1398.06 1132.47 1405.5 1183.5"/>
          <path class="cls-6" d="M1398.06,1132.47c-5.46,7.15-13.54,13.19-24.09,14.21-21.89,2.14-43.26-17.79-54.81-30.26l.66-4.49c1,.38,2.1.78,3.35,1.18,8.87,2.88,22.42,5.87,40.46,5.86,13.07,0,23.06-2.72,30.28-5.86l1.32,0Z"/>
          <ellipse class="cls-2" cx="1354.17" cy="1016.03" rx="82" ry="110.93"/>
          <path class="cls-2" d="M1297.29,1035.44c4.24,11.5.57,23.62-8.2,27.08s-19.31-3.06-23.54-14.56-.57-23.63,8.2-27.09S1293.06,1023.94,1297.29,1035.44Z"/>
          <path class="cls-2" d="M1422.08,1035.44c-4.23,11.51-.56,23.63,8.21,27.08s19.31-3.07,23.54-14.57.56-23.63-8.21-27.08S1426.31,1023.94,1422.08,1035.44Z"/>
          <path class="cls-7" d="M1297.58,994.35a4.42,4.42,0,0,1-4.08-2.8,4.64,4.64,0,0,1,2.34-6c21.3-9.34,37.48-.64,38.16-.27a4.67,4.67,0,0,1,1.83,6.21,4.35,4.35,0,0,1-6,1.9c-.62-.33-13.35-6.94-30.54.61A4.47,4.47,0,0,1,1297.58,994.35Z"/>
          <path class="cls-7" d="M1376.27,994.35a4.44,4.44,0,0,1-4.08-2.8,4.65,4.65,0,0,1,2.35-6c21.3-9.34,37.48-.64,38.16-.27a4.68,4.68,0,0,1,1.83,6.21,4.34,4.34,0,0,1-6,1.9c-.62-.33-13.36-6.94-30.55.61A4.4,4.4,0,0,1,1376.27,994.35Z"/>
          <path class="cls-7" d="M1321.19,1018.19c0,5.22-3.24,9.46-7.23,9.46s-7.24-4.24-7.24-9.46,3.24-9.47,7.24-9.47S1321.19,1013,1321.19,1018.19Z"/>
          <path class="cls-7" d="M1400.92,1018.19c0,5.22-3.24,9.46-7.24,9.46s-7.23-4.24-7.23-9.46,3.24-9.47,7.23-9.47S1400.92,1013,1400.92,1018.19Z"/>
          <path class="cls-27" d="M1345,915.06s-48.26,68.92-55.15,104.76-46.29,24.62-50.23,25.64,23.64-114.1,23.64-114.1L1345,895.7Z"/>
          <path class="cls-27" d="M1345,891.25v23.81a281.48,281.48,0,0,0,40.6,62.65c17.21,19.94,38.69,37.33,59.71,52.76,3.58,2.62,8.81,5.47,12.1,8.4-2.95-17.42-8.35-34.8-11.65-52.17-3-15.61-4.87-32.21-9.67-47.7C1434.56,936.71,1345,891.25,1345,891.25Z"/>
          <path class="cls-7" d="M1303.8,1136.74s-4.46,8.76-4.46,17.07,7.13,30.44-11.6,31.37-80.21,41.52-96.3,53.51-11.62,37.83-11.62,37.83,33,334.24,38.35,339.77,82.28-74,111-70.58,19.62,9.92,31.21,9,16.06-10.15,19.63-9.69,15.6,2.77,21.4,6.92,28.1-2.31,43.26,11.53,75.81,60,75.81,60,8-65.51-5.35-85.81,5.35-199.3,0-205.76-9.81-114.41-9.81-114.41-56.41-30.22-74.47-30.91-13.38-44.29-13.38-44.29Z"/>
          <path class="cls-7" d="M1354.15,1092.56a37,37,0,0,1-12.76-2.31,1,1,0,0,1-.6-1.28,1,1,0,0,1,1.29-.6c12.57,4.62,26,1.77,32.61-6.93a1,1,0,1,1,1.59,1.21C1371.39,1089.07,1363.15,1092.56,1354.15,1092.56Z"/>
          <path class="cls-7" d="M1431.79,1091.67h-.62a14.27,14.27,0,0,1-12-7.18.75.75,0,0,1,1.3-.75,12.78,12.78,0,0,0,10.78,6.43,14,14,0,0,0,12.08-6c4-5.85,4.67-14.52,1.48-20.61a11.4,11.4,0,0,0-10.43-6.51.75.75,0,0,1,0-1.5h0a12.86,12.86,0,0,1,11.76,7.31c3.44,6.56,2.77,15.88-1.57,22.17A15.6,15.6,0,0,1,1431.79,1091.67Z"/>
          <path class="cls-7" d="M1276.31,1091.67a15.6,15.6,0,0,1-12.76-6.6c-3.79-5.49-4.1-13.13-.78-19.47,3-5.63,8.22-9,14.1-9h0a.75.75,0,0,1,0,1.5c-5.39,0-10,3-12.77,8.18-3.07,5.86-2.8,12.89.68,17.92a14.06,14.06,0,0,0,12.08,6,12.8,12.8,0,0,0,10.79-6.43.75.75,0,0,1,1.3.75,14.28,14.28,0,0,1-12,7.18Z"/>
          <path class="cls-7" d="M1354.69,1051.38h-1.2a7.32,7.32,0,0,1-7.2-7.45V1022.2a1.2,1.2,0,1,1,2.4,0v20.49a6.1,6.1,0,0,0,6,6.21h0a1.24,1.24,0,0,1,0,2.48Z"/>
          <path class="cls-2" d="M1317,1598.26,1273.79,1572l3-8.82c2.16-3.07,4.57-6.65,1.79-9.29a10,10,0,0,0-11.16-1.47L1219.21,1577l-34.12,27.91c22.16,21.85,38.53,23.53,48.51,21,1.05.46,2.08.93,3.15,1.35l37,14.27a8,8,0,0,0,9.89-1.92c1.6-2.06,2.58-5.56-4.33-9.75l6.91,4.19a8.29,8.29,0,0,0,10.38-2.13c2.1-2.7.65-6.76-3.32-9.76l5.36,2.63c3.87,2,9,.83,11.09-2.83,1.84-3.17.4-7.07-2.93-9.09l-7.63-4.61,8.87,1c4.26,1.92,10.1,2.63,12.19-1.33,1.79-3.41.21-7.47-3.3-9.61Z"/>
          <path class="cls-7" d="M1191.44,1238.69s-94.15,89.17-102.94,102.63c-8.27,12.67-13.79,15.73-19.55,20.24s-4,8.16-23.59,40.62c-14.63,24.21-23.38,64.36-13.32,92.11,10.41,28.71,38.13,48.3,63.83,62.29,27.85,15.16,33.16,20.07,55.39,33.59s28,16.1,40.18,29.07c7.25,7.75,24.49,11.44,34.87,14.81,4.57,1.49,10.17-3.63,11.52-8.39l20.15-68.38s-17.41-43-52.25-60.48c-19.87-10-43.08-20.37-54.43-30.39-9.22-8.13,24.14-25.43,31.06-31.39,5.7-4.91,27.73-24.73,31.65-26.08s15.69-57.82,15.69-58.66S1191.44,1238.69,1191.44,1238.69Z"/>
        </g>
        <path class="cls-28" d="M1355.21,1772.57h0a2,2,0,0,1-2-2c.12-4.49,3-110.09,5.81-122.38,3.18-14,28.5-40.33,29.57-41.45a2,2,0,1,1,2.88,2.78c-.25.27-25.61,26.66-28.55,39.55-2.71,11.92-5.68,120.51-5.71,121.6A2,2,0,0,1,1355.21,1772.57Z"/>
      </g>
    </g>
    <path class="cls-29" d="M1196.78,1425.45a2,2,0,0,1-1.24-3.57,152.15,152.15,0,0,0,31.15-33.74c1.53-2.25,3-4.9,4.54-7.71,3.65-6.59,7.41-13.41,13-16.83a2,2,0,0,1,2.1,3.41c-4.65,2.87-8.16,9.21-11.56,15.35-1.59,2.89-3.1,5.63-4.74,8a155.72,155.72,0,0,1-32,34.62A2,2,0,0,1,1196.78,1425.45Z"/>
    <path class="cls-29" d="M1257.6,1533.53a2,2,0,0,1-1.8-1.12h0c-.06-.13-6.12-12.33-19.39-18-14.35-6.14-18.5-10.2-18.67-10.37a2,2,0,0,1,2.82-2.83s4,3.77,17.43,9.53a45.13,45.13,0,0,1,21.41,19.93,2,2,0,0,1-.93,2.67A1.91,1.91,0,0,1,1257.6,1533.53Z"/>
    <path class="cls-29" d="M1505.34,1578.87a2,2,0,0,1-.48-.06,2,2,0,0,1-1.47-2.41c0-.1,2.44-10.54-.83-29.59l-.71-4c-1.78-10.23-1.85-10.63-.69-16,.46-2.12,1.09-5,1.86-10,2.77-17.71-13.26-79.79-13.43-80.41a2,2,0,0,1,3.88-1c.67,2.59,16.4,63.52,13.51,82-.8,5.08-1.44,8-1.91,10.23-1,4.61-1,4.61.72,14.47l.71,4.06c3.43,20,.89,30.75.78,31.2A2,2,0,0,1,1505.34,1578.87Z"/>
  </g>
</svg>
