<?xml version="1.0" encoding="UTF-8"?>
<!DOCTYPE svg PUBLIC "-//W3C//DTD SVG 1.1//EN" "http://www.w3.org/Graphics/SVG/1.1/DTD/svg11.dtd">
<svg xmlns="http://www.w3.org/2000/svg" version="1.1" width="1024px" height="1024px" style="shape-rendering:geometricPrecision; text-rendering:geometricPrecision; image-rendering:optimizeQuality; fill-rule:evenodd; clip-rule:evenodd" xmlns:xlink="http://www.w3.org/1999/xlink">
<g><path style="opacity:0.996" fill="#f8aa00" d="M 510.5,-0.5 C 511.167,-0.5 511.833,-0.5 512.5,-0.5C 562.374,48.7772 612.707,97.6105 663.5,146C 734.499,146.5 805.499,146.667 876.5,146.5C 876.333,216.167 876.5,285.834 877,355.5C 925.701,404.368 974.535,453.035 1023.5,501.5C 1023.5,505.167 1023.5,508.833 1023.5,512.5C 974.535,560.965 925.701,609.632 877,658.5C 876.5,729.833 876.333,801.166 876.5,872.5C 805.166,872.333 733.833,872.5 662.5,873C 612.299,923.035 562.299,973.201 512.5,1023.5C 511.833,1023.5 511.167,1023.5 510.5,1023.5C 460.868,973.368 411.035,923.368 361,873.5C 360.517,874.448 360.351,875.448 360.5,876.5C 290.5,876.5 220.5,876.5 150.5,876.5C 150.667,805.166 150.5,733.833 150,662.5C 99.9654,612.299 49.7987,562.299 -0.5,512.5C -0.5,511.833 -0.5,511.167 -0.5,510.5C 49.7987,460.701 99.9654,410.701 150,360.5C 150.5,289.167 150.667,217.834 150.5,146.5C 220.501,146.667 290.501,146.5 360.5,146C 371.167,136.667 381.833,127.333 392.5,118C 432.035,78.632 471.368,39.132 510.5,-0.5 Z"/></g>
<g><path style="opacity:1" fill="#e37400" d="M 490.5,216.5 C 599.172,212.763 686.339,253.763 752,339.5C 807.625,422.146 820.625,511.146 791,606.5C 753.767,707.732 682.934,771.898 578.5,799C 483.136,818.406 397.469,798.073 321.5,738C 247.391,672.405 212.558,589.905 217,490.5C 227.13,387.135 276.297,308.635 364.5,255C 403.878,233.148 445.878,220.315 490.5,216.5 Z"/></g>
<g><path style="opacity:1" fill="#fefdfd" d="M 531.5,364.5 C 543.902,367.689 556.236,371.189 568.5,375C 570.573,375.118 571.907,376.118 572.5,378C 547.855,467.433 523.521,556.933 499.5,646.5C 486.097,642.978 472.764,639.144 459.5,635C 458.941,634.275 458.608,633.442 458.5,632.5C 482.84,543.149 507.174,453.816 531.5,364.5 Z"/></g>
<g><path style="opacity:1" fill="#fefefd" d="M 408.5,409.5 C 419.623,418.58 430.623,427.914 441.5,437.5C 421.167,460.833 400.833,484.167 380.5,507.5C 400.716,530.76 421.049,553.927 441.5,577C 430.667,585.167 419.833,593.333 409,601.5C 380.117,570.287 351.617,538.787 323.5,507C 331.396,496.06 339.896,485.56 349,475.5C 369.04,453.629 388.874,431.629 408.5,409.5 Z"/></g>
<g><path style="opacity:1" fill="#fefdfd" d="M 612.5,409.5 C 616.067,411.557 619.234,414.223 622,417.5C 648.018,446.017 673.852,474.684 699.5,503.5C 671.185,534.983 642.685,566.316 614,597.5C 604.5,589.333 595,581.167 585.5,573C 605.951,549.927 626.284,526.76 646.5,503.5C 626.353,480.185 606.02,457.018 585.5,434C 594.573,425.817 603.573,417.65 612.5,409.5 Z"/></g>
</svg>
