<?xml version="1.0" encoding="UTF-8"?>
<!DOCTYPE svg PUBLIC "-//W3C//DTD SVG 1.1//EN" "http://www.w3.org/Graphics/SVG/1.1/DTD/svg11.dtd">
<svg xmlns="http://www.w3.org/2000/svg" version="1.1" width="654px" height="648px" style="shape-rendering:geometricPrecision; text-rendering:geometricPrecision; image-rendering:optimizeQuality; fill-rule:evenodd; clip-rule:evenodd" xmlns:xlink="http://www.w3.org/1999/xlink">
<g><path style="opacity:0.995" fill="#f16521" d="M 4.5,2.5 C 106.167,2.5 207.833,2.5 309.5,2.5C 309.5,104.167 309.5,205.833 309.5,307.5C 207.833,307.5 106.167,307.5 4.5,307.5C 4.5,205.833 4.5,104.167 4.5,2.5 Z"/></g>
<g><path style="opacity:0.995" fill="#8cc63f" d="M 339.5,2.5 C 441.167,2.5 542.833,2.5 644.5,2.5C 644.5,104.167 644.5,205.833 644.5,307.5C 542.833,307.5 441.167,307.5 339.5,307.5C 339.5,205.833 339.5,104.167 339.5,2.5 Z"/></g>
<g><path style="opacity:0.995" fill="#00adee" d="M 4.5,337.5 C 106.167,337.5 207.833,337.5 309.5,337.5C 309.5,439.167 309.5,540.833 309.5,642.5C 207.833,642.5 106.167,642.5 4.5,642.5C 4.5,540.833 4.5,439.167 4.5,337.5 Z"/></g>
<g><path style="opacity:0.247" fill="#fec10c" d="M 644.5,338.5 C 543.167,338.5 441.833,338.5 340.5,338.5C 340.5,439.833 340.5,541.167 340.5,642.5C 339.501,541.001 339.167,439.335 339.5,337.5C 441.335,337.167 543.001,337.501 644.5,338.5 Z"/></g>
<g><path style="opacity:1" fill="#fec20d" d="M 644.5,338.5 C 644.5,439.833 644.5,541.167 644.5,642.5C 543.167,642.5 441.833,642.5 340.5,642.5C 340.5,541.167 340.5,439.833 340.5,338.5C 441.833,338.5 543.167,338.5 644.5,338.5 Z"/></g>
</svg>
