<?xml version="1.0" encoding="UTF-8"?>
<!DOCTYPE svg PUBLIC "-//W3C//DTD SVG 1.1//EN" "http://www.w3.org/Graphics/SVG/1.1/DTD/svg11.dtd">
<svg xmlns="http://www.w3.org/2000/svg" version="1.1" width="622px" height="215px" style="shape-rendering:geometricPrecision; text-rendering:geometricPrecision; image-rendering:optimizeQuality; fill-rule:evenodd; clip-rule:evenodd" xmlns:xlink="http://www.w3.org/1999/xlink">
<g><path style="opacity:0.982" fill="#17529f" d="M 254.5,-0.5 C 270.833,-0.5 287.167,-0.5 303.5,-0.5C 304.172,0.267389 305.005,0.934056 306,1.5C 306.009,53.9162 306.675,106.25 308,158.5C 308.75,159.126 309.584,159.626 310.5,160C 340.833,160.333 371.167,160.667 401.5,161C 402.701,161.903 403.535,163.069 404,164.5C 404.667,179.5 404.667,194.5 404,209.5C 403.626,210.416 403.126,211.25 402.5,212C 377.561,213.153 352.561,213.653 327.5,213.5C 303.5,213.333 279.5,213.167 255.5,213C 253.152,212.89 251.652,211.723 251,209.5C 250.333,140.833 250.333,72.1667 251,3.5C 251.69,1.64977 252.856,0.316435 254.5,-0.5 Z"/></g>
<g><path style="opacity:0.982" fill="#f8b928" d="M 439.5,-0.5 C 455.833,-0.5 472.167,-0.5 488.5,-0.5C 490.144,0.316435 491.31,1.64977 492,3.5C 492.333,28.1667 492.667,52.8333 493,77.5C 493.75,78.1258 494.584,78.6258 495.5,79C 517.5,79.6667 539.5,79.6667 561.5,79C 562.333,78.1667 563.167,77.3333 564,76.5C 564.333,52.1667 564.667,27.8333 565,3.5C 565.69,1.64977 566.856,0.316435 568.5,-0.5C 584.833,-0.5 601.167,-0.5 617.5,-0.5C 619.167,0.5 620.5,1.83333 621.5,3.5C 621.5,72.5 621.5,141.5 621.5,210.5C 620.373,211.122 619.373,211.955 618.5,213C 601.5,213.667 584.5,213.667 567.5,213C 566.667,212.167 565.833,211.333 565,210.5C 564.667,185.5 564.333,160.5 564,135.5C 563.5,134.333 562.667,133.5 561.5,133C 539.5,132.333 517.5,132.333 495.5,133C 494.584,133.374 493.75,133.874 493,134.5C 492.667,159.833 492.333,185.167 492,210.5C 491.167,211.333 490.333,212.167 489.5,213C 472.5,213.667 455.5,213.667 438.5,213C 437.692,212.692 437.025,212.192 436.5,211.5C 435.337,142.207 435.17,72.8739 436,3.5C 436.69,1.64977 437.856,0.316435 439.5,-0.5 Z"/></g>
<g><path style="opacity:0.998" fill="#e83226" d="M 2.5,-0.5 C 64.5,-0.5 126.5,-0.5 188.5,-0.5C 205.153,3.32007 215.319,13.6534 219,30.5C 219.667,89.8333 219.667,149.167 219,208.5C 218.535,209.931 217.701,211.097 216.5,212C 200.5,212.667 184.5,212.667 168.5,212C 168,211.5 167.5,211 167,210.5C 166.5,157.168 166.333,103.834 166.5,50.5C 155.5,50.5 144.5,50.5 133.5,50.5C 133.667,103.834 133.5,157.168 133,210.5C 132.097,211.701 130.931,212.535 129.5,213C 116.167,213.667 102.833,213.667 89.5,213C 87.1517,212.89 85.6517,211.723 85,209.5C 84.5,156.501 84.3333,103.501 84.5,50.5C 73.8333,50.5 63.1667,50.5 52.5,50.5C 52.6667,103.834 52.5,157.168 52,210.5C 50.8289,211.893 49.3289,212.727 47.5,213C 32.8333,213.667 18.1667,213.667 3.5,213C 2.01608,212.338 0.682751,211.504 -0.5,210.5C -0.5,141.167 -0.5,71.8333 -0.5,2.5C 0.5,1.5 1.5,0.5 2.5,-0.5 Z"/></g>
</svg>
