<?xml version="1.0" encoding="UTF-8"?>
<!DOCTYPE svg PUBLIC "-//W3C//DTD SVG 1.1//EN" "http://www.w3.org/Graphics/SVG/1.1/DTD/svg11.dtd">
<svg xmlns="http://www.w3.org/2000/svg" version="1.1" width="961px" height="835px" style="shape-rendering:geometricPrecision; text-rendering:geometricPrecision; image-rendering:optimizeQuality; fill-rule:evenodd; clip-rule:evenodd" xmlns:xlink="http://www.w3.org/1999/xlink">
<g><path style="opacity:1" fill="#0d141e" d="M -0.5,-0.5 C 319.833,-0.5 640.167,-0.5 960.5,-0.5C 960.5,277.833 960.5,556.167 960.5,834.5C 640.167,834.5 319.833,834.5 -0.5,834.5C -0.5,556.167 -0.5,277.833 -0.5,-0.5 Z"/></g>
<g><path style="opacity:1" fill="#fdfdfd" d="M 209.5,247.5 C 235.835,247.333 262.169,247.5 288.5,248C 289,248.5 289.5,249 290,249.5C 290.5,290.499 290.667,331.499 290.5,372.5C 318.167,372.5 345.833,372.5 373.5,372.5C 373.333,331.832 373.5,291.165 374,250.5C 374.833,249.667 375.667,248.833 376.5,248C 402.5,247.333 428.5,247.333 454.5,248C 455.333,248.833 456.167,249.667 457,250.5C 457.667,359.833 457.667,469.167 457,578.5C 456.167,579.333 455.333,580.167 454.5,581C 428.5,581.667 402.5,581.667 376.5,581C 375.667,580.167 374.833,579.333 374,578.5C 373.5,537.835 373.333,497.168 373.5,456.5C 345.833,456.5 318.167,456.5 290.5,456.5C 290.667,497.501 290.5,538.501 290,579.5C 289.5,580 289,580.5 288.5,581C 262.167,581.667 235.833,581.667 209.5,581C 209,580.5 208.5,580 208,579.5C 207.333,469.5 207.333,359.5 208,249.5C 208.717,248.956 209.217,248.289 209.5,247.5 Z"/></g>
<g><path style="opacity:1" fill="#00e963" d="M 501.5,247.5 C 583.167,247.333 664.834,247.5 746.5,248C 747,248.5 747.5,249 748,249.5C 748.667,359.5 748.667,469.5 748,579.5C 747.5,580 747,580.5 746.5,581C 664.833,581.667 583.167,581.667 501.5,581C 500.667,580.167 499.833,579.333 499,578.5C 498.333,469.167 498.333,359.833 499,250.5C 500.045,249.627 500.878,248.627 501.5,247.5 Z"/></g>
</svg>
